<?xml version="1.0" encoding="us-ascii" standalone="no"?><svg xmlns="http://www.w3.org/2000/svg" xmlns:xlink="http://www.w3.org/1999/xlink" contentStyleType="text/css" height="1114px" preserveAspectRatio="none" style="width:1784px;height:1114px;background:#FFFFFF;" version="1.1" viewBox="0 0 1784 1114" width="1784px" zoomAndPan="magnify"><defs/><g><text fill="#000000" font-family="sans-serif" font-size="14" font-weight="bold" lengthAdjust="spacing" textLength="631" x="569.5" y="24.5332">Vitalia - Class Diagram - Stage 3 - Billing Context - (Electronic Invoicing and Cash Register)</text><!--cluster 6--><g id="cluster_6"><rect fill="none" height="965" rx="2.5" ry="2.5" style="stroke:#000000;stroke-width:1.5;" width="1771" x="7" y="45.6094"/><text fill="#000000" font-family="sans-serif" font-size="14" font-weight="bold" lengthAdjust="spacing" textLength="8" x="888.5" y="62.1426">6</text></g><!--cluster  Billing Context\n(Electronic Invoicing and Cash Register)--><g id="cluster_ Billing Context\n(Electronic Invoicing and Cash Register)"><rect fill="#F0F2ED" height="897" rx="2.5" ry="2.5" style="stroke:#000000;stroke-width:1.5;" width="1723" x="31" y="89.6094"/><text fill="#000000" font-family="sans-serif" font-size="14" font-weight="bold" lengthAdjust="spacing" textLength="103" x="843" y="106.1426">Billing Context</text><text fill="#000000" font-family="sans-serif" font-size="14" font-weight="bold" lengthAdjust="spacing" textLength="283" x="751" y="123.752">(Electronic Invoicing and Cash Register)</text></g><!--class BillingBranchId--><g id="elem_BillingBranchId"><rect codeLine="17" fill="#FFF2B3" height="76.3125" id="BillingBranchId" rx="2.5" ry="2.5" style="stroke:#181818;stroke-width:0.5;" width="113" x="1214.5" y="456.6094"/><ellipse cx="1231.75" cy="477.9609" fill="#ADD1B2" rx="11" ry="11" style="stroke:#181818;stroke-width:1.0;"/><path d="M1234.5156,473.8359 Q1234.6719,473.6172 1234.8594,473.5078 Q1235.0469,473.3984 1235.2656,473.3984 Q1235.6406,473.3984 1235.875,473.6641 Q1236.1094,473.9141 1236.1094,474.5234 L1236.1094,475.9766 Q1236.1094,476.5859 1235.875,476.8516 Q1235.6406,477.1172 1235.2656,477.1172 Q1234.9219,477.1172 1234.7188,476.9141 Q1234.5156,476.7266 1234.4063,476.2109 Q1234.3594,475.8516 1234.1719,475.6641 Q1233.8438,475.2891 1233.2344,475.0703 Q1232.625,474.8516 1232,474.8516 Q1231.2344,474.8516 1230.5938,475.1797 Q1229.9688,475.5078 1229.4688,476.2578 Q1228.9844,477.0078 1228.9844,478.0391 L1228.9844,479.1328 Q1228.9844,480.3672 1229.875,481.1953 Q1230.7656,482.0078 1232.3594,482.0078 Q1233.2969,482.0078 1233.9531,481.7578 Q1234.3438,481.6016 1234.7656,481.1641 Q1235.0313,480.8984 1235.1719,480.8203 Q1235.3281,480.7422 1235.5313,480.7422 Q1235.8594,480.7422 1236.1094,481.0078 Q1236.375,481.2578 1236.375,481.6016 Q1236.375,481.9453 1236.0313,482.3516 Q1235.5313,482.9297 1234.7344,483.2578 Q1233.6563,483.7109 1232.3594,483.7109 Q1230.8438,483.7109 1229.6406,483.0859 Q1228.6563,482.5859 1227.9688,481.5234 Q1227.2813,480.4453 1227.2813,479.1641 L1227.2813,478.0078 Q1227.2813,476.6797 1227.8906,475.5391 Q1228.5156,474.3828 1229.6094,473.7734 Q1230.7031,473.1484 1231.9375,473.1484 Q1232.6719,473.1484 1233.3125,473.3203 Q1233.9688,473.4766 1234.5156,473.8359 Z " fill="#000000"/><text fill="#000000" font-family="sans-serif" font-size="12" font-style="italic" lengthAdjust="spacing" textLength="80" x="1244.25" y="474.0664">&#171;valueObject&#187;</text><text fill="#000000" font-family="sans-serif" font-size="14" lengthAdjust="spacing" textLength="56" x="1256.25" y="491.2363">BranchId</text><line style="stroke:#181818;stroke-width:0.5;" x1="1215.5" x2="1326.5" y1="499.3125" y2="499.3125"/><text fill="#000000" font-family="sans-serif" font-size="14" lengthAdjust="spacing" textLength="101" x="1220.5" y="517.8457">-idBranch: Long</text><line style="stroke:#181818;stroke-width:0.5;" x1="1215.5" x2="1326.5" y1="524.9219" y2="524.9219"/></g><!--class BillingEncounterId--><g id="elem_BillingEncounterId"><rect codeLine="21" fill="#FFF2B3" height="76.3125" id="BillingEncounterId" rx="2.5" ry="2.5" style="stroke:#181818;stroke-width:0.5;" width="133" x="836.5" y="456.6094"/><ellipse cx="862.75" cy="477.9609" fill="#ADD1B2" rx="11" ry="11" style="stroke:#181818;stroke-width:1.0;"/><path d="M865.5156,473.8359 Q865.6719,473.6172 865.8594,473.5078 Q866.0469,473.3984 866.2656,473.3984 Q866.6406,473.3984 866.875,473.6641 Q867.1094,473.9141 867.1094,474.5234 L867.1094,475.9766 Q867.1094,476.5859 866.875,476.8516 Q866.6406,477.1172 866.2656,477.1172 Q865.9219,477.1172 865.7188,476.9141 Q865.5156,476.7266 865.4063,476.2109 Q865.3594,475.8516 865.1719,475.6641 Q864.8438,475.2891 864.2344,475.0703 Q863.625,474.8516 863,474.8516 Q862.2344,474.8516 861.5938,475.1797 Q860.9688,475.5078 860.4688,476.2578 Q859.9844,477.0078 859.9844,478.0391 L859.9844,479.1328 Q859.9844,480.3672 860.875,481.1953 Q861.7656,482.0078 863.3594,482.0078 Q864.2969,482.0078 864.9531,481.7578 Q865.3438,481.6016 865.7656,481.1641 Q866.0313,480.8984 866.1719,480.8203 Q866.3281,480.7422 866.5313,480.7422 Q866.8594,480.7422 867.1094,481.0078 Q867.375,481.2578 867.375,481.6016 Q867.375,481.9453 867.0313,482.3516 Q866.5313,482.9297 865.7344,483.2578 Q864.6563,483.7109 863.3594,483.7109 Q861.8438,483.7109 860.6406,483.0859 Q859.6563,482.5859 858.9688,481.5234 Q858.2813,480.4453 858.2813,479.1641 L858.2813,478.0078 Q858.2813,476.6797 858.8906,475.5391 Q859.5156,474.3828 860.6094,473.7734 Q861.7031,473.1484 862.9375,473.1484 Q863.6719,473.1484 864.3125,473.3203 Q864.9688,473.4766 865.5156,473.8359 Z " fill="#000000"/><text fill="#000000" font-family="sans-serif" font-size="12" font-style="italic" lengthAdjust="spacing" textLength="80" x="877.25" y="474.0664">&#171;valueObject&#187;</text><text fill="#000000" font-family="sans-serif" font-size="14" lengthAdjust="spacing" textLength="76" x="879.25" y="491.2363">EncounterId</text><line style="stroke:#181818;stroke-width:0.5;" x1="837.5" x2="968.5" y1="499.3125" y2="499.3125"/><text fill="#000000" font-family="sans-serif" font-size="14" lengthAdjust="spacing" textLength="121" x="842.5" y="517.8457">-idEncounter: Long</text><line style="stroke:#181818;stroke-width:0.5;" x1="837.5" x2="968.5" y1="524.9219" y2="524.9219"/></g><!--class BillingPatientId--><g id="elem_BillingPatientId"><rect codeLine="25" fill="#FFF2B3" height="76.3125" id="BillingPatientId" rx="2.5" ry="2.5" style="stroke:#181818;stroke-width:0.5;" width="112" x="516" y="456.6094"/><ellipse cx="532.8" cy="477.9609" fill="#ADD1B2" rx="11" ry="11" style="stroke:#181818;stroke-width:1.0;"/><path d="M535.5656,473.8359 Q535.7219,473.6172 535.9094,473.5078 Q536.0969,473.3984 536.3156,473.3984 Q536.6906,473.3984 536.925,473.6641 Q537.1594,473.9141 537.1594,474.5234 L537.1594,475.9766 Q537.1594,476.5859 536.925,476.8516 Q536.6906,477.1172 536.3156,477.1172 Q535.9719,477.1172 535.7688,476.9141 Q535.5656,476.7266 535.4563,476.2109 Q535.4094,475.8516 535.2219,475.6641 Q534.8938,475.2891 534.2844,475.0703 Q533.675,474.8516 533.05,474.8516 Q532.2844,474.8516 531.6438,475.1797 Q531.0188,475.5078 530.5188,476.2578 Q530.0344,477.0078 530.0344,478.0391 L530.0344,479.1328 Q530.0344,480.3672 530.925,481.1953 Q531.8156,482.0078 533.4094,482.0078 Q534.3469,482.0078 535.0031,481.7578 Q535.3938,481.6016 535.8156,481.1641 Q536.0813,480.8984 536.2219,480.8203 Q536.3781,480.7422 536.5813,480.7422 Q536.9094,480.7422 537.1594,481.0078 Q537.425,481.2578 537.425,481.6016 Q537.425,481.9453 537.0813,482.3516 Q536.5813,482.9297 535.7844,483.2578 Q534.7063,483.7109 533.4094,483.7109 Q531.8938,483.7109 530.6906,483.0859 Q529.7063,482.5859 529.0188,481.5234 Q528.3313,480.4453 528.3313,479.1641 L528.3313,478.0078 Q528.3313,476.6797 528.9406,475.5391 Q529.5656,474.3828 530.6594,473.7734 Q531.7531,473.1484 532.9875,473.1484 Q533.7219,473.1484 534.3625,473.3203 Q535.0188,473.4766 535.5656,473.8359 Z " fill="#000000"/><text fill="#000000" font-family="sans-serif" font-size="12" font-style="italic" lengthAdjust="spacing" textLength="80" x="545.2" y="474.0664">&#171;valueObject&#187;</text><text fill="#000000" font-family="sans-serif" font-size="14" lengthAdjust="spacing" textLength="55" x="557.7" y="491.2363">PatientId</text><line style="stroke:#181818;stroke-width:0.5;" x1="517" x2="627" y1="499.3125" y2="499.3125"/><text fill="#000000" font-family="sans-serif" font-size="14" lengthAdjust="spacing" textLength="100" x="522" y="517.8457">-idPatient: Long</text><line style="stroke:#181818;stroke-width:0.5;" x1="517" x2="627" y1="524.9219" y2="524.9219"/></g><!--class BillingAdministrativeStaffId--><g id="elem_BillingAdministrativeStaffId"><rect codeLine="29" fill="#FFF2B3" height="76.3125" id="BillingAdministrativeStaffId" rx="2.5" ry="2.5" style="stroke:#181818;stroke-width:0.5;" width="185" x="1186.5" y="689.6094"/><ellipse cx="1212.75" cy="710.9609" fill="#ADD1B2" rx="11" ry="11" style="stroke:#181818;stroke-width:1.0;"/><path d="M1215.5156,706.8359 Q1215.6719,706.6172 1215.8594,706.5078 Q1216.0469,706.3984 1216.2656,706.3984 Q1216.6406,706.3984 1216.875,706.6641 Q1217.1094,706.9141 1217.1094,707.5234 L1217.1094,708.9766 Q1217.1094,709.5859 1216.875,709.8516 Q1216.6406,710.1172 1216.2656,710.1172 Q1215.9219,710.1172 1215.7188,709.9141 Q1215.5156,709.7266 1215.4063,709.2109 Q1215.3594,708.8516 1215.1719,708.6641 Q1214.8438,708.2891 1214.2344,708.0703 Q1213.625,707.8516 1213,707.8516 Q1212.2344,707.8516 1211.5938,708.1797 Q1210.9688,708.5078 1210.4688,709.2578 Q1209.9844,710.0078 1209.9844,711.0391 L1209.9844,712.1328 Q1209.9844,713.3672 1210.875,714.1953 Q1211.7656,715.0078 1213.3594,715.0078 Q1214.2969,715.0078 1214.9531,714.7578 Q1215.3438,714.6016 1215.7656,714.1641 Q1216.0313,713.8984 1216.1719,713.8203 Q1216.3281,713.7422 1216.5313,713.7422 Q1216.8594,713.7422 1217.1094,714.0078 Q1217.375,714.2578 1217.375,714.6016 Q1217.375,714.9453 1217.0313,715.3516 Q1216.5313,715.9297 1215.7344,716.2578 Q1214.6563,716.7109 1213.3594,716.7109 Q1211.8438,716.7109 1210.6406,716.0859 Q1209.6563,715.5859 1208.9688,714.5234 Q1208.2813,713.4453 1208.2813,712.1641 L1208.2813,711.0078 Q1208.2813,709.6797 1208.8906,708.5391 Q1209.5156,707.3828 1210.6094,706.7734 Q1211.7031,706.1484 1212.9375,706.1484 Q1213.6719,706.1484 1214.3125,706.3203 Q1214.9688,706.4766 1215.5156,706.8359 Z " fill="#000000"/><text fill="#000000" font-family="sans-serif" font-size="12" font-style="italic" lengthAdjust="spacing" textLength="80" x="1253.25" y="707.0664">&#171;valueObject&#187;</text><text fill="#000000" font-family="sans-serif" font-size="14" lengthAdjust="spacing" textLength="128" x="1229.25" y="724.2363">AdministrativeStaffId</text><line style="stroke:#181818;stroke-width:0.5;" x1="1187.5" x2="1370.5" y1="732.3125" y2="732.3125"/><text fill="#000000" font-family="sans-serif" font-size="14" lengthAdjust="spacing" textLength="173" x="1192.5" y="750.8457">-idAdministrativeStaff: Long</text><line style="stroke:#181818;stroke-width:0.5;" x1="1187.5" x2="1370.5" y1="757.9219" y2="757.9219"/></g><!--class BillingDispensingId--><g id="elem_BillingDispensingId"><rect codeLine="33" fill="#FFF2B3" height="76.3125" id="BillingDispensingId" rx="2.5" ry="2.5" style="stroke:#181818;stroke-width:0.5;" width="138" x="663" y="456.6094"/><ellipse cx="689.25" cy="477.9609" fill="#ADD1B2" rx="11" ry="11" style="stroke:#181818;stroke-width:1.0;"/><path d="M692.0156,473.8359 Q692.1719,473.6172 692.3594,473.5078 Q692.5469,473.3984 692.7656,473.3984 Q693.1406,473.3984 693.375,473.6641 Q693.6094,473.9141 693.6094,474.5234 L693.6094,475.9766 Q693.6094,476.5859 693.375,476.8516 Q693.1406,477.1172 692.7656,477.1172 Q692.4219,477.1172 692.2188,476.9141 Q692.0156,476.7266 691.9063,476.2109 Q691.8594,475.8516 691.6719,475.6641 Q691.3438,475.2891 690.7344,475.0703 Q690.125,474.8516 689.5,474.8516 Q688.7344,474.8516 688.0938,475.1797 Q687.4688,475.5078 686.9688,476.2578 Q686.4844,477.0078 686.4844,478.0391 L686.4844,479.1328 Q686.4844,480.3672 687.375,481.1953 Q688.2656,482.0078 689.8594,482.0078 Q690.7969,482.0078 691.4531,481.7578 Q691.8438,481.6016 692.2656,481.1641 Q692.5313,480.8984 692.6719,480.8203 Q692.8281,480.7422 693.0313,480.7422 Q693.3594,480.7422 693.6094,481.0078 Q693.875,481.2578 693.875,481.6016 Q693.875,481.9453 693.5313,482.3516 Q693.0313,482.9297 692.2344,483.2578 Q691.1563,483.7109 689.8594,483.7109 Q688.3438,483.7109 687.1406,483.0859 Q686.1563,482.5859 685.4688,481.5234 Q684.7813,480.4453 684.7813,479.1641 L684.7813,478.0078 Q684.7813,476.6797 685.3906,475.5391 Q686.0156,474.3828 687.1094,473.7734 Q688.2031,473.1484 689.4375,473.1484 Q690.1719,473.1484 690.8125,473.3203 Q691.4688,473.4766 692.0156,473.8359 Z " fill="#000000"/><text fill="#000000" font-family="sans-serif" font-size="12" font-style="italic" lengthAdjust="spacing" textLength="80" x="706.25" y="474.0664">&#171;valueObject&#187;</text><text fill="#000000" font-family="sans-serif" font-size="14" lengthAdjust="spacing" textLength="81" x="705.75" y="491.2363">DispensingId</text><line style="stroke:#181818;stroke-width:0.5;" x1="664" x2="800" y1="499.3125" y2="499.3125"/><text fill="#000000" font-family="sans-serif" font-size="14" lengthAdjust="spacing" textLength="126" x="669" y="517.8457">-idDispensing: Long</text><line style="stroke:#181818;stroke-width:0.5;" x1="664" x2="800" y1="524.9219" y2="524.9219"/></g><!--class CashRegister--><g id="elem_CashRegister"><rect codeLine="37" fill="#F6CACA" height="164.3594" id="CashRegister" rx="2.5" ry="2.5" style="stroke:#181818;stroke-width:0.5;" width="189" x="1267.5" y="161.6094"/><ellipse cx="1314.75" cy="182.9609" fill="#ADD1B2" rx="11" ry="11" style="stroke:#181818;stroke-width:1.0;"/><path d="M1317.5156,178.8359 Q1317.6719,178.6172 1317.8594,178.5078 Q1318.0469,178.3984 1318.2656,178.3984 Q1318.6406,178.3984 1318.875,178.6641 Q1319.1094,178.9141 1319.1094,179.5234 L1319.1094,180.9766 Q1319.1094,181.5859 1318.875,181.8516 Q1318.6406,182.1172 1318.2656,182.1172 Q1317.9219,182.1172 1317.7188,181.9141 Q1317.5156,181.7266 1317.4063,181.2109 Q1317.3594,180.8516 1317.1719,180.6641 Q1316.8438,180.2891 1316.2344,180.0703 Q1315.625,179.8516 1315,179.8516 Q1314.2344,179.8516 1313.5938,180.1797 Q1312.9688,180.5078 1312.4688,181.2578 Q1311.9844,182.0078 1311.9844,183.0391 L1311.9844,184.1328 Q1311.9844,185.3672 1312.875,186.1953 Q1313.7656,187.0078 1315.3594,187.0078 Q1316.2969,187.0078 1316.9531,186.7578 Q1317.3438,186.6016 1317.7656,186.1641 Q1318.0313,185.8984 1318.1719,185.8203 Q1318.3281,185.7422 1318.5313,185.7422 Q1318.8594,185.7422 1319.1094,186.0078 Q1319.375,186.2578 1319.375,186.6016 Q1319.375,186.9453 1319.0313,187.3516 Q1318.5313,187.9297 1317.7344,188.2578 Q1316.6563,188.7109 1315.3594,188.7109 Q1313.8438,188.7109 1312.6406,188.0859 Q1311.6563,187.5859 1310.9688,186.5234 Q1310.2813,185.4453 1310.2813,184.1641 L1310.2813,183.0078 Q1310.2813,181.6797 1310.8906,180.5391 Q1311.5156,179.3828 1312.6094,178.7734 Q1313.7031,178.1484 1314.9375,178.1484 Q1315.6719,178.1484 1316.3125,178.3203 Q1316.9688,178.4766 1317.5156,178.8359 Z " fill="#000000"/><text fill="#000000" font-family="sans-serif" font-size="12" font-style="italic" lengthAdjust="spacing" textLength="70" x="1343.25" y="179.0664">&#171;aggregate&#187;</text><text fill="#000000" font-family="sans-serif" font-size="14" lengthAdjust="spacing" textLength="86" x="1335.25" y="196.2363">CashRegister</text><line style="stroke:#181818;stroke-width:0.5;" x1="1268.5" x2="1455.5" y1="204.3125" y2="204.3125"/><text fill="#000000" font-family="sans-serif" font-size="14" lengthAdjust="spacing" textLength="142" x="1273.5" y="222.8457">-idCashRegister: Long</text><text fill="#000000" font-family="sans-serif" font-size="14" lengthAdjust="spacing" textLength="135" x="1273.5" y="240.4551">-openedAt: DateTime</text><text fill="#000000" font-family="sans-serif" font-size="14" lengthAdjust="spacing" textLength="128" x="1273.5" y="258.0645">-closedAt: DateTime</text><text fill="#000000" font-family="sans-serif" font-size="14" lengthAdjust="spacing" textLength="177" x="1273.5" y="275.6738">-status: CashRegisterStatus</text><line style="stroke:#181818;stroke-width:0.5;" x1="1268.5" x2="1455.5" y1="282.75" y2="282.75"/><text fill="#000000" font-family="sans-serif" font-size="14" lengthAdjust="spacing" textLength="84" x="1273.5" y="301.2832">+open(): void</text><text fill="#000000" font-family="sans-serif" font-size="14" lengthAdjust="spacing" textLength="85" x="1273.5" y="318.8926">+close(): void</text></g><!--class CashMovement--><g id="elem_CashMovement"><rect codeLine="46" fill="#DDEBFF" height="164.3594" id="CashMovement" rx="2.5" ry="2.5" style="stroke:#181818;stroke-width:0.5;" width="182" x="1363" y="412.6094"/><ellipse cx="1401.4" cy="433.9609" fill="#ADD1B2" rx="11" ry="11" style="stroke:#181818;stroke-width:1.0;"/><path d="M1404.1656,429.8359 Q1404.3219,429.6172 1404.5094,429.5078 Q1404.6969,429.3984 1404.9156,429.3984 Q1405.2906,429.3984 1405.525,429.6641 Q1405.7594,429.9141 1405.7594,430.5234 L1405.7594,431.9766 Q1405.7594,432.5859 1405.525,432.8516 Q1405.2906,433.1172 1404.9156,433.1172 Q1404.5719,433.1172 1404.3688,432.9141 Q1404.1656,432.7266 1404.0563,432.2109 Q1404.0094,431.8516 1403.8219,431.6641 Q1403.4938,431.2891 1402.8844,431.0703 Q1402.275,430.8516 1401.65,430.8516 Q1400.8844,430.8516 1400.2438,431.1797 Q1399.6188,431.5078 1399.1188,432.2578 Q1398.6344,433.0078 1398.6344,434.0391 L1398.6344,435.1328 Q1398.6344,436.3672 1399.525,437.1953 Q1400.4156,438.0078 1402.0094,438.0078 Q1402.9469,438.0078 1403.6031,437.7578 Q1403.9938,437.6016 1404.4156,437.1641 Q1404.6813,436.8984 1404.8219,436.8203 Q1404.9781,436.7422 1405.1813,436.7422 Q1405.5094,436.7422 1405.7594,437.0078 Q1406.025,437.2578 1406.025,437.6016 Q1406.025,437.9453 1405.6813,438.3516 Q1405.1813,438.9297 1404.3844,439.2578 Q1403.3063,439.7109 1402.0094,439.7109 Q1400.4938,439.7109 1399.2906,439.0859 Q1398.3063,438.5859 1397.6188,437.5234 Q1396.9313,436.4453 1396.9313,435.1641 L1396.9313,434.0078 Q1396.9313,432.6797 1397.5406,431.5391 Q1398.1656,430.3828 1399.2594,429.7734 Q1400.3531,429.1484 1401.5875,429.1484 Q1402.3219,429.1484 1402.9625,429.3203 Q1403.6188,429.4766 1404.1656,429.8359 Z " fill="#000000"/><text fill="#000000" font-family="sans-serif" font-size="12" font-style="italic" lengthAdjust="spacing" textLength="43" x="1448.1" y="430.0664">&#171;entity&#187;</text><text fill="#000000" font-family="sans-serif" font-size="14" lengthAdjust="spacing" textLength="98" x="1420.6" y="447.2363">CashMovement</text><line style="stroke:#181818;stroke-width:0.5;" x1="1364" x2="1544" y1="455.3125" y2="455.3125"/><text fill="#000000" font-family="sans-serif" font-size="14" lengthAdjust="spacing" textLength="154" x="1369" y="473.8457">-idCashMovement: Long</text><text fill="#000000" font-family="sans-serif" font-size="14" lengthAdjust="spacing" textLength="170" x="1369" y="491.4551">-type: CashMovementType</text><text fill="#000000" font-family="sans-serif" font-size="14" lengthAdjust="spacing" textLength="110" x="1369" y="509.0645">-amount: Decimal</text><text fill="#000000" font-family="sans-serif" font-size="14" lengthAdjust="spacing" textLength="102" x="1369" y="526.6738">-date: DateTime</text><text fill="#000000" font-family="sans-serif" font-size="14" lengthAdjust="spacing" textLength="119" x="1369" y="544.2832">-description: String</text><line style="stroke:#181818;stroke-width:0.5;" x1="1364" x2="1544" y1="551.3594" y2="551.3594"/><text fill="#000000" font-family="sans-serif" font-size="14" lengthAdjust="spacing" textLength="93" x="1369" y="569.8926">+record(): void</text></g><!--class BillingOrder--><g id="elem_BillingOrder"><rect codeLine="55" fill="#F6CACA" height="199.5781" id="BillingOrder" rx="2.5" ry="2.5" style="stroke:#181818;stroke-width:0.5;" width="177" x="563.5" y="143.6094"/><ellipse cx="610.75" cy="164.9609" fill="#ADD1B2" rx="11" ry="11" style="stroke:#181818;stroke-width:1.0;"/><path d="M613.5156,160.8359 Q613.6719,160.6172 613.8594,160.5078 Q614.0469,160.3984 614.2656,160.3984 Q614.6406,160.3984 614.875,160.6641 Q615.1094,160.9141 615.1094,161.5234 L615.1094,162.9766 Q615.1094,163.5859 614.875,163.8516 Q614.6406,164.1172 614.2656,164.1172 Q613.9219,164.1172 613.7188,163.9141 Q613.5156,163.7266 613.4063,163.2109 Q613.3594,162.8516 613.1719,162.6641 Q612.8438,162.2891 612.2344,162.0703 Q611.625,161.8516 611,161.8516 Q610.2344,161.8516 609.5938,162.1797 Q608.9688,162.5078 608.4688,163.2578 Q607.9844,164.0078 607.9844,165.0391 L607.9844,166.1328 Q607.9844,167.3672 608.875,168.1953 Q609.7656,169.0078 611.3594,169.0078 Q612.2969,169.0078 612.9531,168.7578 Q613.3438,168.6016 613.7656,168.1641 Q614.0313,167.8984 614.1719,167.8203 Q614.3281,167.7422 614.5313,167.7422 Q614.8594,167.7422 615.1094,168.0078 Q615.375,168.2578 615.375,168.6016 Q615.375,168.9453 615.0313,169.3516 Q614.5313,169.9297 613.7344,170.2578 Q612.6563,170.7109 611.3594,170.7109 Q609.8438,170.7109 608.6406,170.0859 Q607.6563,169.5859 606.9688,168.5234 Q606.2813,167.4453 606.2813,166.1641 L606.2813,165.0078 Q606.2813,163.6797 606.8906,162.5391 Q607.5156,161.3828 608.6094,160.7734 Q609.7031,160.1484 610.9375,160.1484 Q611.6719,160.1484 612.3125,160.3203 Q612.9688,160.4766 613.5156,160.8359 Z " fill="#000000"/><text fill="#000000" font-family="sans-serif" font-size="12" font-style="italic" lengthAdjust="spacing" textLength="70" x="633.25" y="161.0664">&#171;aggregate&#187;</text><text fill="#000000" font-family="sans-serif" font-size="14" lengthAdjust="spacing" textLength="74" x="631.25" y="178.2363">BillingOrder</text><line style="stroke:#181818;stroke-width:0.5;" x1="564.5" x2="739.5" y1="186.3125" y2="186.3125"/><text fill="#000000" font-family="sans-serif" font-size="14" lengthAdjust="spacing" textLength="130" x="569.5" y="204.8457">-idBillingOrder: Long</text><text fill="#000000" font-family="sans-serif" font-size="14" lengthAdjust="spacing" textLength="100" x="569.5" y="222.4551">-concept: String</text><text fill="#000000" font-family="sans-serif" font-size="14" lengthAdjust="spacing" textLength="113" x="569.5" y="240.0645">-subtotal: Decimal</text><text fill="#000000" font-family="sans-serif" font-size="14" lengthAdjust="spacing" textLength="81" x="569.5" y="257.6738">-tax: Decimal</text><text fill="#000000" font-family="sans-serif" font-size="14" lengthAdjust="spacing" textLength="90" x="569.5" y="275.2832">-total: Decimal</text><text fill="#000000" font-family="sans-serif" font-size="14" lengthAdjust="spacing" textLength="165" x="569.5" y="292.8926">-status: BillingOrderStatus</text><line style="stroke:#181818;stroke-width:0.5;" x1="564.5" x2="739.5" y1="299.9688" y2="299.9688"/><text fill="#000000" font-family="sans-serif" font-size="14" lengthAdjust="spacing" textLength="140" x="569.5" y="318.502">+calculateTotal(): void</text><text fill="#000000" font-family="sans-serif" font-size="14" lengthAdjust="spacing" textLength="111" x="569.5" y="336.1113">+markPaid(): void</text></g><!--class Payment--><g id="elem_Payment"><rect codeLine="66" fill="#DDEBFF" height="146.75" id="Payment" rx="2.5" ry="2.5" style="stroke:#181818;stroke-width:0.5;" width="174" x="1005" y="421.1094"/><ellipse cx="1060.25" cy="442.4609" fill="#ADD1B2" rx="11" ry="11" style="stroke:#181818;stroke-width:1.0;"/><path d="M1063.0156,438.3359 Q1063.1719,438.1172 1063.3594,438.0078 Q1063.5469,437.8984 1063.7656,437.8984 Q1064.1406,437.8984 1064.375,438.1641 Q1064.6094,438.4141 1064.6094,439.0234 L1064.6094,440.4766 Q1064.6094,441.0859 1064.375,441.3516 Q1064.1406,441.6172 1063.7656,441.6172 Q1063.4219,441.6172 1063.2188,441.4141 Q1063.0156,441.2266 1062.9063,440.7109 Q1062.8594,440.3516 1062.6719,440.1641 Q1062.3438,439.7891 1061.7344,439.5703 Q1061.125,439.3516 1060.5,439.3516 Q1059.7344,439.3516 1059.0938,439.6797 Q1058.4688,440.0078 1057.9688,440.7578 Q1057.4844,441.5078 1057.4844,442.5391 L1057.4844,443.6328 Q1057.4844,444.8672 1058.375,445.6953 Q1059.2656,446.5078 1060.8594,446.5078 Q1061.7969,446.5078 1062.4531,446.2578 Q1062.8438,446.1016 1063.2656,445.6641 Q1063.5313,445.3984 1063.6719,445.3203 Q1063.8281,445.2422 1064.0313,445.2422 Q1064.3594,445.2422 1064.6094,445.5078 Q1064.875,445.7578 1064.875,446.1016 Q1064.875,446.4453 1064.5313,446.8516 Q1064.0313,447.4297 1063.2344,447.7578 Q1062.1563,448.2109 1060.8594,448.2109 Q1059.3438,448.2109 1058.1406,447.5859 Q1057.1563,447.0859 1056.4688,446.0234 Q1055.7813,444.9453 1055.7813,443.6641 L1055.7813,442.5078 Q1055.7813,441.1797 1056.3906,440.0391 Q1057.0156,438.8828 1058.1094,438.2734 Q1059.2031,437.6484 1060.4375,437.6484 Q1061.1719,437.6484 1061.8125,437.8203 Q1062.4688,437.9766 1063.0156,438.3359 Z " fill="#000000"/><text fill="#000000" font-family="sans-serif" font-size="12" font-style="italic" lengthAdjust="spacing" textLength="43" x="1086.75" y="438.5664">&#171;entity&#187;</text><text fill="#000000" font-family="sans-serif" font-size="14" lengthAdjust="spacing" textLength="55" x="1080.75" y="455.7363">Payment</text><line style="stroke:#181818;stroke-width:0.5;" x1="1006" x2="1178" y1="463.8125" y2="463.8125"/><text fill="#000000" font-family="sans-serif" font-size="14" lengthAdjust="spacing" textLength="111" x="1011" y="482.3457">-idPayment: Long</text><text fill="#000000" font-family="sans-serif" font-size="14" lengthAdjust="spacing" textLength="110" x="1011" y="499.9551">-amount: Decimal</text><text fill="#000000" font-family="sans-serif" font-size="14" lengthAdjust="spacing" textLength="162" x="1011" y="517.5645">-method: PaymentMethod</text><text fill="#000000" font-family="sans-serif" font-size="14" lengthAdjust="spacing" textLength="102" x="1011" y="535.1738">-date: DateTime</text><line style="stroke:#181818;stroke-width:0.5;" x1="1006" x2="1178" y1="542.25" y2="542.25"/><text fill="#000000" font-family="sans-serif" font-size="14" lengthAdjust="spacing" textLength="93" x="1011" y="560.7832">+record(): void</text></g><!--class ElectronicInvoice--><g id="elem_ElectronicInvoice"><rect codeLine="74" fill="#F6CACA" height="181.9688" id="ElectronicInvoice" rx="2.5" ry="2.5" style="stroke:#181818;stroke-width:0.5;" width="177" x="122.5" y="403.6094"/><ellipse cx="155.05" cy="424.9609" fill="#ADD1B2" rx="11" ry="11" style="stroke:#181818;stroke-width:1.0;"/><path d="M157.8156,420.8359 Q157.9719,420.6172 158.1594,420.5078 Q158.3469,420.3984 158.5656,420.3984 Q158.9406,420.3984 159.175,420.6641 Q159.4094,420.9141 159.4094,421.5234 L159.4094,422.9766 Q159.4094,423.5859 159.175,423.8516 Q158.9406,424.1172 158.5656,424.1172 Q158.2219,424.1172 158.0188,423.9141 Q157.8156,423.7266 157.7063,423.2109 Q157.6594,422.8516 157.4719,422.6641 Q157.1438,422.2891 156.5344,422.0703 Q155.925,421.8516 155.3,421.8516 Q154.5344,421.8516 153.8938,422.1797 Q153.2688,422.5078 152.7688,423.2578 Q152.2844,424.0078 152.2844,425.0391 L152.2844,426.1328 Q152.2844,427.3672 153.175,428.1953 Q154.0656,429.0078 155.6594,429.0078 Q156.5969,429.0078 157.2531,428.7578 Q157.6438,428.6016 158.0656,428.1641 Q158.3313,427.8984 158.4719,427.8203 Q158.6281,427.7422 158.8313,427.7422 Q159.1594,427.7422 159.4094,428.0078 Q159.675,428.2578 159.675,428.6016 Q159.675,428.9453 159.3313,429.3516 Q158.8313,429.9297 158.0344,430.2578 Q156.9563,430.7109 155.6594,430.7109 Q154.1438,430.7109 152.9406,430.0859 Q151.9563,429.5859 151.2688,428.5234 Q150.5813,427.4453 150.5813,426.1641 L150.5813,425.0078 Q150.5813,423.6797 151.1906,422.5391 Q151.8156,421.3828 152.9094,420.7734 Q154.0031,420.1484 155.2375,420.1484 Q155.9719,420.1484 156.6125,420.3203 Q157.2688,420.4766 157.8156,420.8359 Z " fill="#000000"/><text fill="#000000" font-family="sans-serif" font-size="12" font-style="italic" lengthAdjust="spacing" textLength="70" x="190.95" y="421.0664">&#171;aggregate&#187;</text><text fill="#000000" font-family="sans-serif" font-size="14" lengthAdjust="spacing" textLength="106" x="172.95" y="438.2363">ElectronicInvoice</text><line style="stroke:#181818;stroke-width:0.5;" x1="123.5" x2="298.5" y1="446.3125" y2="446.3125"/><text fill="#000000" font-family="sans-serif" font-size="14" lengthAdjust="spacing" textLength="162" x="128.5" y="464.8457">-idElectronicInvoice: Long</text><text fill="#000000" font-family="sans-serif" font-size="14" lengthAdjust="spacing" textLength="88" x="128.5" y="482.4551">-series: String</text><text fill="#000000" font-family="sans-serif" font-size="14" lengthAdjust="spacing" textLength="161" x="128.5" y="500.0645">-sequenceNumber: String</text><text fill="#000000" font-family="sans-serif" font-size="14" lengthAdjust="spacing" textLength="120" x="128.5" y="517.6738">-type: ReceiptType</text><text fill="#000000" font-family="sans-serif" font-size="14" lengthAdjust="spacing" textLength="165" x="128.5" y="535.2832">-sunatStatus: SunatStatus</text><line style="stroke:#181818;stroke-width:0.5;" x1="123.5" x2="298.5" y1="542.3594" y2="542.3594"/><text fill="#000000" font-family="sans-serif" font-size="14" lengthAdjust="spacing" textLength="85" x="128.5" y="560.8926">+issue(): void</text><text fill="#000000" font-family="sans-serif" font-size="14" lengthAdjust="spacing" textLength="78" x="128.5" y="578.502">+void(): void</text></g><!--class InvoiceLineItem--><g id="elem_InvoiceLineItem"><rect codeLine="84" fill="#DDEBFF" height="164.3594" id="InvoiceLineItem" rx="2.5" ry="2.5" style="stroke:#181818;stroke-width:0.5;" width="165" x="986.5" y="645.6094"/><ellipse cx="1017.7" cy="666.9609" fill="#ADD1B2" rx="11" ry="11" style="stroke:#181818;stroke-width:1.0;"/><path d="M1020.4656,662.8359 Q1020.6219,662.6172 1020.8094,662.5078 Q1020.9969,662.3984 1021.2156,662.3984 Q1021.5906,662.3984 1021.825,662.6641 Q1022.0594,662.9141 1022.0594,663.5234 L1022.0594,664.9766 Q1022.0594,665.5859 1021.825,665.8516 Q1021.5906,666.1172 1021.2156,666.1172 Q1020.8719,666.1172 1020.6688,665.9141 Q1020.4656,665.7266 1020.3563,665.2109 Q1020.3094,664.8516 1020.1219,664.6641 Q1019.7938,664.2891 1019.1844,664.0703 Q1018.575,663.8516 1017.95,663.8516 Q1017.1844,663.8516 1016.5438,664.1797 Q1015.9188,664.5078 1015.4188,665.2578 Q1014.9344,666.0078 1014.9344,667.0391 L1014.9344,668.1328 Q1014.9344,669.3672 1015.825,670.1953 Q1016.7156,671.0078 1018.3094,671.0078 Q1019.2469,671.0078 1019.9031,670.7578 Q1020.2938,670.6016 1020.7156,670.1641 Q1020.9813,669.8984 1021.1219,669.8203 Q1021.2781,669.7422 1021.4813,669.7422 Q1021.8094,669.7422 1022.0594,670.0078 Q1022.325,670.2578 1022.325,670.6016 Q1022.325,670.9453 1021.9813,671.3516 Q1021.4813,671.9297 1020.6844,672.2578 Q1019.6063,672.7109 1018.3094,672.7109 Q1016.7938,672.7109 1015.5906,672.0859 Q1014.6063,671.5859 1013.9188,670.5234 Q1013.2313,669.4453 1013.2313,668.1641 L1013.2313,667.0078 Q1013.2313,665.6797 1013.8406,664.5391 Q1014.4656,663.3828 1015.5594,662.7734 Q1016.6531,662.1484 1017.8875,662.1484 Q1018.6219,662.1484 1019.2625,662.3203 Q1019.9188,662.4766 1020.4656,662.8359 Z " fill="#000000"/><text fill="#000000" font-family="sans-serif" font-size="12" font-style="italic" lengthAdjust="spacing" textLength="43" x="1062.3" y="663.0664">&#171;entity&#187;</text><text fill="#000000" font-family="sans-serif" font-size="14" lengthAdjust="spacing" textLength="97" x="1035.3" y="680.2363">InvoiceLineItem</text><line style="stroke:#181818;stroke-width:0.5;" x1="987.5" x2="1150.5" y1="688.3125" y2="688.3125"/><text fill="#000000" font-family="sans-serif" font-size="14" lengthAdjust="spacing" textLength="153" x="992.5" y="706.8457">-idInvoiceLineItem: Long</text><text fill="#000000" font-family="sans-serif" font-size="14" lengthAdjust="spacing" textLength="119" x="992.5" y="724.4551">-description: String</text><text fill="#000000" font-family="sans-serif" font-size="14" lengthAdjust="spacing" textLength="107" x="992.5" y="742.0645">-quantity: Integer</text><text fill="#000000" font-family="sans-serif" font-size="14" lengthAdjust="spacing" textLength="118" x="992.5" y="759.6738">-unitPrice: Decimal</text><text fill="#000000" font-family="sans-serif" font-size="14" lengthAdjust="spacing" textLength="90" x="992.5" y="777.2832">-total: Decimal</text><line style="stroke:#181818;stroke-width:0.5;" x1="987.5" x2="1150.5" y1="784.3594" y2="784.3594"/><text fill="#000000" font-family="sans-serif" font-size="14" lengthAdjust="spacing" textLength="140" x="992.5" y="802.8926">+calculateTotal(): void</text></g><!--class BillingCustomer--><g id="elem_BillingCustomer"><rect codeLine="93" fill="#FFF2B3" height="164.3594" id="BillingCustomer" rx="2.5" ry="2.5" style="stroke:#181818;stroke-width:0.5;" width="260" x="47" y="645.6094"/><ellipse cx="123.75" cy="666.9609" fill="#ADD1B2" rx="11" ry="11" style="stroke:#181818;stroke-width:1.0;"/><path d="M126.5156,662.8359 Q126.6719,662.6172 126.8594,662.5078 Q127.0469,662.3984 127.2656,662.3984 Q127.6406,662.3984 127.875,662.6641 Q128.1094,662.9141 128.1094,663.5234 L128.1094,664.9766 Q128.1094,665.5859 127.875,665.8516 Q127.6406,666.1172 127.2656,666.1172 Q126.9219,666.1172 126.7188,665.9141 Q126.5156,665.7266 126.4063,665.2109 Q126.3594,664.8516 126.1719,664.6641 Q125.8438,664.2891 125.2344,664.0703 Q124.625,663.8516 124,663.8516 Q123.2344,663.8516 122.5938,664.1797 Q121.9688,664.5078 121.4688,665.2578 Q120.9844,666.0078 120.9844,667.0391 L120.9844,668.1328 Q120.9844,669.3672 121.875,670.1953 Q122.7656,671.0078 124.3594,671.0078 Q125.2969,671.0078 125.9531,670.7578 Q126.3438,670.6016 126.7656,670.1641 Q127.0313,669.8984 127.1719,669.8203 Q127.3281,669.7422 127.5313,669.7422 Q127.8594,669.7422 128.1094,670.0078 Q128.375,670.2578 128.375,670.6016 Q128.375,670.9453 128.0313,671.3516 Q127.5313,671.9297 126.7344,672.2578 Q125.6563,672.7109 124.3594,672.7109 Q122.8438,672.7109 121.6406,672.0859 Q120.6563,671.5859 119.9688,670.5234 Q119.2813,669.4453 119.2813,668.1641 L119.2813,667.0078 Q119.2813,665.6797 119.8906,664.5391 Q120.5156,663.3828 121.6094,662.7734 Q122.7031,662.1484 123.9375,662.1484 Q124.6719,662.1484 125.3125,662.3203 Q125.9688,662.4766 126.5156,662.8359 Z " fill="#000000"/><text fill="#000000" font-family="sans-serif" font-size="12" font-style="italic" lengthAdjust="spacing" textLength="80" x="153.25" y="663.0664">&#171;valueObject&#187;</text><text fill="#000000" font-family="sans-serif" font-size="14" lengthAdjust="spacing" textLength="98" x="144.25" y="680.2363">BillingCustomer</text><line style="stroke:#181818;stroke-width:0.5;" x1="48" x2="306" y1="688.3125" y2="688.3125"/><text fill="#000000" font-family="sans-serif" font-size="14" lengthAdjust="spacing" textLength="154" x="53" y="706.8457">-idBillingCustomer: Long</text><text fill="#000000" font-family="sans-serif" font-size="14" lengthAdjust="spacing" textLength="248" x="53" y="724.4551">-documentType: IdentityDocumentType</text><text fill="#000000" font-family="sans-serif" font-size="14" lengthAdjust="spacing" textLength="161" x="53" y="742.0645">-documentNumber: String</text><text fill="#000000" font-family="sans-serif" font-size="14" lengthAdjust="spacing" textLength="122" x="53" y="759.6738">-billingName: String</text><text fill="#000000" font-family="sans-serif" font-size="14" lengthAdjust="spacing" textLength="120" x="53" y="777.2832">-taxAddress: String</text><line style="stroke:#181818;stroke-width:0.5;" x1="48" x2="306" y1="784.3594" y2="784.3594"/><text fill="#000000" font-family="sans-serif" font-size="14" lengthAdjust="spacing" textLength="139" x="53" y="802.8926">+updateDetails(): void</text></g><!--class SunatGateway--><g id="elem_SunatGateway"><rect codeLine="102" fill="#DDEBFF" height="111.5313" id="SunatGateway" rx="2.5" ry="2.5" style="stroke:#181818;stroke-width:0.5;" width="307" x="342.5" y="671.6094"/><ellipse cx="445.75" cy="692.9609" fill="#ADD1B2" rx="11" ry="11" style="stroke:#181818;stroke-width:1.0;"/><path d="M448.5156,688.8359 Q448.6719,688.6172 448.8594,688.5078 Q449.0469,688.3984 449.2656,688.3984 Q449.6406,688.3984 449.875,688.6641 Q450.1094,688.9141 450.1094,689.5234 L450.1094,690.9766 Q450.1094,691.5859 449.875,691.8516 Q449.6406,692.1172 449.2656,692.1172 Q448.9219,692.1172 448.7188,691.9141 Q448.5156,691.7266 448.4063,691.2109 Q448.3594,690.8516 448.1719,690.6641 Q447.8438,690.2891 447.2344,690.0703 Q446.625,689.8516 446,689.8516 Q445.2344,689.8516 444.5938,690.1797 Q443.9688,690.5078 443.4688,691.2578 Q442.9844,692.0078 442.9844,693.0391 L442.9844,694.1328 Q442.9844,695.3672 443.875,696.1953 Q444.7656,697.0078 446.3594,697.0078 Q447.2969,697.0078 447.9531,696.7578 Q448.3438,696.6016 448.7656,696.1641 Q449.0313,695.8984 449.1719,695.8203 Q449.3281,695.7422 449.5313,695.7422 Q449.8594,695.7422 450.1094,696.0078 Q450.375,696.2578 450.375,696.6016 Q450.375,696.9453 450.0313,697.3516 Q449.5313,697.9297 448.7344,698.2578 Q447.6563,698.7109 446.3594,698.7109 Q444.8438,698.7109 443.6406,698.0859 Q442.6563,697.5859 441.9688,696.5234 Q441.2813,695.4453 441.2813,694.1641 L441.2813,693.0078 Q441.2813,691.6797 441.8906,690.5391 Q442.5156,689.3828 443.6094,688.7734 Q444.7031,688.1484 445.9375,688.1484 Q446.6719,688.1484 447.3125,688.3203 Q447.9688,688.4766 448.5156,688.8359 Z " fill="#000000"/><text fill="#000000" font-family="sans-serif" font-size="12" font-style="italic" lengthAdjust="spacing" textLength="43" x="490.75" y="689.0664">&#171;entity&#187;</text><text fill="#000000" font-family="sans-serif" font-size="14" lengthAdjust="spacing" textLength="92" x="466.25" y="706.2363">SunatGateway</text><line style="stroke:#181818;stroke-width:0.5;" x1="343.5" x2="648.5" y1="714.3125" y2="714.3125"/><text fill="#000000" font-family="sans-serif" font-size="14" lengthAdjust="spacing" textLength="148" x="348.5" y="732.8457">-idSunatGateway: Long</text><line style="stroke:#181818;stroke-width:0.5;" x1="343.5" x2="648.5" y1="739.9219" y2="739.9219"/><text fill="#000000" font-family="sans-serif" font-size="14" lengthAdjust="spacing" textLength="295" x="348.5" y="758.4551">+submitInvoice(invoice: ElectronicInvoice): void</text><text fill="#000000" font-family="sans-serif" font-size="14" lengthAdjust="spacing" textLength="287" x="348.5" y="776.0645">+checkStatus(invoice: ElectronicInvoice): void</text></g><!--class CashRegisterStatus--><g id="elem_CashRegisterStatus"><rect codeLine="108" fill="#F1F1F1" height="83.2188" id="CashRegisterStatus" rx="2.5" ry="2.5" style="stroke:#181818;stroke-width:0.5;" width="158" x="1580" y="453.1094"/><ellipse cx="1595" cy="469.1094" fill="#EB937F" rx="11" ry="11" style="stroke:#181818;stroke-width:1.0;"/><path d="M1593.8594,469.9063 L1593.8594,472.4063 L1598.1875,472.4063 L1598.1875,471.4844 Q1598.1875,470.875 1598.4219,470.6094 Q1598.6719,470.3438 1599.0469,470.3438 Q1599.4219,470.3438 1599.6563,470.6094 Q1599.8906,470.875 1599.8906,471.4844 L1599.8906,474.1094 L1591.8906,474.1094 Q1591.2656,474.1094 1591,473.875 Q1590.75,473.6406 1590.75,473.25 Q1590.75,472.875 1591.0156,472.6406 Q1591.2813,472.4063 1591.8906,472.4063 L1592.1563,472.4063 L1592.1563,465.75 L1591.8906,465.75 Q1591.2656,465.75 1591,465.5156 Q1590.75,465.2813 1590.75,464.8906 Q1590.75,464.5156 1591,464.2813 Q1591.2656,464.0469 1591.8906,464.0469 L1599.5156,464.0469 L1599.5156,466.6406 Q1599.5156,467.25 1599.2813,467.5156 Q1599.0625,467.7656 1598.6719,467.7656 Q1598.2969,467.7656 1598.0625,467.5156 Q1597.8281,467.25 1597.8281,466.6406 L1597.8281,465.75 L1593.8594,465.75 L1593.8594,468.2031 L1595.3438,468.2031 Q1595.3438,467.5469 1595.4688,467.3594 Q1595.7344,466.9531 1596.2031,466.9531 Q1596.5781,466.9531 1596.8125,467.2188 Q1597.0469,467.4688 1597.0469,468.0781 L1597.0469,470.0469 Q1597.0469,470.5938 1596.9219,470.7813 Q1596.6563,471.1719 1596.2031,471.1719 Q1595.7344,471.1719 1595.4688,470.7656 Q1595.3438,470.5781 1595.3438,469.9063 L1593.8594,469.9063 Z " fill="#000000"/><text fill="#000000" font-family="sans-serif" font-size="14" lengthAdjust="spacing" textLength="126" x="1609" y="474.8379">CashRegisterStatus</text><line style="stroke:#181818;stroke-width:0.5;" x1="1581" x2="1737" y1="485.1094" y2="485.1094"/><text fill="#000000" font-family="sans-serif" font-size="14" lengthAdjust="spacing" textLength="38" x="1586" y="503.6426">OPEN</text><text fill="#000000" font-family="sans-serif" font-size="14" lengthAdjust="spacing" textLength="57" x="1586" y="521.252">CLOSED</text><line style="stroke:#181818;stroke-width:0.5;" x1="1581" x2="1737" y1="528.3281" y2="528.3281"/></g><!--class CashMovementType--><g id="elem_CashMovementType"><rect codeLine="113" fill="#F1F1F1" height="83.2188" id="CashMovementType" rx="2.5" ry="2.5" style="stroke:#181818;stroke-width:0.5;" width="162" x="1576" y="686.1094"/><ellipse cx="1591" cy="702.1094" fill="#EB937F" rx="11" ry="11" style="stroke:#181818;stroke-width:1.0;"/><path d="M1589.8594,702.9063 L1589.8594,705.4063 L1594.1875,705.4063 L1594.1875,704.4844 Q1594.1875,703.875 1594.4219,703.6094 Q1594.6719,703.3438 1595.0469,703.3438 Q1595.4219,703.3438 1595.6563,703.6094 Q1595.8906,703.875 1595.8906,704.4844 L1595.8906,707.1094 L1587.8906,707.1094 Q1587.2656,707.1094 1587,706.875 Q1586.75,706.6406 1586.75,706.25 Q1586.75,705.875 1587.0156,705.6406 Q1587.2813,705.4063 1587.8906,705.4063 L1588.1563,705.4063 L1588.1563,698.75 L1587.8906,698.75 Q1587.2656,698.75 1587,698.5156 Q1586.75,698.2813 1586.75,697.8906 Q1586.75,697.5156 1587,697.2813 Q1587.2656,697.0469 1587.8906,697.0469 L1595.5156,697.0469 L1595.5156,699.6406 Q1595.5156,700.25 1595.2813,700.5156 Q1595.0625,700.7656 1594.6719,700.7656 Q1594.2969,700.7656 1594.0625,700.5156 Q1593.8281,700.25 1593.8281,699.6406 L1593.8281,698.75 L1589.8594,698.75 L1589.8594,701.2031 L1591.3438,701.2031 Q1591.3438,700.5469 1591.4688,700.3594 Q1591.7344,699.9531 1592.2031,699.9531 Q1592.5781,699.9531 1592.8125,700.2188 Q1593.0469,700.4688 1593.0469,701.0781 L1593.0469,703.0469 Q1593.0469,703.5938 1592.9219,703.7813 Q1592.6563,704.1719 1592.2031,704.1719 Q1591.7344,704.1719 1591.4688,703.7656 Q1591.3438,703.5781 1591.3438,702.9063 L1589.8594,702.9063 Z " fill="#000000"/><text fill="#000000" font-family="sans-serif" font-size="14" lengthAdjust="spacing" textLength="130" x="1605" y="707.8379">CashMovementType</text><line style="stroke:#181818;stroke-width:0.5;" x1="1577" x2="1737" y1="718.1094" y2="718.1094"/><text fill="#000000" font-family="sans-serif" font-size="14" lengthAdjust="spacing" textLength="53" x="1582" y="736.6426">INCOME</text><text fill="#000000" font-family="sans-serif" font-size="14" lengthAdjust="spacing" textLength="62" x="1582" y="754.252">EXPENSE</text><line style="stroke:#181818;stroke-width:0.5;" x1="1577" x2="1737" y1="761.3281" y2="761.3281"/></g><!--class BillingOrderStatus--><g id="elem_BillingOrderStatus"><rect codeLine="118" fill="#F1F1F1" height="100.8281" id="BillingOrderStatus" rx="2.5" ry="2.5" style="stroke:#181818;stroke-width:0.5;" width="146" x="335" y="444.1094"/><ellipse cx="350" cy="460.1094" fill="#EB937F" rx="11" ry="11" style="stroke:#181818;stroke-width:1.0;"/><path d="M348.8594,460.9063 L348.8594,463.4063 L353.1875,463.4063 L353.1875,462.4844 Q353.1875,461.875 353.4219,461.6094 Q353.6719,461.3438 354.0469,461.3438 Q354.4219,461.3438 354.6563,461.6094 Q354.8906,461.875 354.8906,462.4844 L354.8906,465.1094 L346.8906,465.1094 Q346.2656,465.1094 346,464.875 Q345.75,464.6406 345.75,464.25 Q345.75,463.875 346.0156,463.6406 Q346.2813,463.4063 346.8906,463.4063 L347.1563,463.4063 L347.1563,456.75 L346.8906,456.75 Q346.2656,456.75 346,456.5156 Q345.75,456.2813 345.75,455.8906 Q345.75,455.5156 346,455.2813 Q346.2656,455.0469 346.8906,455.0469 L354.5156,455.0469 L354.5156,457.6406 Q354.5156,458.25 354.2813,458.5156 Q354.0625,458.7656 353.6719,458.7656 Q353.2969,458.7656 353.0625,458.5156 Q352.8281,458.25 352.8281,457.6406 L352.8281,456.75 L348.8594,456.75 L348.8594,459.2031 L350.3438,459.2031 Q350.3438,458.5469 350.4688,458.3594 Q350.7344,457.9531 351.2031,457.9531 Q351.5781,457.9531 351.8125,458.2188 Q352.0469,458.4688 352.0469,459.0781 L352.0469,461.0469 Q352.0469,461.5938 351.9219,461.7813 Q351.6563,462.1719 351.2031,462.1719 Q350.7344,462.1719 350.4688,461.7656 Q350.3438,461.5781 350.3438,460.9063 L348.8594,460.9063 Z " fill="#000000"/><text fill="#000000" font-family="sans-serif" font-size="14" lengthAdjust="spacing" textLength="114" x="364" y="465.8379">BillingOrderStatus</text><line style="stroke:#181818;stroke-width:0.5;" x1="336" x2="480" y1="476.1094" y2="476.1094"/><text fill="#000000" font-family="sans-serif" font-size="14" lengthAdjust="spacing" textLength="60" x="341" y="494.6426">PENDING</text><text fill="#000000" font-family="sans-serif" font-size="14" lengthAdjust="spacing" textLength="31" x="341" y="512.252">PAID</text><text fill="#000000" font-family="sans-serif" font-size="14" lengthAdjust="spacing" textLength="52" x="341" y="529.8613">VOIDED</text><line style="stroke:#181818;stroke-width:0.5;" x1="336" x2="480" y1="536.9375" y2="536.9375"/></g><!--class PaymentMethod--><g id="elem_PaymentMethod"><rect codeLine="124" fill="#F1F1F1" height="136.0469" id="PaymentMethod" rx="2.5" ry="2.5" style="stroke:#181818;stroke-width:0.5;" width="134" x="1407" y="659.6094"/><ellipse cx="1422" cy="675.6094" fill="#EB937F" rx="11" ry="11" style="stroke:#181818;stroke-width:1.0;"/><path d="M1420.8594,676.4063 L1420.8594,678.9063 L1425.1875,678.9063 L1425.1875,677.9844 Q1425.1875,677.375 1425.4219,677.1094 Q1425.6719,676.8438 1426.0469,676.8438 Q1426.4219,676.8438 1426.6563,677.1094 Q1426.8906,677.375 1426.8906,677.9844 L1426.8906,680.6094 L1418.8906,680.6094 Q1418.2656,680.6094 1418,680.375 Q1417.75,680.1406 1417.75,679.75 Q1417.75,679.375 1418.0156,679.1406 Q1418.2813,678.9063 1418.8906,678.9063 L1419.1563,678.9063 L1419.1563,672.25 L1418.8906,672.25 Q1418.2656,672.25 1418,672.0156 Q1417.75,671.7813 1417.75,671.3906 Q1417.75,671.0156 1418,670.7813 Q1418.2656,670.5469 1418.8906,670.5469 L1426.5156,670.5469 L1426.5156,673.1406 Q1426.5156,673.75 1426.2813,674.0156 Q1426.0625,674.2656 1425.6719,674.2656 Q1425.2969,674.2656 1425.0625,674.0156 Q1424.8281,673.75 1424.8281,673.1406 L1424.8281,672.25 L1420.8594,672.25 L1420.8594,674.7031 L1422.3438,674.7031 Q1422.3438,674.0469 1422.4688,673.8594 Q1422.7344,673.4531 1423.2031,673.4531 Q1423.5781,673.4531 1423.8125,673.7188 Q1424.0469,673.9688 1424.0469,674.5781 L1424.0469,676.5469 Q1424.0469,677.0938 1423.9219,677.2813 Q1423.6563,677.6719 1423.2031,677.6719 Q1422.7344,677.6719 1422.4688,677.2656 Q1422.3438,677.0781 1422.3438,676.4063 L1420.8594,676.4063 Z " fill="#000000"/><text fill="#000000" font-family="sans-serif" font-size="14" lengthAdjust="spacing" textLength="102" x="1436" y="681.3379">PaymentMethod</text><line style="stroke:#181818;stroke-width:0.5;" x1="1408" x2="1540" y1="691.6094" y2="691.6094"/><text fill="#000000" font-family="sans-serif" font-size="14" lengthAdjust="spacing" textLength="37" x="1413" y="710.1426">CASH</text><text fill="#000000" font-family="sans-serif" font-size="14" lengthAdjust="spacing" textLength="39" x="1413" y="727.752">CARD</text><text fill="#000000" font-family="sans-serif" font-size="14" lengthAdjust="spacing" textLength="118" x="1413" y="745.3613">BANK_TRANSFER</text><text fill="#000000" font-family="sans-serif" font-size="14" lengthAdjust="spacing" textLength="36" x="1413" y="762.9707">YAPE</text><text fill="#000000" font-family="sans-serif" font-size="14" lengthAdjust="spacing" textLength="29" x="1413" y="780.5801">PLIN</text><line style="stroke:#181818;stroke-width:0.5;" x1="1408" x2="1540" y1="787.6563" y2="787.6563"/></g><!--class ReceiptType--><g id="elem_ReceiptType"><rect codeLine="132" fill="#F1F1F1" height="83.2188" id="ReceiptType" rx="2.5" ry="2.5" style="stroke:#181818;stroke-width:0.5;" width="123" x="684.5" y="686.1094"/><ellipse cx="704.45" cy="702.1094" fill="#EB937F" rx="11" ry="11" style="stroke:#181818;stroke-width:1.0;"/><path d="M703.3094,702.9063 L703.3094,705.4063 L707.6375,705.4063 L707.6375,704.4844 Q707.6375,703.875 707.8719,703.6094 Q708.1219,703.3438 708.4969,703.3438 Q708.8719,703.3438 709.1063,703.6094 Q709.3406,703.875 709.3406,704.4844 L709.3406,707.1094 L701.3406,707.1094 Q700.7156,707.1094 700.45,706.875 Q700.2,706.6406 700.2,706.25 Q700.2,705.875 700.4656,705.6406 Q700.7313,705.4063 701.3406,705.4063 L701.6063,705.4063 L701.6063,698.75 L701.3406,698.75 Q700.7156,698.75 700.45,698.5156 Q700.2,698.2813 700.2,697.8906 Q700.2,697.5156 700.45,697.2813 Q700.7156,697.0469 701.3406,697.0469 L708.9656,697.0469 L708.9656,699.6406 Q708.9656,700.25 708.7313,700.5156 Q708.5125,700.7656 708.1219,700.7656 Q707.7469,700.7656 707.5125,700.5156 Q707.2781,700.25 707.2781,699.6406 L707.2781,698.75 L703.3094,698.75 L703.3094,701.2031 L704.7938,701.2031 Q704.7938,700.5469 704.9188,700.3594 Q705.1844,699.9531 705.6531,699.9531 Q706.0281,699.9531 706.2625,700.2188 Q706.4969,700.4688 706.4969,701.0781 L706.4969,703.0469 Q706.4969,703.5938 706.3719,703.7813 Q706.1063,704.1719 705.6531,704.1719 Q705.1844,704.1719 704.9188,703.7656 Q704.7938,703.5781 704.7938,702.9063 L703.3094,702.9063 Z " fill="#000000"/><text fill="#000000" font-family="sans-serif" font-size="14" lengthAdjust="spacing" textLength="80" x="719.55" y="707.8379">ReceiptType</text><line style="stroke:#181818;stroke-width:0.5;" x1="685.5" x2="806.5" y1="718.1094" y2="718.1094"/><text fill="#000000" font-family="sans-serif" font-size="14" lengthAdjust="spacing" textLength="111" x="690.5" y="736.6426">SALES_RECEIPT</text><text fill="#000000" font-family="sans-serif" font-size="14" lengthAdjust="spacing" textLength="54" x="690.5" y="754.252">INVOICE</text><line style="stroke:#181818;stroke-width:0.5;" x1="685.5" x2="806.5" y1="761.3281" y2="761.3281"/></g><!--class SunatStatus--><g id="elem_SunatStatus"><rect codeLine="137" fill="#F1F1F1" height="118.4375" id="SunatStatus" rx="2.5" ry="2.5" style="stroke:#181818;stroke-width:0.5;" width="109" x="842.5" y="668.6094"/><ellipse cx="857.5" cy="684.6094" fill="#EB937F" rx="11" ry="11" style="stroke:#181818;stroke-width:1.0;"/><path d="M856.3594,685.4063 L856.3594,687.9063 L860.6875,687.9063 L860.6875,686.9844 Q860.6875,686.375 860.9219,686.1094 Q861.1719,685.8438 861.5469,685.8438 Q861.9219,685.8438 862.1563,686.1094 Q862.3906,686.375 862.3906,686.9844 L862.3906,689.6094 L854.3906,689.6094 Q853.7656,689.6094 853.5,689.375 Q853.25,689.1406 853.25,688.75 Q853.25,688.375 853.5156,688.1406 Q853.7813,687.9063 854.3906,687.9063 L854.6563,687.9063 L854.6563,681.25 L854.3906,681.25 Q853.7656,681.25 853.5,681.0156 Q853.25,680.7813 853.25,680.3906 Q853.25,680.0156 853.5,679.7813 Q853.7656,679.5469 854.3906,679.5469 L862.0156,679.5469 L862.0156,682.1406 Q862.0156,682.75 861.7813,683.0156 Q861.5625,683.2656 861.1719,683.2656 Q860.7969,683.2656 860.5625,683.0156 Q860.3281,682.75 860.3281,682.1406 L860.3281,681.25 L856.3594,681.25 L856.3594,683.7031 L857.8438,683.7031 Q857.8438,683.0469 857.9688,682.8594 Q858.2344,682.4531 858.7031,682.4531 Q859.0781,682.4531 859.3125,682.7188 Q859.5469,682.9688 859.5469,683.5781 L859.5469,685.5469 Q859.5469,686.0938 859.4219,686.2813 Q859.1563,686.6719 858.7031,686.6719 Q858.2344,686.6719 857.9688,686.2656 Q857.8438,686.0781 857.8438,685.4063 L856.3594,685.4063 Z " fill="#000000"/><text fill="#000000" font-family="sans-serif" font-size="14" lengthAdjust="spacing" textLength="77" x="871.5" y="690.3379">SunatStatus</text><line style="stroke:#181818;stroke-width:0.5;" x1="843.5" x2="950.5" y1="700.6094" y2="700.6094"/><text fill="#000000" font-family="sans-serif" font-size="14" lengthAdjust="spacing" textLength="60" x="848.5" y="719.1426">PENDING</text><text fill="#000000" font-family="sans-serif" font-size="14" lengthAdjust="spacing" textLength="75" x="848.5" y="736.752">ACCEPTED</text><text fill="#000000" font-family="sans-serif" font-size="14" lengthAdjust="spacing" textLength="72" x="848.5" y="754.3613">REJECTED</text><text fill="#000000" font-family="sans-serif" font-size="14" lengthAdjust="spacing" textLength="52" x="848.5" y="771.9707">VOIDED</text><line style="stroke:#181818;stroke-width:0.5;" x1="843.5" x2="950.5" y1="779.0469" y2="779.0469"/></g><!--class IdentityDocumentType--><g id="elem_IdentityDocumentType"><rect codeLine="144" fill="#F1F1F1" height="100.8281" id="IdentityDocumentType" rx="2.5" ry="2.5" style="stroke:#181818;stroke-width:0.5;" width="173" x="90.5" y="869.6094"/><ellipse cx="105.5" cy="885.6094" fill="#EB937F" rx="11" ry="11" style="stroke:#181818;stroke-width:1.0;"/><path d="M104.3594,886.4063 L104.3594,888.9063 L108.6875,888.9063 L108.6875,887.9844 Q108.6875,887.375 108.9219,887.1094 Q109.1719,886.8438 109.5469,886.8438 Q109.9219,886.8438 110.1563,887.1094 Q110.3906,887.375 110.3906,887.9844 L110.3906,890.6094 L102.3906,890.6094 Q101.7656,890.6094 101.5,890.375 Q101.25,890.1406 101.25,889.75 Q101.25,889.375 101.5156,889.1406 Q101.7813,888.9063 102.3906,888.9063 L102.6563,888.9063 L102.6563,882.25 L102.3906,882.25 Q101.7656,882.25 101.5,882.0156 Q101.25,881.7813 101.25,881.3906 Q101.25,881.0156 101.5,880.7813 Q101.7656,880.5469 102.3906,880.5469 L110.0156,880.5469 L110.0156,883.1406 Q110.0156,883.75 109.7813,884.0156 Q109.5625,884.2656 109.1719,884.2656 Q108.7969,884.2656 108.5625,884.0156 Q108.3281,883.75 108.3281,883.1406 L108.3281,882.25 L104.3594,882.25 L104.3594,884.7031 L105.8438,884.7031 Q105.8438,884.0469 105.9688,883.8594 Q106.2344,883.4531 106.7031,883.4531 Q107.0781,883.4531 107.3125,883.7188 Q107.5469,883.9688 107.5469,884.5781 L107.5469,886.5469 Q107.5469,887.0938 107.4219,887.2813 Q107.1563,887.6719 106.7031,887.6719 Q106.2344,887.6719 105.9688,887.2656 Q105.8438,887.0781 105.8438,886.4063 L104.3594,886.4063 Z " fill="#000000"/><text fill="#000000" font-family="sans-serif" font-size="14" lengthAdjust="spacing" textLength="141" x="119.5" y="891.3379">IdentityDocumentType</text><line style="stroke:#181818;stroke-width:0.5;" x1="91.5" x2="262.5" y1="901.6094" y2="901.6094"/><text fill="#000000" font-family="sans-serif" font-size="14" lengthAdjust="spacing" textLength="88" x="96.5" y="920.1426">NATIONAL_ID</text><text fill="#000000" font-family="sans-serif" font-size="14" lengthAdjust="spacing" textLength="47" x="96.5" y="937.752">TAX_ID</text><text fill="#000000" font-family="sans-serif" font-size="14" lengthAdjust="spacing" textLength="102" x="96.5" y="955.3613">FOREIGNER_ID</text><line style="stroke:#181818;stroke-width:0.5;" x1="91.5" x2="262.5" y1="962.4375" y2="962.4375"/></g><!--link CashRegister to BillingBranchId--><g id="link_CashRegister_BillingBranchId"><path codeLine="150" d="M1307.5,325.7994 C1307.5,369.8294 1307.5,415.9794 1307.5,450.5394 " fill="none" id="CashRegister-to-BillingBranchId" style="stroke:#181818;stroke-width:1.0;"/><polygon fill="#181818" points="1307.5,456.5394,1311.5,447.5394,1307.5,451.5394,1303.5,447.5394,1307.5,456.5394" style="stroke:#181818;stroke-width:1.0;"/><text fill="#000000" font-family="sans-serif" font-size="13" lengthAdjust="spacing" textLength="39" x="1267.5" y="387.6645">branch</text><text fill="#000000" font-family="sans-serif" font-size="13" lengthAdjust="spacing" textLength="7" x="1295.3344" y="347.3267">1</text><text fill="#000000" font-family="sans-serif" font-size="13" lengthAdjust="spacing" textLength="7" x="1306.3781" y="445.8318">1</text></g><!--reverse link CashRegister to CashMovement--><g id="link_CashRegister_CashMovement"><path codeLine="151" d="M1409.75,337.7994 C1409.75,365.5294 1409.75,384.4894 1409.75,412.2394 " fill="none" id="CashRegister-backto-CashMovement" style="stroke:#181818;stroke-width:1.0;"/><polygon fill="#181818" points="1409.75,325.7994,1405.75,331.7994,1409.75,337.7994,1413.75,331.7994,1409.75,325.7994" style="stroke:#181818;stroke-width:1.0;"/><text fill="#000000" font-family="sans-serif" font-size="13" lengthAdjust="spacing" textLength="7" x="1406.691" y="347.3267">1</text><text fill="#000000" font-family="sans-serif" font-size="13" lengthAdjust="spacing" textLength="20" x="1384.9184" y="401.6856">0..*</text></g><!--link CashRegister to Payment--><g id="link_CashRegister_Payment"><path codeLine="152" d="M1287.5,325.8794 C1287.5,379.5194 1287.5,439.6094 1287.5,439.6094 C1287.5,439.6094 1237.31,439.6094 1185.17,439.6094 " fill="none" id="CashRegister-to-Payment" style="stroke:#181818;stroke-width:1.0;"/><polygon fill="#181818" points="1179.17,439.6094,1188.17,443.6094,1184.17,439.6094,1188.17,435.6094,1179.17,439.6094" style="stroke:#181818;stroke-width:1.0;"/><text fill="#000000" font-family="sans-serif" font-size="13" lengthAdjust="spacing" textLength="7" x="1273.5531" y="347.4138">1</text><text fill="#000000" font-family="sans-serif" font-size="13" lengthAdjust="spacing" textLength="20" x="1186.9132" y="432.1081">0..*</text></g><!--link BillingOrder to BillingEncounterId--><g id="link_BillingOrder_BillingEncounterId"><path codeLine="153" d="M740.85,334.6094 C813.05,334.6094 903,334.6094 903,334.6094 C903,334.6094 903,402.9494 903,450.2894 " fill="none" id="BillingOrder-to-BillingEncounterId" style="stroke:#181818;stroke-width:1.0;"/><polygon fill="#181818" points="903,456.2894,907,447.2894,903,451.2894,899,447.2894,903,456.2894" style="stroke:#181818;stroke-width:1.0;"/><text fill="#000000" font-family="sans-serif" font-size="13" lengthAdjust="spacing" textLength="57" x="824.76" y="331.1045">encounter</text><text fill="#000000" font-family="sans-serif" font-size="13" lengthAdjust="spacing" textLength="7" x="748.4977" y="339.01">1</text><text fill="#000000" font-family="sans-serif" font-size="13" lengthAdjust="spacing" textLength="7" x="895.3984" y="445.8266">1</text></g><!--link BillingOrder to BillingPatientId--><g id="link_BillingOrder_BillingPatientId"><path codeLine="154" d="M611.88,343.8894 C611.88,383.4894 611.88,420.5894 611.88,450.5094 " fill="none" id="BillingOrder-to-BillingPatientId" style="stroke:#181818;stroke-width:1.0;"/><polygon fill="#181818" points="611.88,456.5094,615.88,447.5094,611.88,451.5094,607.88,447.5094,611.88,456.5094" style="stroke:#181818;stroke-width:1.0;"/><text fill="#000000" font-family="sans-serif" font-size="13" lengthAdjust="spacing" textLength="39" x="571.88" y="396.6945">patient</text><text fill="#000000" font-family="sans-serif" font-size="13" lengthAdjust="spacing" textLength="7" x="601.9493" y="364.6855">1</text><text fill="#000000" font-family="sans-serif" font-size="13" lengthAdjust="spacing" textLength="7" x="611.3602" y="445.7964">1</text></g><!--link BillingOrder to BillingDispensingId--><g id="link_BillingOrder_BillingDispensingId"><path codeLine="155" d="M688.83,343.8894 C688.83,383.4894 688.83,420.5894 688.83,450.5094 " fill="none" id="BillingOrder-to-BillingDispensingId" style="stroke:#181818;stroke-width:1.0;"/><polygon fill="#181818" points="688.83,456.5094,692.83,447.5094,688.83,451.5094,684.83,447.5094,688.83,456.5094" style="stroke:#181818;stroke-width:1.0;"/><text fill="#000000" font-family="sans-serif" font-size="13" lengthAdjust="spacing" textLength="62" x="625.83" y="396.6945">dispensing</text><text fill="#000000" font-family="sans-serif" font-size="13" lengthAdjust="spacing" textLength="7" x="684.0694" y="364.6855">1</text><text fill="#000000" font-family="sans-serif" font-size="13" lengthAdjust="spacing" textLength="22" x="657.181" y="445.7964">0..1</text></g><!--reverse link BillingOrder to Payment--><g id="link_BillingOrder_Payment"><path codeLine="156" d="M714.67,355.6394 C714.67,400.9794 714.67,432.6094 714.67,432.6094 C714.67,432.6094 893.52,432.6094 1004.96,432.6094 " fill="none" id="BillingOrder-backto-Payment" style="stroke:#181818;stroke-width:1.0;"/><polygon fill="#181818" points="714.67,343.6394,710.67,349.6394,714.67,355.6394,718.67,349.6394,714.67,343.6394" style="stroke:#181818;stroke-width:1.0;"/><text fill="#000000" font-family="sans-serif" font-size="13" lengthAdjust="spacing" textLength="7" x="711.8304" y="364.7575">1</text><text fill="#000000" font-family="sans-serif" font-size="13" lengthAdjust="spacing" textLength="20" x="976.9239" y="424.3325">0..*</text></g><!--link BillingOrder to ElectronicInvoice--><g id="link_BillingOrder_ElectronicInvoice"><path codeLine="157" d="M579.62,343.8694 C579.62,378.4194 579.62,408.6094 579.62,408.6094 C579.62,408.6094 414.84,408.6094 305.76,408.6094 " fill="none" id="BillingOrder-to-ElectronicInvoice" style="stroke:#181818;stroke-width:1.0;"/><polygon fill="#181818" points="299.76,408.6094,308.76,412.6094,304.76,408.6094,308.76,404.6094,299.76,408.6094" style="stroke:#181818;stroke-width:1.0;"/><text fill="#000000" font-family="sans-serif" font-size="13" lengthAdjust="spacing" textLength="7" x="567.5218" y="364.6642">1</text><text fill="#000000" font-family="sans-serif" font-size="13" lengthAdjust="spacing" textLength="22" x="307.3979" y="398.9223">0..1</text></g><!--link Payment to BillingAdministrativeStaffId--><g id="link_Payment_BillingAdministrativeStaffId"><path codeLine="158" d="M1179.06,550.6094 C1191.68,550.6094 1200.5,550.6094 1200.5,550.6094 C1200.5,550.6094 1200.5,631.1494 1200.5,683.1994 " fill="none" id="Payment-to-BillingAdministrativeStaffId" style="stroke:#181818;stroke-width:1.0;"/><polygon fill="#181818" points="1200.5,689.1994,1204.5,680.1994,1200.5,684.1994,1196.5,680.1994,1200.5,689.1994" style="stroke:#181818;stroke-width:1.0;"/><text fill="#000000" font-family="sans-serif" font-size="13" lengthAdjust="spacing" textLength="66" x="1133.5" y="605.6845">recordedBy</text><text fill="#000000" font-family="sans-serif" font-size="13" lengthAdjust="spacing" textLength="7" x="1187.1255" y="552.4063">1</text><text fill="#000000" font-family="sans-serif" font-size="13" lengthAdjust="spacing" textLength="7" x="1179.4063" y="678.7211">1</text></g><!--reverse link ElectronicInvoice to InvoiceLineItem--><g id="link_ElectronicInvoice_InvoiceLineItem"><path codeLine="159" d="M311.88,578.6094 C517.33,578.6094 995.75,578.6094 995.75,578.6094 C995.75,578.6094 995.75,610.8094 995.75,645.2694 " fill="none" id="ElectronicInvoice-backto-InvoiceLineItem" style="stroke:#181818;stroke-width:1.0;"/><polygon fill="#181818" points="299.88,578.6094,305.88,582.6094,311.88,578.6094,305.88,574.6094,299.88,578.6094" style="stroke:#181818;stroke-width:1.0;"/><text fill="#000000" font-family="sans-serif" font-size="13" lengthAdjust="spacing" textLength="7" x="307.5302" y="582.4141">1</text><text fill="#000000" font-family="sans-serif" font-size="13" lengthAdjust="spacing" textLength="20" x="968.3355" y="634.7182">1..*</text></g><!--reverse link ElectronicInvoice to BillingCustomer--><g id="link_ElectronicInvoice_BillingCustomer"><path codeLine="160" d="M211,597.6894 C211,617.3494 211,626.0194 211,645.3194 " fill="none" id="ElectronicInvoice-backto-BillingCustomer" style="stroke:#181818;stroke-width:1.0;"/><polygon fill="#181818" points="211,585.6894,207,591.6894,211,597.6894,215,591.6894,211,585.6894" style="stroke:#181818;stroke-width:1.0;"/><text fill="#000000" font-family="sans-serif" font-size="13" lengthAdjust="spacing" textLength="7" x="203.7211" y="607.0952">1</text><text fill="#000000" font-family="sans-serif" font-size="13" lengthAdjust="spacing" textLength="7" x="206.7164" y="634.7727">1</text></g><!--link ElectronicInvoice to SunatGateway--><g id="link_ElectronicInvoice_SunatGateway"><path codeLine="161" d="M299.64,584.6094 C353.41,584.6094 411.75,584.6094 411.75,584.6094 C411.75,584.6094 411.75,625.4394 411.75,665.4994 " fill="none" id="ElectronicInvoice-to-SunatGateway" style="stroke:#181818;stroke-width:1.0;"/><polygon fill="#181818" points="411.75,671.4994,415.75,662.4994,411.75,666.4994,407.75,662.4994,411.75,671.4994" style="stroke:#181818;stroke-width:1.0;"/></g><!--link CashRegister to CashRegisterStatus--><g id="link_CashRegister_CashRegisterStatus"><path codeLine="162" d="M1456.79,243.6094 C1543.71,243.6094 1659,243.6094 1659,243.6094 C1659,243.6094 1659,375.5094 1659,446.8794 " fill="none" id="CashRegister-to-CashRegisterStatus" style="stroke:#181818;stroke-width:1.0;"/><polygon fill="#181818" points="1659,452.8794,1663,443.8794,1659,447.8794,1655,443.8794,1659,452.8794" style="stroke:#181818;stroke-width:1.0;"/><text fill="#000000" font-family="sans-serif" font-size="13" lengthAdjust="spacing" textLength="36" x="1622" y="243.6345">status</text></g><!--link CashMovement to CashMovementType--><g id="link_CashMovement_CashMovementType"><path codeLine="163" d="M1545.11,556.6094 C1599.86,556.6094 1659,556.6094 1659,556.6094 C1659,556.6094 1659,629.1494 1659,679.7794 " fill="none" id="CashMovement-to-CashMovementType" style="stroke:#181818;stroke-width:1.0;"/><polygon fill="#181818" points="1659,685.7794,1663,676.7794,1659,680.7794,1655,676.7794,1659,685.7794" style="stroke:#181818;stroke-width:1.0;"/><text fill="#000000" font-family="sans-serif" font-size="13" lengthAdjust="spacing" textLength="25" x="1633" y="560.7445">type</text></g><!--link BillingOrder to BillingOrderStatus--><g id="link_BillingOrder_BillingOrderStatus"><path codeLine="164" d="M595.75,343.7794 C595.75,396.6094 595.75,450.6094 595.75,450.6094 C595.75,450.6094 539.84,450.6094 487.13,450.6094 " fill="none" id="BillingOrder-to-BillingOrderStatus" style="stroke:#181818;stroke-width:1.0;"/><polygon fill="#181818" points="481.13,450.6094,490.13,454.6094,486.13,450.6094,490.13,446.6094,481.13,450.6094" style="stroke:#181818;stroke-width:1.0;"/><text fill="#000000" font-family="sans-serif" font-size="13" lengthAdjust="spacing" textLength="36" x="554.86" y="447.1045">status</text></g><!--link Payment to PaymentMethod--><g id="link_Payment_PaymentMethod"><path codeLine="165" d="M1165.25,568.3394 C1165.25,618.0494 1165.25,674.6094 1165.25,674.6094 C1165.25,674.6094 1309.78,674.6094 1400.63,674.6094 " fill="none" id="Payment-to-PaymentMethod" style="stroke:#181818;stroke-width:1.0;"/><polygon fill="#181818" points="1406.63,674.6094,1397.63,670.6094,1401.63,674.6094,1397.63,678.6094,1406.63,674.6094" style="stroke:#181818;stroke-width:1.0;"/><text fill="#000000" font-family="sans-serif" font-size="13" lengthAdjust="spacing" textLength="43" x="1233.8" y="671.1045">method</text></g><!--link ElectronicInvoice to ReceiptType--><g id="link_ElectronicInvoice_ReceiptType"><path codeLine="166" d="M299.7,582.6094 C450.99,582.6094 742.75,582.6094 742.75,582.6094 C742.75,582.6094 742.75,637.2094 742.75,680.0594 " fill="none" id="ElectronicInvoice-to-ReceiptType" style="stroke:#181818;stroke-width:1.0;"/><polygon fill="#181818" points="742.75,686.0594,746.75,677.0594,742.75,681.0594,738.75,677.0594,742.75,686.0594" style="stroke:#181818;stroke-width:1.0;"/><text fill="#000000" font-family="sans-serif" font-size="13" lengthAdjust="spacing" textLength="25" x="546.95" y="579.1045">type</text></g><!--link ElectronicInvoice to SunatStatus--><g id="link_ElectronicInvoice_SunatStatus"><path codeLine="167" d="M299.63,580.6094 C485.08,580.6094 897,580.6094 897,580.6094 C897,580.6094 897,621.4494 897,662.2394 " fill="none" id="ElectronicInvoice-to-SunatStatus" style="stroke:#181818;stroke-width:1.0;"/><polygon fill="#181818" points="897,668.2394,901,659.2394,897,663.2394,893,659.2394,897,668.2394" style="stroke:#181818;stroke-width:1.0;"/><text fill="#000000" font-family="sans-serif" font-size="13" lengthAdjust="spacing" textLength="70" x="643.13" y="577.1045">sunatStatus</text></g><!--link BillingCustomer to IdentityDocumentType--><g id="link_BillingCustomer_IdentityDocumentType"><path codeLine="168" d="M177,809.8094 C177,830.0394 177,845.1194 177,863.3694 " fill="none" id="BillingCustomer-to-IdentityDocumentType" style="stroke:#181818;stroke-width:1.0;"/><polygon fill="#181818" points="177,869.3694,181,860.3694,177,864.3694,173,860.3694,177,869.3694" style="stroke:#181818;stroke-width:1.0;"/><text fill="#000000" font-family="sans-serif" font-size="13" lengthAdjust="spacing" textLength="85" x="91" y="836.0845">documentType</text></g><rect fill="#DDDDDD" height="66.8281" id="_legend" rx="7.5" ry="7.5" style="stroke:#000000;stroke-width:1.0;" width="99" x="1659" y="1027.6094"/><rect fill="#F6CACA" height="17.6094" style="stroke:none;stroke-width:1.0;" width="89" x="1664" y="1034.6094"/><text fill="#000000" font-family="sans-serif" font-size="14" lengthAdjust="spacing" textLength="66" x="1668" y="1049.1426">Aggregate</text><rect fill="#DDEBFF" height="17.6094" style="stroke:none;stroke-width:1.0;" width="89" x="1664" y="1052.2188"/><text fill="#000000" font-family="sans-serif" font-size="14" lengthAdjust="spacing" textLength="35" x="1668" y="1066.752">Entity</text><rect fill="#FFF2B3" height="17.6094" style="stroke:none;stroke-width:1.0;" width="89" x="1664" y="1069.8281"/><text fill="#000000" font-family="sans-serif" font-size="14" lengthAdjust="spacing" textLength="81" x="1668" y="1084.3613">Value Object</text><line style="stroke:#000000;stroke-width:1.0;" x1="1664" x2="1753" y1="1034.6094" y2="1034.6094"/><line style="stroke:#000000;stroke-width:1.0;" x1="1664" x2="1753" y1="1052.2188" y2="1052.2188"/><line style="stroke:#000000;stroke-width:1.0;" x1="1664" x2="1753" y1="1069.8281" y2="1069.8281"/><line style="stroke:#000000;stroke-width:1.0;" x1="1664" x2="1753" y1="1087.4375" y2="1087.4375"/><line style="stroke:#000000;stroke-width:1.0;" x1="1664" x2="1664" y1="1034.6094" y2="1087.4375"/><line style="stroke:#000000;stroke-width:1.0;" x1="1753" x2="1753" y1="1034.6094" y2="1087.4375"/><!--SRC=[ZLVRRjiu47tNLn3kIzh0GTe2VH020x8aPxNhsePb15rWWO2M69aRNLoHIkDk- -yx9AMObEaeJwQ6CsVEN3YaEUKvGNUKuvnYD4P-ZXb30SLPZGluZZdE2FeCgodDSrfcoAzAJfuvI2x2d2IyhagQeAXygcWYzd6P8X-p7LgJZ39EwlUEmwizuXNQLfnN1Kff3NQqAXs7FT9oZuMhH3ZsEA_fjk4aIgeofZy9kjPKs0wdrG_Xum7dZ6WxG8pmmvwWgkQxIjlOu-GH0eZv0Q8KNd6PvSHnSf8Hu5dJRCUTNpVlPbzyp_ScoCkoccIO4_HBY8CWdCvc4nIMdFA3airciq_JpnDqX_E6eENsNq257O1Je8xJEaMZBrVzhFrJlZLf8_HkTZtx50ReFmUfxA3HjCPbielI4SAiW-vawERcIL1IZ2OJr3ALzWYDQQeqNJIloWnalvqZS5WcLGCCQnDR4m_3loXRFQmmfwJa9lwBS1YzLRLYUsb1IqXR3JfFK6pyy63wiIeC-xIOMVq7bEr9oS2HwLQN3tixQjkSYExecWEmSDUe4absxn59rtt1WfqAy4dgGH83iDpGWYXvabVC9cSSyuQvXkzOokJ-fS2xUEyYwE9KIIII9ke5yBLw8WLK4G8WyaW9zkgGcUmxHPszEE2k0RC1YTh3XMWzu4yIMk1S2LC8fXzIIbXIqxsOFYuCjvgsw9Sm7AewjLDloxciq-7SwxewUnXe2Tbpm-cODLjUmUZj4UVukI-nQ7NLqJtgrKbmdZIvY5uOctKgSFsumlHCl2jy6AnIgwE7Q2r2GM0Yfsw7-LL-dgtFgsKuJaurECbGBKuCTBQCr9ImNZt8zuP0dHPDiHNbq_TK-wr9Gg1zZft7cXBpk2r5VFnGuL366cAcNgpiyRKavt2PHPmKhwQ_fwi7Tgx5nzyRBF5SyCJXhggLk2afNzKoEqCzTxwdJa-Btp2uxEM16RgNJ0CZbYffkfCEj5ELa42JcdgsmcqL_08Nf5TH_EobQKsOsGMNpLvqPa0ufZcpnoWBVGjQF_3XrJhfYbfWbt3o2yhRAbxGhZrFEjQShZkIFAhsUfE994pAfh1Cy9RYSXKkvCAVB-CmE37IHsrh4YtyvTTGBiDlO1w7XjNfE6hjG3M85hTgxKM1NDmjew3drfWKhQtlnN-qYxKod7gBl-utQsyHpyArbFpjhHIhrJnQ68ZQeMtnOcyUnlVhq0-ZrQQD2gZuPYZQSRR4uFb-kDg4Yiuw_3FqkmzBKBRMRJ4NtYPQBhpvVPkIZVUjMywMwp2wNOHh9P1mnaDWz764nkE9_Es_1rsqbKkRpOVn68skhwu-Z8mgduLNgcrbGCku4Iqaz8UZ2nbelzvWUNmIkl1wb-kpLi3gQ6Wyjbpuaz5zsior-8U2KavEJXdeTzUa9GhxWzD5wdeZwVG0zgVtsGkrZv9QRyWFc8pwazUgBuZgGwbVSh5lcHOkOjsrPZpaEdLZJhY8gybiP5IeMeQ3XjmbL6YQKy15HVTmi8Ua7_4Nzwz4VtHkNDdzkqleMuykD9X-2Vrs_WS0]--></g></svg>