<?xml version="1.0" encoding="us-ascii" standalone="no"?><svg xmlns="http://www.w3.org/2000/svg" xmlns:xlink="http://www.w3.org/1999/xlink" contentStyleType="text/css" height="1089px" preserveAspectRatio="none" style="width:2091px;height:1089px;background:#FFFFFF;" version="1.1" viewBox="0 0 2091 1089" width="2091px" zoomAndPan="magnify"><defs/><g><text fill="#000000" font-family="sans-serif" font-size="14" font-weight="bold" lengthAdjust="spacing" textLength="557" x="760" y="24.5332">Vitalia - Class Diagram - Stage 3 - Identity and Clinic Context - (SaaS and Access)</text><!--cluster 1--><g id="cluster_1"><rect fill="none" height="940" rx="2.5" ry="2.5" style="stroke:#000000;stroke-width:1.5;" width="2078" x="7" y="45.6094"/><text fill="#000000" font-family="sans-serif" font-size="14" font-weight="bold" lengthAdjust="spacing" textLength="8" x="1042" y="62.1426">1</text></g><!--cluster  Identity and Clinic Context\n(SaaS and Access)--><g id="cluster_ Identity and Clinic Context\n(SaaS and Access)"><rect fill="#F7F7F7" height="872" rx="2.5" ry="2.5" style="stroke:#000000;stroke-width:1.5;" width="2030" x="31" y="89.6094"/><text fill="#000000" font-family="sans-serif" font-size="14" font-weight="bold" lengthAdjust="spacing" textLength="184" x="956" y="106.1426">Identity and Clinic Context</text><text fill="#000000" font-family="sans-serif" font-size="14" font-weight="bold" lengthAdjust="spacing" textLength="128" x="982" y="123.752">(SaaS and Access)</text></g><!--class Clinic--><g id="elem_Clinic"><rect codeLine="17" fill="#F6CACA" height="181.9688" id="Clinic" rx="2.5" ry="2.5" style="stroke:#181818;stroke-width:0.5;" width="137" x="1759.5" y="152.6094"/><ellipse cx="1792.05" cy="173.9609" fill="#ADD1B2" rx="11" ry="11" style="stroke:#181818;stroke-width:1.0;"/><path d="M1794.8156,169.8359 Q1794.9719,169.6172 1795.1594,169.5078 Q1795.3469,169.3984 1795.5656,169.3984 Q1795.9406,169.3984 1796.175,169.6641 Q1796.4094,169.9141 1796.4094,170.5234 L1796.4094,171.9766 Q1796.4094,172.5859 1796.175,172.8516 Q1795.9406,173.1172 1795.5656,173.1172 Q1795.2219,173.1172 1795.0188,172.9141 Q1794.8156,172.7266 1794.7063,172.2109 Q1794.6594,171.8516 1794.4719,171.6641 Q1794.1438,171.2891 1793.5344,171.0703 Q1792.925,170.8516 1792.3,170.8516 Q1791.5344,170.8516 1790.8938,171.1797 Q1790.2688,171.5078 1789.7688,172.2578 Q1789.2844,173.0078 1789.2844,174.0391 L1789.2844,175.1328 Q1789.2844,176.3672 1790.175,177.1953 Q1791.0656,178.0078 1792.6594,178.0078 Q1793.5969,178.0078 1794.2531,177.7578 Q1794.6438,177.6016 1795.0656,177.1641 Q1795.3313,176.8984 1795.4719,176.8203 Q1795.6281,176.7422 1795.8313,176.7422 Q1796.1594,176.7422 1796.4094,177.0078 Q1796.675,177.2578 1796.675,177.6016 Q1796.675,177.9453 1796.3313,178.3516 Q1795.8313,178.9297 1795.0344,179.2578 Q1793.9563,179.7109 1792.6594,179.7109 Q1791.1438,179.7109 1789.9406,179.0859 Q1788.9563,178.5859 1788.2688,177.5234 Q1787.5813,176.4453 1787.5813,175.1641 L1787.5813,174.0078 Q1787.5813,172.6797 1788.1906,171.5391 Q1788.8156,170.3828 1789.9094,169.7734 Q1791.0031,169.1484 1792.2375,169.1484 Q1792.9719,169.1484 1793.6125,169.3203 Q1794.2688,169.4766 1794.8156,169.8359 Z " fill="#000000"/><text fill="#000000" font-family="sans-serif" font-size="12" font-style="italic" lengthAdjust="spacing" textLength="70" x="1807.95" y="170.0664">&#171;aggregate&#187;</text><text fill="#000000" font-family="sans-serif" font-size="14" lengthAdjust="spacing" textLength="34" x="1825.95" y="187.2363">Clinic</text><line style="stroke:#181818;stroke-width:0.5;" x1="1760.5" x2="1895.5" y1="195.3125" y2="195.3125"/><text fill="#000000" font-family="sans-serif" font-size="14" lengthAdjust="spacing" textLength="90" x="1765.5" y="213.8457">-idClinic: Long</text><text fill="#000000" font-family="sans-serif" font-size="14" lengthAdjust="spacing" textLength="79" x="1765.5" y="231.4551">-taxId: String</text><text fill="#000000" font-family="sans-serif" font-size="14" lengthAdjust="spacing" textLength="116" x="1765.5" y="249.0645">-legalName: String</text><text fill="#000000" font-family="sans-serif" font-size="14" lengthAdjust="spacing" textLength="119" x="1765.5" y="266.6738">-tradeName: String</text><text fill="#000000" font-family="sans-serif" font-size="14" lengthAdjust="spacing" textLength="125" x="1765.5" y="284.2832">-status: ClinicStatus</text><line style="stroke:#181818;stroke-width:0.5;" x1="1760.5" x2="1895.5" y1="291.3594" y2="291.3594"/><text fill="#000000" font-family="sans-serif" font-size="14" lengthAdjust="spacing" textLength="101" x="1765.5" y="309.8926">+activate(): void</text><text fill="#000000" font-family="sans-serif" font-size="14" lengthAdjust="spacing" textLength="106" x="1765.5" y="327.502">+suspend(): void</text></g><!--class Branch--><g id="elem_Branch"><rect codeLine="27" fill="#DDEBFF" height="146.75" id="Branch" rx="2.5" ry="2.5" style="stroke:#181818;stroke-width:0.5;" width="151" x="1752.5" y="412.1094"/><ellipse cx="1801.25" cy="433.4609" fill="#ADD1B2" rx="11" ry="11" style="stroke:#181818;stroke-width:1.0;"/><path d="M1804.0156,429.3359 Q1804.1719,429.1172 1804.3594,429.0078 Q1804.5469,428.8984 1804.7656,428.8984 Q1805.1406,428.8984 1805.375,429.1641 Q1805.6094,429.4141 1805.6094,430.0234 L1805.6094,431.4766 Q1805.6094,432.0859 1805.375,432.3516 Q1805.1406,432.6172 1804.7656,432.6172 Q1804.4219,432.6172 1804.2188,432.4141 Q1804.0156,432.2266 1803.9063,431.7109 Q1803.8594,431.3516 1803.6719,431.1641 Q1803.3438,430.7891 1802.7344,430.5703 Q1802.125,430.3516 1801.5,430.3516 Q1800.7344,430.3516 1800.0938,430.6797 Q1799.4688,431.0078 1798.9688,431.7578 Q1798.4844,432.5078 1798.4844,433.5391 L1798.4844,434.6328 Q1798.4844,435.8672 1799.375,436.6953 Q1800.2656,437.5078 1801.8594,437.5078 Q1802.7969,437.5078 1803.4531,437.2578 Q1803.8438,437.1016 1804.2656,436.6641 Q1804.5313,436.3984 1804.6719,436.3203 Q1804.8281,436.2422 1805.0313,436.2422 Q1805.3594,436.2422 1805.6094,436.5078 Q1805.875,436.7578 1805.875,437.1016 Q1805.875,437.4453 1805.5313,437.8516 Q1805.0313,438.4297 1804.2344,438.7578 Q1803.1563,439.2109 1801.8594,439.2109 Q1800.3438,439.2109 1799.1406,438.5859 Q1798.1563,438.0859 1797.4688,437.0234 Q1796.7813,435.9453 1796.7813,434.6641 L1796.7813,433.5078 Q1796.7813,432.1797 1797.3906,431.0391 Q1798.0156,429.8828 1799.1094,429.2734 Q1800.2031,428.6484 1801.4375,428.6484 Q1802.1719,428.6484 1802.8125,428.8203 Q1803.4688,428.9766 1804.0156,429.3359 Z " fill="#000000"/><text fill="#000000" font-family="sans-serif" font-size="12" font-style="italic" lengthAdjust="spacing" textLength="43" x="1822.75" y="429.5664">&#171;entity&#187;</text><text fill="#000000" font-family="sans-serif" font-size="14" lengthAdjust="spacing" textLength="45" x="1821.75" y="446.7363">Branch</text><line style="stroke:#181818;stroke-width:0.5;" x1="1753.5" x2="1902.5" y1="454.8125" y2="454.8125"/><text fill="#000000" font-family="sans-serif" font-size="14" lengthAdjust="spacing" textLength="101" x="1758.5" y="473.3457">-idBranch: Long</text><text fill="#000000" font-family="sans-serif" font-size="14" lengthAdjust="spacing" textLength="85" x="1758.5" y="490.9551">-name: String</text><text fill="#000000" font-family="sans-serif" font-size="14" lengthAdjust="spacing" textLength="101" x="1758.5" y="508.5645">-address: String</text><text fill="#000000" font-family="sans-serif" font-size="14" lengthAdjust="spacing" textLength="90" x="1758.5" y="526.1738">-phone: String</text><line style="stroke:#181818;stroke-width:0.5;" x1="1753.5" x2="1902.5" y1="533.25" y2="533.25"/><text fill="#000000" font-family="sans-serif" font-size="14" lengthAdjust="spacing" textLength="139" x="1758.5" y="551.7832">+updateDetails(): void</text></g><!--class User--><g id="elem_User"><rect codeLine="35" fill="#F6CACA" height="199.5781" id="User" rx="2.5" ry="2.5" style="stroke:#181818;stroke-width:0.5;" width="292" x="726" y="143.6094"/><ellipse cx="834.75" cy="164.9609" fill="#A9DCDF" rx="11" ry="11" style="stroke:#181818;stroke-width:1.0;"/><path d="M836.9375,166.7266 L832.7969,166.7266 L832.375,167.7578 L832.7969,167.7578 Q833.4063,167.7578 833.6719,167.9922 Q833.9375,168.2266 833.9375,168.6172 Q833.9375,168.9922 833.6719,169.2266 Q833.4063,169.4609 832.7969,169.4609 L830.5,169.4609 Q829.8906,169.4609 829.6406,169.2266 Q829.375,168.9922 829.375,168.6016 Q829.375,168.2266 829.6563,167.9922 Q829.9219,167.7422 830.5469,167.7578 L833.2188,161.1016 L832.1094,161.1016 Q831.5,161.1016 831.2344,160.8672 Q830.9688,160.6328 830.9688,160.2422 Q830.9688,159.8672 831.2344,159.6328 Q831.5,159.3984 832.1094,159.3984 L835.7813,159.3984 L839.1719,167.7578 Q839.7656,167.7578 839.9531,167.8984 Q840.3438,168.1641 840.3438,168.6172 Q840.3438,168.9922 840.0781,169.2266 Q839.8281,169.4609 839.2188,169.4609 L836.9219,169.4609 Q836.3125,169.4609 836.0469,169.2266 Q835.7813,168.9922 835.7813,168.6016 Q835.7813,168.2266 836.0469,167.9922 Q836.3125,167.7578 836.9219,167.7578 L837.3438,167.7578 L836.9375,166.7266 Z M836.2188,165.0234 L834.8594,161.6484 L833.4844,165.0234 L836.2188,165.0234 Z " fill="#000000"/><text fill="#000000" font-family="sans-serif" font-size="12" font-style="italic" lengthAdjust="spacing" textLength="70" x="853.25" y="161.0664">&#171;aggregate&#187;</text><text fill="#000000" font-family="sans-serif" font-size="14" font-style="italic" lengthAdjust="spacing" textLength="30" x="873.25" y="178.2363">User</text><line style="stroke:#181818;stroke-width:0.5;" x1="727" x2="1017" y1="186.3125" y2="186.3125"/><text fill="#000000" font-family="sans-serif" font-size="14" lengthAdjust="spacing" textLength="85" x="732" y="204.8457">-idUser: Long</text><text fill="#000000" font-family="sans-serif" font-size="14" lengthAdjust="spacing" textLength="116" x="732" y="222.4551">-firstNames: String</text><text fill="#000000" font-family="sans-serif" font-size="14" lengthAdjust="spacing" textLength="115" x="732" y="240.0645">-lastNames: String</text><text fill="#000000" font-family="sans-serif" font-size="14" lengthAdjust="spacing" textLength="83" x="732" y="257.6738">-email: String</text><text fill="#000000" font-family="sans-serif" font-size="14" lengthAdjust="spacing" textLength="90" x="732" y="275.2832">-phone: String</text><text fill="#000000" font-family="sans-serif" font-size="14" lengthAdjust="spacing" textLength="120" x="732" y="292.8926">-status: UserStatus</text><line style="stroke:#181818;stroke-width:0.5;" x1="727" x2="1017" y1="299.9688" y2="299.9688"/><text fill="#000000" font-family="sans-serif" font-size="14" lengthAdjust="spacing" textLength="280" x="732" y="318.502">+signIn(email: String, password: String): void</text><text fill="#000000" font-family="sans-serif" font-size="14" lengthAdjust="spacing" textLength="101" x="732" y="336.1113">+signOut(): void</text></g><!--class ClinicAdministrator--><g id="elem_ClinicAdministrator"><rect codeLine="46" fill="#DDEBFF" height="129.1406" id="ClinicAdministrator" rx="2.5" ry="2.5" style="stroke:#181818;stroke-width:0.5;" width="185" x="481.5" y="421.1094"/><ellipse cx="512.7" cy="442.4609" fill="#ADD1B2" rx="11" ry="11" style="stroke:#181818;stroke-width:1.0;"/><path d="M515.4656,438.3359 Q515.6219,438.1172 515.8094,438.0078 Q515.9969,437.8984 516.2156,437.8984 Q516.5906,437.8984 516.825,438.1641 Q517.0594,438.4141 517.0594,439.0234 L517.0594,440.4766 Q517.0594,441.0859 516.825,441.3516 Q516.5906,441.6172 516.2156,441.6172 Q515.8719,441.6172 515.6688,441.4141 Q515.4656,441.2266 515.3563,440.7109 Q515.3094,440.3516 515.1219,440.1641 Q514.7938,439.7891 514.1844,439.5703 Q513.575,439.3516 512.95,439.3516 Q512.1844,439.3516 511.5438,439.6797 Q510.9188,440.0078 510.4188,440.7578 Q509.9344,441.5078 509.9344,442.5391 L509.9344,443.6328 Q509.9344,444.8672 510.825,445.6953 Q511.7156,446.5078 513.3094,446.5078 Q514.2469,446.5078 514.9031,446.2578 Q515.2938,446.1016 515.7156,445.6641 Q515.9813,445.3984 516.1219,445.3203 Q516.2781,445.2422 516.4813,445.2422 Q516.8094,445.2422 517.0594,445.5078 Q517.325,445.7578 517.325,446.1016 Q517.325,446.4453 516.9813,446.8516 Q516.4813,447.4297 515.6844,447.7578 Q514.6063,448.2109 513.3094,448.2109 Q511.7938,448.2109 510.5906,447.5859 Q509.6063,447.0859 508.9188,446.0234 Q508.2313,444.9453 508.2313,443.6641 L508.2313,442.5078 Q508.2313,441.1797 508.8406,440.0391 Q509.4656,438.8828 510.5594,438.2734 Q511.6531,437.6484 512.8875,437.6484 Q513.6219,437.6484 514.2625,437.8203 Q514.9188,437.9766 515.4656,438.3359 Z " fill="#000000"/><text fill="#000000" font-family="sans-serif" font-size="12" font-style="italic" lengthAdjust="spacing" textLength="43" x="567.3" y="438.5664">&#171;entity&#187;</text><text fill="#000000" font-family="sans-serif" font-size="14" lengthAdjust="spacing" textLength="117" x="530.3" y="455.7363">ClinicAdministrator</text><line style="stroke:#181818;stroke-width:0.5;" x1="482.5" x2="665.5" y1="463.8125" y2="463.8125"/><text fill="#000000" font-family="sans-serif" font-size="14" lengthAdjust="spacing" textLength="173" x="487.5" y="482.3457">-idClinicAdministrator: Long</text><text fill="#000000" font-family="sans-serif" font-size="14" lengthAdjust="spacing" textLength="145" x="487.5" y="499.9551">-employeeCode: String</text><line style="stroke:#181818;stroke-width:0.5;" x1="482.5" x2="665.5" y1="507.0313" y2="507.0313"/><text fill="#000000" font-family="sans-serif" font-size="14" lengthAdjust="spacing" textLength="139" x="487.5" y="525.5645">+manageUsers(): void</text><text fill="#000000" font-family="sans-serif" font-size="14" lengthAdjust="spacing" textLength="149" x="487.5" y="543.1738">+viewDashboard(): void</text></g><!--class Doctor--><g id="elem_Doctor"><rect codeLine="53" fill="#DDEBFF" height="146.75" id="Doctor" rx="2.5" ry="2.5" style="stroke:#181818;stroke-width:0.5;" width="208" x="1044" y="412.1094"/><ellipse cx="1122.75" cy="433.4609" fill="#ADD1B2" rx="11" ry="11" style="stroke:#181818;stroke-width:1.0;"/><path d="M1125.5156,429.3359 Q1125.6719,429.1172 1125.8594,429.0078 Q1126.0469,428.8984 1126.2656,428.8984 Q1126.6406,428.8984 1126.875,429.1641 Q1127.1094,429.4141 1127.1094,430.0234 L1127.1094,431.4766 Q1127.1094,432.0859 1126.875,432.3516 Q1126.6406,432.6172 1126.2656,432.6172 Q1125.9219,432.6172 1125.7188,432.4141 Q1125.5156,432.2266 1125.4063,431.7109 Q1125.3594,431.3516 1125.1719,431.1641 Q1124.8438,430.7891 1124.2344,430.5703 Q1123.625,430.3516 1123,430.3516 Q1122.2344,430.3516 1121.5938,430.6797 Q1120.9688,431.0078 1120.4688,431.7578 Q1119.9844,432.5078 1119.9844,433.5391 L1119.9844,434.6328 Q1119.9844,435.8672 1120.875,436.6953 Q1121.7656,437.5078 1123.3594,437.5078 Q1124.2969,437.5078 1124.9531,437.2578 Q1125.3438,437.1016 1125.7656,436.6641 Q1126.0313,436.3984 1126.1719,436.3203 Q1126.3281,436.2422 1126.5313,436.2422 Q1126.8594,436.2422 1127.1094,436.5078 Q1127.375,436.7578 1127.375,437.1016 Q1127.375,437.4453 1127.0313,437.8516 Q1126.5313,438.4297 1125.7344,438.7578 Q1124.6563,439.2109 1123.3594,439.2109 Q1121.8438,439.2109 1120.6406,438.5859 Q1119.6563,438.0859 1118.9688,437.0234 Q1118.2813,435.9453 1118.2813,434.6641 L1118.2813,433.5078 Q1118.2813,432.1797 1118.8906,431.0391 Q1119.5156,429.8828 1120.6094,429.2734 Q1121.7031,428.6484 1122.9375,428.6484 Q1123.6719,428.6484 1124.3125,428.8203 Q1124.9688,428.9766 1125.5156,429.3359 Z " fill="#000000"/><text fill="#000000" font-family="sans-serif" font-size="12" font-style="italic" lengthAdjust="spacing" textLength="43" x="1142.75" y="429.5664">&#171;entity&#187;</text><text fill="#000000" font-family="sans-serif" font-size="14" lengthAdjust="spacing" textLength="42" x="1143.25" y="446.7363">Doctor</text><line style="stroke:#181818;stroke-width:0.5;" x1="1045" x2="1251" y1="454.8125" y2="454.8125"/><text fill="#000000" font-family="sans-serif" font-size="14" lengthAdjust="spacing" textLength="98" x="1050" y="473.3457">-idDoctor: Long</text><text fill="#000000" font-family="sans-serif" font-size="14" lengthAdjust="spacing" textLength="196" x="1050" y="490.9551">-medicalLicenseNumber: String</text><text fill="#000000" font-family="sans-serif" font-size="14" lengthAdjust="spacing" textLength="105" x="1050" y="508.5645">-specialty: String</text><line style="stroke:#181818;stroke-width:0.5;" x1="1045" x2="1251" y1="515.6406" y2="515.6406"/><text fill="#000000" font-family="sans-serif" font-size="14" lengthAdjust="spacing" textLength="138" x="1050" y="534.1738">+viewSchedule(): void</text><text fill="#000000" font-family="sans-serif" font-size="14" lengthAdjust="spacing" textLength="158" x="1050" y="551.7832">+recordEncounter(): void</text></g><!--class AdministrativeStaff--><g id="elem_AdministrativeStaff"><rect codeLine="61" fill="#DDEBFF" height="129.1406" id="AdministrativeStaff" rx="2.5" ry="2.5" style="stroke:#181818;stroke-width:0.5;" width="200" x="1287" y="421.1094"/><ellipse cx="1324.95" cy="442.4609" fill="#ADD1B2" rx="11" ry="11" style="stroke:#181818;stroke-width:1.0;"/><path d="M1327.7156,438.3359 Q1327.8719,438.1172 1328.0594,438.0078 Q1328.2469,437.8984 1328.4656,437.8984 Q1328.8406,437.8984 1329.075,438.1641 Q1329.3094,438.4141 1329.3094,439.0234 L1329.3094,440.4766 Q1329.3094,441.0859 1329.075,441.3516 Q1328.8406,441.6172 1328.4656,441.6172 Q1328.1219,441.6172 1327.9188,441.4141 Q1327.7156,441.2266 1327.6063,440.7109 Q1327.5594,440.3516 1327.3719,440.1641 Q1327.0438,439.7891 1326.4344,439.5703 Q1325.825,439.3516 1325.2,439.3516 Q1324.4344,439.3516 1323.7938,439.6797 Q1323.1688,440.0078 1322.6688,440.7578 Q1322.1844,441.5078 1322.1844,442.5391 L1322.1844,443.6328 Q1322.1844,444.8672 1323.075,445.6953 Q1323.9656,446.5078 1325.5594,446.5078 Q1326.4969,446.5078 1327.1531,446.2578 Q1327.5438,446.1016 1327.9656,445.6641 Q1328.2313,445.3984 1328.3719,445.3203 Q1328.5281,445.2422 1328.7313,445.2422 Q1329.0594,445.2422 1329.3094,445.5078 Q1329.575,445.7578 1329.575,446.1016 Q1329.575,446.4453 1329.2313,446.8516 Q1328.7313,447.4297 1327.9344,447.7578 Q1326.8563,448.2109 1325.5594,448.2109 Q1324.0438,448.2109 1322.8406,447.5859 Q1321.8563,447.0859 1321.1688,446.0234 Q1320.4813,444.9453 1320.4813,443.6641 L1320.4813,442.5078 Q1320.4813,441.1797 1321.0906,440.0391 Q1321.7156,438.8828 1322.8094,438.2734 Q1323.9031,437.6484 1325.1375,437.6484 Q1325.8719,437.6484 1326.5125,437.8203 Q1327.1688,437.9766 1327.7156,438.3359 Z " fill="#000000"/><text fill="#000000" font-family="sans-serif" font-size="12" font-style="italic" lengthAdjust="spacing" textLength="43" x="1381.05" y="438.5664">&#171;entity&#187;</text><text fill="#000000" font-family="sans-serif" font-size="14" lengthAdjust="spacing" textLength="117" x="1344.05" y="455.7363">AdministrativeStaff</text><line style="stroke:#181818;stroke-width:0.5;" x1="1288" x2="1486" y1="463.8125" y2="463.8125"/><text fill="#000000" font-family="sans-serif" font-size="14" lengthAdjust="spacing" textLength="173" x="1293" y="482.3457">-idAdministrativeStaff: Long</text><text fill="#000000" font-family="sans-serif" font-size="14" lengthAdjust="spacing" textLength="145" x="1293" y="499.9551">-employeeCode: String</text><line style="stroke:#181818;stroke-width:0.5;" x1="1288" x2="1486" y1="507.0313" y2="507.0313"/><text fill="#000000" font-family="sans-serif" font-size="14" lengthAdjust="spacing" textLength="188" x="1293" y="525.5645">+scheduleAppointment(): void</text><text fill="#000000" font-family="sans-serif" font-size="14" lengthAdjust="spacing" textLength="148" x="1293" y="543.1738">+recordPayment(): void</text></g><!--class Pharmacist--><g id="elem_Pharmacist"><rect codeLine="68" fill="#DDEBFF" height="129.1406" id="Pharmacist" rx="2.5" ry="2.5" style="stroke:#181818;stroke-width:0.5;" width="189" x="47.5" y="421.1094"/><ellipse cx="102.75" cy="442.4609" fill="#ADD1B2" rx="11" ry="11" style="stroke:#181818;stroke-width:1.0;"/><path d="M105.5156,438.3359 Q105.6719,438.1172 105.8594,438.0078 Q106.0469,437.8984 106.2656,437.8984 Q106.6406,437.8984 106.875,438.1641 Q107.1094,438.4141 107.1094,439.0234 L107.1094,440.4766 Q107.1094,441.0859 106.875,441.3516 Q106.6406,441.6172 106.2656,441.6172 Q105.9219,441.6172 105.7188,441.4141 Q105.5156,441.2266 105.4063,440.7109 Q105.3594,440.3516 105.1719,440.1641 Q104.8438,439.7891 104.2344,439.5703 Q103.625,439.3516 103,439.3516 Q102.2344,439.3516 101.5938,439.6797 Q100.9688,440.0078 100.4688,440.7578 Q99.9844,441.5078 99.9844,442.5391 L99.9844,443.6328 Q99.9844,444.8672 100.875,445.6953 Q101.7656,446.5078 103.3594,446.5078 Q104.2969,446.5078 104.9531,446.2578 Q105.3438,446.1016 105.7656,445.6641 Q106.0313,445.3984 106.1719,445.3203 Q106.3281,445.2422 106.5313,445.2422 Q106.8594,445.2422 107.1094,445.5078 Q107.375,445.7578 107.375,446.1016 Q107.375,446.4453 107.0313,446.8516 Q106.5313,447.4297 105.7344,447.7578 Q104.6563,448.2109 103.3594,448.2109 Q101.8438,448.2109 100.6406,447.5859 Q99.6563,447.0859 98.9688,446.0234 Q98.2813,444.9453 98.2813,443.6641 L98.2813,442.5078 Q98.2813,441.1797 98.8906,440.0391 Q99.5156,438.8828 100.6094,438.2734 Q101.7031,437.6484 102.9375,437.6484 Q103.6719,437.6484 104.3125,437.8203 Q104.9688,437.9766 105.5156,438.3359 Z " fill="#000000"/><text fill="#000000" font-family="sans-serif" font-size="12" font-style="italic" lengthAdjust="spacing" textLength="43" x="136.75" y="438.5664">&#171;entity&#187;</text><text fill="#000000" font-family="sans-serif" font-size="14" lengthAdjust="spacing" textLength="70" x="123.25" y="455.7363">Pharmacist</text><line style="stroke:#181818;stroke-width:0.5;" x1="48.5" x2="235.5" y1="463.8125" y2="463.8125"/><text fill="#000000" font-family="sans-serif" font-size="14" lengthAdjust="spacing" textLength="126" x="53.5" y="482.3457">-idPharmacist: Long</text><text fill="#000000" font-family="sans-serif" font-size="14" lengthAdjust="spacing" textLength="145" x="53.5" y="499.9551">-employeeCode: String</text><line style="stroke:#181818;stroke-width:0.5;" x1="48.5" x2="235.5" y1="507.0313" y2="507.0313"/><text fill="#000000" font-family="sans-serif" font-size="14" lengthAdjust="spacing" textLength="161" x="53.5" y="525.5645">+viewPrescriptions(): void</text><text fill="#000000" font-family="sans-serif" font-size="14" lengthAdjust="spacing" textLength="177" x="53.5" y="543.1738">+dispenseMedication(): void</text></g><!--class Patient--><g id="elem_Patient"><rect codeLine="75" fill="#DDEBFF" height="164.3594" id="Patient" rx="2.5" ry="2.5" style="stroke:#181818;stroke-width:0.5;" width="174" x="272" y="403.6094"/><ellipse cx="332.75" cy="424.9609" fill="#ADD1B2" rx="11" ry="11" style="stroke:#181818;stroke-width:1.0;"/><path d="M335.5156,420.8359 Q335.6719,420.6172 335.8594,420.5078 Q336.0469,420.3984 336.2656,420.3984 Q336.6406,420.3984 336.875,420.6641 Q337.1094,420.9141 337.1094,421.5234 L337.1094,422.9766 Q337.1094,423.5859 336.875,423.8516 Q336.6406,424.1172 336.2656,424.1172 Q335.9219,424.1172 335.7188,423.9141 Q335.5156,423.7266 335.4063,423.2109 Q335.3594,422.8516 335.1719,422.6641 Q334.8438,422.2891 334.2344,422.0703 Q333.625,421.8516 333,421.8516 Q332.2344,421.8516 331.5938,422.1797 Q330.9688,422.5078 330.4688,423.2578 Q329.9844,424.0078 329.9844,425.0391 L329.9844,426.1328 Q329.9844,427.3672 330.875,428.1953 Q331.7656,429.0078 333.3594,429.0078 Q334.2969,429.0078 334.9531,428.7578 Q335.3438,428.6016 335.7656,428.1641 Q336.0313,427.8984 336.1719,427.8203 Q336.3281,427.7422 336.5313,427.7422 Q336.8594,427.7422 337.1094,428.0078 Q337.375,428.2578 337.375,428.6016 Q337.375,428.9453 337.0313,429.3516 Q336.5313,429.9297 335.7344,430.2578 Q334.6563,430.7109 333.3594,430.7109 Q331.8438,430.7109 330.6406,430.0859 Q329.6563,429.5859 328.9688,428.5234 Q328.2813,427.4453 328.2813,426.1641 L328.2813,425.0078 Q328.2813,423.6797 328.8906,422.5391 Q329.5156,421.3828 330.6094,420.7734 Q331.7031,420.1484 332.9375,420.1484 Q333.6719,420.1484 334.3125,420.3203 Q334.9688,420.4766 335.5156,420.8359 Z " fill="#000000"/><text fill="#000000" font-family="sans-serif" font-size="12" font-style="italic" lengthAdjust="spacing" textLength="43" x="353.75" y="421.0664">&#171;entity&#187;</text><text fill="#000000" font-family="sans-serif" font-size="14" lengthAdjust="spacing" textLength="44" x="353.25" y="438.2363">Patient</text><line style="stroke:#181818;stroke-width:0.5;" x1="273" x2="445" y1="446.3125" y2="446.3125"/><text fill="#000000" font-family="sans-serif" font-size="14" lengthAdjust="spacing" textLength="100" x="278" y="464.8457">-idPatient: Long</text><text fill="#000000" font-family="sans-serif" font-size="14" lengthAdjust="spacing" textLength="111" x="278" y="482.4551">-nationalId: String</text><text fill="#000000" font-family="sans-serif" font-size="14" lengthAdjust="spacing" textLength="101" x="278" y="500.0645">-birthDate: Date</text><text fill="#000000" font-family="sans-serif" font-size="14" lengthAdjust="spacing" textLength="101" x="278" y="517.6738">-address: String</text><line style="stroke:#181818;stroke-width:0.5;" x1="273" x2="445" y1="524.75" y2="524.75"/><text fill="#000000" font-family="sans-serif" font-size="14" lengthAdjust="spacing" textLength="162" x="278" y="543.2832">+bookAppointment(): void</text><text fill="#000000" font-family="sans-serif" font-size="14" lengthAdjust="spacing" textLength="125" x="278" y="560.8926">+viewRecord(): void</text></g><!--class ClinicMembership--><g id="elem_ClinicMembership"><rect codeLine="84" fill="#DDEBFF" height="146.75" id="ClinicMembership" rx="2.5" ry="2.5" style="stroke:#181818;stroke-width:0.5;" width="195" x="1522.5" y="412.1094"/><ellipse cx="1560.9" cy="433.4609" fill="#ADD1B2" rx="11" ry="11" style="stroke:#181818;stroke-width:1.0;"/><path d="M1563.6656,429.3359 Q1563.8219,429.1172 1564.0094,429.0078 Q1564.1969,428.8984 1564.4156,428.8984 Q1564.7906,428.8984 1565.025,429.1641 Q1565.2594,429.4141 1565.2594,430.0234 L1565.2594,431.4766 Q1565.2594,432.0859 1565.025,432.3516 Q1564.7906,432.6172 1564.4156,432.6172 Q1564.0719,432.6172 1563.8688,432.4141 Q1563.6656,432.2266 1563.5563,431.7109 Q1563.5094,431.3516 1563.3219,431.1641 Q1562.9938,430.7891 1562.3844,430.5703 Q1561.775,430.3516 1561.15,430.3516 Q1560.3844,430.3516 1559.7438,430.6797 Q1559.1188,431.0078 1558.6188,431.7578 Q1558.1344,432.5078 1558.1344,433.5391 L1558.1344,434.6328 Q1558.1344,435.8672 1559.025,436.6953 Q1559.9156,437.5078 1561.5094,437.5078 Q1562.4469,437.5078 1563.1031,437.2578 Q1563.4938,437.1016 1563.9156,436.6641 Q1564.1813,436.3984 1564.3219,436.3203 Q1564.4781,436.2422 1564.6813,436.2422 Q1565.0094,436.2422 1565.2594,436.5078 Q1565.525,436.7578 1565.525,437.1016 Q1565.525,437.4453 1565.1813,437.8516 Q1564.6813,438.4297 1563.8844,438.7578 Q1562.8063,439.2109 1561.5094,439.2109 Q1559.9938,439.2109 1558.7906,438.5859 Q1557.8063,438.0859 1557.1188,437.0234 Q1556.4313,435.9453 1556.4313,434.6641 L1556.4313,433.5078 Q1556.4313,432.1797 1557.0406,431.0391 Q1557.6656,429.8828 1558.7594,429.2734 Q1559.8531,428.6484 1561.0875,428.6484 Q1561.8219,428.6484 1562.4625,428.8203 Q1563.1188,428.9766 1563.6656,429.3359 Z " fill="#000000"/><text fill="#000000" font-family="sans-serif" font-size="12" font-style="italic" lengthAdjust="spacing" textLength="43" x="1614.1" y="429.5664">&#171;entity&#187;</text><text fill="#000000" font-family="sans-serif" font-size="14" lengthAdjust="spacing" textLength="111" x="1580.1" y="446.7363">ClinicMembership</text><line style="stroke:#181818;stroke-width:0.5;" x1="1523.5" x2="1716.5" y1="454.8125" y2="454.8125"/><text fill="#000000" font-family="sans-serif" font-size="14" lengthAdjust="spacing" textLength="167" x="1528.5" y="473.3457">-idClinicMembership: Long</text><text fill="#000000" font-family="sans-serif" font-size="14" lengthAdjust="spacing" textLength="125" x="1528.5" y="490.9551">-joinedAt: DateTime</text><text fill="#000000" font-family="sans-serif" font-size="14" lengthAdjust="spacing" textLength="102" x="1528.5" y="508.5645">-active: Boolean</text><line style="stroke:#181818;stroke-width:0.5;" x1="1523.5" x2="1716.5" y1="515.6406" y2="515.6406"/><text fill="#000000" font-family="sans-serif" font-size="14" lengthAdjust="spacing" textLength="183" x="1528.5" y="534.1738">+assignRole(role: Role): void</text><text fill="#000000" font-family="sans-serif" font-size="14" lengthAdjust="spacing" textLength="140" x="1528.5" y="551.7832">+revokeAccess(): void</text></g><!--class Role--><g id="elem_Role"><rect codeLine="92" fill="#DDEBFF" height="129.1406" id="Role" rx="2.5" ry="2.5" style="stroke:#181818;stroke-width:0.5;" width="184" x="1528" y="627.6094"/><ellipse cx="1596.25" cy="648.9609" fill="#ADD1B2" rx="11" ry="11" style="stroke:#181818;stroke-width:1.0;"/><path d="M1599.0156,644.8359 Q1599.1719,644.6172 1599.3594,644.5078 Q1599.5469,644.3984 1599.7656,644.3984 Q1600.1406,644.3984 1600.375,644.6641 Q1600.6094,644.9141 1600.6094,645.5234 L1600.6094,646.9766 Q1600.6094,647.5859 1600.375,647.8516 Q1600.1406,648.1172 1599.7656,648.1172 Q1599.4219,648.1172 1599.2188,647.9141 Q1599.0156,647.7266 1598.9063,647.2109 Q1598.8594,646.8516 1598.6719,646.6641 Q1598.3438,646.2891 1597.7344,646.0703 Q1597.125,645.8516 1596.5,645.8516 Q1595.7344,645.8516 1595.0938,646.1797 Q1594.4688,646.5078 1593.9688,647.2578 Q1593.4844,648.0078 1593.4844,649.0391 L1593.4844,650.1328 Q1593.4844,651.3672 1594.375,652.1953 Q1595.2656,653.0078 1596.8594,653.0078 Q1597.7969,653.0078 1598.4531,652.7578 Q1598.8438,652.6016 1599.2656,652.1641 Q1599.5313,651.8984 1599.6719,651.8203 Q1599.8281,651.7422 1600.0313,651.7422 Q1600.3594,651.7422 1600.6094,652.0078 Q1600.875,652.2578 1600.875,652.6016 Q1600.875,652.9453 1600.5313,653.3516 Q1600.0313,653.9297 1599.2344,654.2578 Q1598.1563,654.7109 1596.8594,654.7109 Q1595.3438,654.7109 1594.1406,654.0859 Q1593.1563,653.5859 1592.4688,652.5234 Q1591.7813,651.4453 1591.7813,650.1641 L1591.7813,649.0078 Q1591.7813,647.6797 1592.3906,646.5391 Q1593.0156,645.3828 1594.1094,644.7734 Q1595.2031,644.1484 1596.4375,644.1484 Q1597.1719,644.1484 1597.8125,644.3203 Q1598.4688,644.4766 1599.0156,644.8359 Z " fill="#000000"/><text fill="#000000" font-family="sans-serif" font-size="12" font-style="italic" lengthAdjust="spacing" textLength="43" x="1614.75" y="645.0664">&#171;entity&#187;</text><text fill="#000000" font-family="sans-serif" font-size="14" lengthAdjust="spacing" textLength="29" x="1621.75" y="662.2363">Role</text><line style="stroke:#181818;stroke-width:0.5;" x1="1529" x2="1711" y1="670.3125" y2="670.3125"/><text fill="#000000" font-family="sans-serif" font-size="14" lengthAdjust="spacing" textLength="85" x="1534" y="688.8457">-idRole: Long</text><text fill="#000000" font-family="sans-serif" font-size="14" lengthAdjust="spacing" textLength="85" x="1534" y="706.4551">-name: String</text><text fill="#000000" font-family="sans-serif" font-size="14" lengthAdjust="spacing" textLength="119" x="1534" y="724.0645">-description: String</text><line style="stroke:#181818;stroke-width:0.5;" x1="1529" x2="1711" y1="731.1406" y2="731.1406"/><text fill="#000000" font-family="sans-serif" font-size="14" lengthAdjust="spacing" textLength="172" x="1534" y="749.6738">+updatePermissions(): void</text></g><!--class Permission--><g id="elem_Permission"><rect codeLine="99" fill="#DDEBFF" height="129.1406" id="Permission" rx="2.5" ry="2.5" style="stroke:#181818;stroke-width:0.5;" width="137" x="1551.5" y="816.6094"/><ellipse cx="1582.7" cy="837.9609" fill="#ADD1B2" rx="11" ry="11" style="stroke:#181818;stroke-width:1.0;"/><path d="M1585.4656,833.8359 Q1585.6219,833.6172 1585.8094,833.5078 Q1585.9969,833.3984 1586.2156,833.3984 Q1586.5906,833.3984 1586.825,833.6641 Q1587.0594,833.9141 1587.0594,834.5234 L1587.0594,835.9766 Q1587.0594,836.5859 1586.825,836.8516 Q1586.5906,837.1172 1586.2156,837.1172 Q1585.8719,837.1172 1585.6688,836.9141 Q1585.4656,836.7266 1585.3563,836.2109 Q1585.3094,835.8516 1585.1219,835.6641 Q1584.7938,835.2891 1584.1844,835.0703 Q1583.575,834.8516 1582.95,834.8516 Q1582.1844,834.8516 1581.5438,835.1797 Q1580.9188,835.5078 1580.4188,836.2578 Q1579.9344,837.0078 1579.9344,838.0391 L1579.9344,839.1328 Q1579.9344,840.3672 1580.825,841.1953 Q1581.7156,842.0078 1583.3094,842.0078 Q1584.2469,842.0078 1584.9031,841.7578 Q1585.2938,841.6016 1585.7156,841.1641 Q1585.9813,840.8984 1586.1219,840.8203 Q1586.2781,840.7422 1586.4813,840.7422 Q1586.8094,840.7422 1587.0594,841.0078 Q1587.325,841.2578 1587.325,841.6016 Q1587.325,841.9453 1586.9813,842.3516 Q1586.4813,842.9297 1585.6844,843.2578 Q1584.6063,843.7109 1583.3094,843.7109 Q1581.7938,843.7109 1580.5906,843.0859 Q1579.6063,842.5859 1578.9188,841.5234 Q1578.2313,840.4453 1578.2313,839.1641 L1578.2313,838.0078 Q1578.2313,836.6797 1578.8406,835.5391 Q1579.4656,834.3828 1580.5594,833.7734 Q1581.6531,833.1484 1582.8875,833.1484 Q1583.6219,833.1484 1584.2625,833.3203 Q1584.9188,833.4766 1585.4656,833.8359 Z " fill="#000000"/><text fill="#000000" font-family="sans-serif" font-size="12" font-style="italic" lengthAdjust="spacing" textLength="43" x="1613.3" y="834.0664">&#171;entity&#187;</text><text fill="#000000" font-family="sans-serif" font-size="14" lengthAdjust="spacing" textLength="69" x="1600.3" y="851.2363">Permission</text><line style="stroke:#181818;stroke-width:0.5;" x1="1552.5" x2="1687.5" y1="859.3125" y2="859.3125"/><text fill="#000000" font-family="sans-serif" font-size="14" lengthAdjust="spacing" textLength="125" x="1557.5" y="877.8457">-idPermission: Long</text><text fill="#000000" font-family="sans-serif" font-size="14" lengthAdjust="spacing" textLength="81" x="1557.5" y="895.4551">-code: String</text><text fill="#000000" font-family="sans-serif" font-size="14" lengthAdjust="spacing" textLength="119" x="1557.5" y="913.0645">-description: String</text><line style="stroke:#181818;stroke-width:0.5;" x1="1552.5" x2="1687.5" y1="920.1406" y2="920.1406"/><text fill="#000000" font-family="sans-serif" font-size="14" lengthAdjust="spacing" textLength="95" x="1557.5" y="938.6738">+enable(): void</text></g><!--class UserSession--><g id="elem_UserSession"><rect codeLine="106" fill="#DDEBFF" height="146.75" id="UserSession" rx="2.5" ry="2.5" style="stroke:#181818;stroke-width:0.5;" width="171" x="701.5" y="412.1094"/><ellipse cx="743.5" cy="433.4609" fill="#ADD1B2" rx="11" ry="11" style="stroke:#181818;stroke-width:1.0;"/><path d="M746.2656,429.3359 Q746.4219,429.1172 746.6094,429.0078 Q746.7969,428.8984 747.0156,428.8984 Q747.3906,428.8984 747.625,429.1641 Q747.8594,429.4141 747.8594,430.0234 L747.8594,431.4766 Q747.8594,432.0859 747.625,432.3516 Q747.3906,432.6172 747.0156,432.6172 Q746.6719,432.6172 746.4688,432.4141 Q746.2656,432.2266 746.1563,431.7109 Q746.1094,431.3516 745.9219,431.1641 Q745.5938,430.7891 744.9844,430.5703 Q744.375,430.3516 743.75,430.3516 Q742.9844,430.3516 742.3438,430.6797 Q741.7188,431.0078 741.2188,431.7578 Q740.7344,432.5078 740.7344,433.5391 L740.7344,434.6328 Q740.7344,435.8672 741.625,436.6953 Q742.5156,437.5078 744.1094,437.5078 Q745.0469,437.5078 745.7031,437.2578 Q746.0938,437.1016 746.5156,436.6641 Q746.7813,436.3984 746.9219,436.3203 Q747.0781,436.2422 747.2813,436.2422 Q747.6094,436.2422 747.8594,436.5078 Q748.125,436.7578 748.125,437.1016 Q748.125,437.4453 747.7813,437.8516 Q747.2813,438.4297 746.4844,438.7578 Q745.4063,439.2109 744.1094,439.2109 Q742.5938,439.2109 741.3906,438.5859 Q740.4063,438.0859 739.7188,437.0234 Q739.0313,435.9453 739.0313,434.6641 L739.0313,433.5078 Q739.0313,432.1797 739.6406,431.0391 Q740.2656,429.8828 741.3594,429.2734 Q742.4531,428.6484 743.6875,428.6484 Q744.4219,428.6484 745.0625,428.8203 Q745.7188,428.9766 746.2656,429.3359 Z " fill="#000000"/><text fill="#000000" font-family="sans-serif" font-size="12" font-style="italic" lengthAdjust="spacing" textLength="43" x="781.5" y="429.5664">&#171;entity&#187;</text><text fill="#000000" font-family="sans-serif" font-size="14" lengthAdjust="spacing" textLength="79" x="763.5" y="446.7363">UserSession</text><line style="stroke:#181818;stroke-width:0.5;" x1="702.5" x2="871.5" y1="454.8125" y2="454.8125"/><text fill="#000000" font-family="sans-serif" font-size="14" lengthAdjust="spacing" textLength="135" x="707.5" y="473.3457">-idUserSession: Long</text><text fill="#000000" font-family="sans-serif" font-size="14" lengthAdjust="spacing" textLength="159" x="707.5" y="490.9551">-accessCredential: String</text><text fill="#000000" font-family="sans-serif" font-size="14" lengthAdjust="spacing" textLength="132" x="707.5" y="508.5645">-startDate: DateTime</text><text fill="#000000" font-family="sans-serif" font-size="14" lengthAdjust="spacing" textLength="132" x="707.5" y="526.1738">-expiresAt: DateTime</text><line style="stroke:#181818;stroke-width:0.5;" x1="702.5" x2="871.5" y1="533.25" y2="533.25"/><text fill="#000000" font-family="sans-serif" font-size="14" lengthAdjust="spacing" textLength="90" x="707.5" y="551.7832">+expire(): void</text></g><!--class ClinicStatus--><g id="elem_ClinicStatus"><rect codeLine="114" fill="#F1F1F1" height="100.8281" id="ClinicStatus" rx="2.5" ry="2.5" style="stroke:#181818;stroke-width:0.5;" width="106" x="1939" y="435.1094"/><ellipse cx="1954" cy="451.1094" fill="#EB937F" rx="11" ry="11" style="stroke:#181818;stroke-width:1.0;"/><path d="M1952.8594,451.9063 L1952.8594,454.4063 L1957.1875,454.4063 L1957.1875,453.4844 Q1957.1875,452.875 1957.4219,452.6094 Q1957.6719,452.3438 1958.0469,452.3438 Q1958.4219,452.3438 1958.6563,452.6094 Q1958.8906,452.875 1958.8906,453.4844 L1958.8906,456.1094 L1950.8906,456.1094 Q1950.2656,456.1094 1950,455.875 Q1949.75,455.6406 1949.75,455.25 Q1949.75,454.875 1950.0156,454.6406 Q1950.2813,454.4063 1950.8906,454.4063 L1951.1563,454.4063 L1951.1563,447.75 L1950.8906,447.75 Q1950.2656,447.75 1950,447.5156 Q1949.75,447.2813 1949.75,446.8906 Q1949.75,446.5156 1950,446.2813 Q1950.2656,446.0469 1950.8906,446.0469 L1958.5156,446.0469 L1958.5156,448.6406 Q1958.5156,449.25 1958.2813,449.5156 Q1958.0625,449.7656 1957.6719,449.7656 Q1957.2969,449.7656 1957.0625,449.5156 Q1956.8281,449.25 1956.8281,448.6406 L1956.8281,447.75 L1952.8594,447.75 L1952.8594,450.2031 L1954.3438,450.2031 Q1954.3438,449.5469 1954.4688,449.3594 Q1954.7344,448.9531 1955.2031,448.9531 Q1955.5781,448.9531 1955.8125,449.2188 Q1956.0469,449.4688 1956.0469,450.0781 L1956.0469,452.0469 Q1956.0469,452.5938 1955.9219,452.7813 Q1955.6563,453.1719 1955.2031,453.1719 Q1954.7344,453.1719 1954.4688,452.7656 Q1954.3438,452.5781 1954.3438,451.9063 L1952.8594,451.9063 Z " fill="#000000"/><text fill="#000000" font-family="sans-serif" font-size="14" lengthAdjust="spacing" textLength="74" x="1968" y="456.8379">ClinicStatus</text><line style="stroke:#181818;stroke-width:0.5;" x1="1940" x2="2044" y1="467.1094" y2="467.1094"/><text fill="#000000" font-family="sans-serif" font-size="14" lengthAdjust="spacing" textLength="49" x="1945" y="485.6426">ACTIVE</text><text fill="#000000" font-family="sans-serif" font-size="14" lengthAdjust="spacing" textLength="83" x="1945" y="503.252">SUSPENDED</text><text fill="#000000" font-family="sans-serif" font-size="14" lengthAdjust="spacing" textLength="74" x="1945" y="520.8613">CANCELED</text><line style="stroke:#181818;stroke-width:0.5;" x1="1940" x2="2044" y1="527.9375" y2="527.9375"/></g><!--class UserStatus--><g id="elem_UserStatus"><rect codeLine="120" fill="#F1F1F1" height="100.8281" id="UserStatus" rx="2.5" ry="2.5" style="stroke:#181818;stroke-width:0.5;" width="101" x="907.5" y="435.1094"/><ellipse cx="922.5" cy="451.1094" fill="#EB937F" rx="11" ry="11" style="stroke:#181818;stroke-width:1.0;"/><path d="M921.3594,451.9063 L921.3594,454.4063 L925.6875,454.4063 L925.6875,453.4844 Q925.6875,452.875 925.9219,452.6094 Q926.1719,452.3438 926.5469,452.3438 Q926.9219,452.3438 927.1563,452.6094 Q927.3906,452.875 927.3906,453.4844 L927.3906,456.1094 L919.3906,456.1094 Q918.7656,456.1094 918.5,455.875 Q918.25,455.6406 918.25,455.25 Q918.25,454.875 918.5156,454.6406 Q918.7813,454.4063 919.3906,454.4063 L919.6563,454.4063 L919.6563,447.75 L919.3906,447.75 Q918.7656,447.75 918.5,447.5156 Q918.25,447.2813 918.25,446.8906 Q918.25,446.5156 918.5,446.2813 Q918.7656,446.0469 919.3906,446.0469 L927.0156,446.0469 L927.0156,448.6406 Q927.0156,449.25 926.7813,449.5156 Q926.5625,449.7656 926.1719,449.7656 Q925.7969,449.7656 925.5625,449.5156 Q925.3281,449.25 925.3281,448.6406 L925.3281,447.75 L921.3594,447.75 L921.3594,450.2031 L922.8438,450.2031 Q922.8438,449.5469 922.9688,449.3594 Q923.2344,448.9531 923.7031,448.9531 Q924.0781,448.9531 924.3125,449.2188 Q924.5469,449.4688 924.5469,450.0781 L924.5469,452.0469 Q924.5469,452.5938 924.4219,452.7813 Q924.1563,453.1719 923.7031,453.1719 Q923.2344,453.1719 922.9688,452.7656 Q922.8438,452.5781 922.8438,451.9063 L921.3594,451.9063 Z " fill="#000000"/><text fill="#000000" font-family="sans-serif" font-size="14" lengthAdjust="spacing" textLength="69" x="936.5" y="456.8379">UserStatus</text><line style="stroke:#181818;stroke-width:0.5;" x1="908.5" x2="1007.5" y1="467.1094" y2="467.1094"/><text fill="#000000" font-family="sans-serif" font-size="14" lengthAdjust="spacing" textLength="49" x="913.5" y="485.6426">ACTIVE</text><text fill="#000000" font-family="sans-serif" font-size="14" lengthAdjust="spacing" textLength="61" x="913.5" y="503.252">INACTIVE</text><text fill="#000000" font-family="sans-serif" font-size="14" lengthAdjust="spacing" textLength="66" x="913.5" y="520.8613">BLOCKED</text><line style="stroke:#181818;stroke-width:0.5;" x1="908.5" x2="1007.5" y1="527.9375" y2="527.9375"/></g><!--reverse link User to ClinicAdministrator--><g id="link_User_ClinicAdministrator"><path codeLine="126" d="M707.62,277.6094 C632.26,277.6094 574,277.6094 574,277.6094 C574,277.6094 574,359.8794 574,420.9394 " fill="none" id="User-backto-ClinicAdministrator" style="stroke:#181818;stroke-width:1.0;"/><polygon fill="none" points="725.62,277.6094,707.62,271.6094,707.62,283.6094,725.62,277.6094" style="stroke:#181818;stroke-width:1.0;"/></g><!--reverse link User to Doctor--><g id="link_User_Doctor"><path codeLine="127" d="M1013.25,361.6094 C1013.25,403.0394 1013.25,423.6094 1013.25,423.6094 C1013.25,423.6094 1026.08,423.6094 1043.83,423.6094 " fill="none" id="User-backto-Doctor" style="stroke:#181818;stroke-width:1.0;"/><polygon fill="none" points="1013.25,343.6094,1007.25,361.6094,1019.25,361.6094,1013.25,343.6094" style="stroke:#181818;stroke-width:1.0;"/></g><!--reverse link User to AdministrativeStaff--><g id="link_User_AdministrativeStaff"><path codeLine="128" d="M1036.2,340.6094 C1188.46,340.6094 1387,340.6094 1387,340.6094 C1387,340.6094 1387,382.1394 1387,420.7394 " fill="none" id="User-backto-AdministrativeStaff" style="stroke:#181818;stroke-width:1.0;"/><polygon fill="none" points="1018.2,340.6094,1036.2,346.6094,1036.2,334.6094,1018.2,340.6094" style="stroke:#181818;stroke-width:1.0;"/></g><!--reverse link User to Pharmacist--><g id="link_User_Pharmacist"><path codeLine="129" d="M707.59,210.6094 C494.49,210.6094 142,210.6094 142,210.6094 C142,210.6094 142,339.4894 142,420.7894 " fill="none" id="User-backto-Pharmacist" style="stroke:#181818;stroke-width:1.0;"/><polygon fill="none" points="725.59,210.6094,707.59,204.6094,707.59,216.6094,725.59,210.6094" style="stroke:#181818;stroke-width:1.0;"/></g><!--reverse link User to Patient--><g id="link_User_Patient"><path codeLine="130" d="M774.83,361.8694 C774.83,396.4194 774.83,408.6094 774.83,408.6094 C774.83,408.6094 568.11,408.6094 446.17,408.6094 " fill="none" id="User-backto-Patient" style="stroke:#181818;stroke-width:1.0;"/><polygon fill="none" points="774.83,343.8694,768.83,361.8694,780.83,361.8694,774.83,343.8694" style="stroke:#181818;stroke-width:1.0;"/></g><!--reverse link Clinic to Branch--><g id="link_Clinic_Branch"><path codeLine="131" d="M1828,346.7494 C1828,372.2094 1828,387.5494 1828,411.8694 " fill="none" id="Clinic-backto-Branch" style="stroke:#181818;stroke-width:1.0;"/><polygon fill="#181818" points="1828,334.7494,1824,340.7494,1828,346.7494,1832,340.7494,1828,334.7494" style="stroke:#181818;stroke-width:1.0;"/><text fill="#000000" font-family="sans-serif" font-size="13" lengthAdjust="spacing" textLength="7" x="1820.7211" y="356.16">1</text><text fill="#000000" font-family="sans-serif" font-size="13" lengthAdjust="spacing" textLength="20" x="1807.0156" y="401.3478">1..*</text></g><!--reverse link Clinic to ClinicMembership--><g id="link_Clinic_ClinicMembership"><path codeLine="132" d="M1747.39,243.6094 C1698.17,243.6094 1652.5,243.6094 1652.5,243.6094 C1652.5,243.6094 1652.5,340.8194 1652.5,412.0194 " fill="none" id="Clinic-backto-ClinicMembership" style="stroke:#181818;stroke-width:1.0;"/><polygon fill="#181818" points="1759.39,243.6094,1753.39,239.6094,1747.39,243.6094,1753.39,247.6094,1759.39,243.6094" style="stroke:#181818;stroke-width:1.0;"/><text fill="#000000" font-family="sans-serif" font-size="13" lengthAdjust="spacing" textLength="7" x="1744.503" y="240.2504">1</text><text fill="#000000" font-family="sans-serif" font-size="13" lengthAdjust="spacing" textLength="20" x="1634.8203" y="401.1315">0..*</text></g><!--link User to ClinicMembership--><g id="link_User_ClinicMembership"><path codeLine="133" d="M1018.09,337.6094 C1227.35,337.6094 1587.5,337.6094 1587.5,337.6094 C1587.5,337.6094 1587.5,374.8994 1587.5,412.0394 " fill="none" id="User-ClinicMembership" style="stroke:#181818;stroke-width:1.0;"/><text fill="#000000" font-family="sans-serif" font-size="13" lengthAdjust="spacing" textLength="7" x="1025.8032" y="339.5588">1</text><text fill="#000000" font-family="sans-serif" font-size="13" lengthAdjust="spacing" textLength="20" x="1563.1172" y="401.1536">0..*</text></g><!--link ClinicMembership to Role--><g id="link_ClinicMembership_Role"><path codeLine="134" d="M1620,559.2894 C1620,581.5294 1620,599.7594 1620,621.3694 " fill="none" id="ClinicMembership-to-Role" style="stroke:#181818;stroke-width:1.0;"/><polygon fill="#181818" points="1620,627.3694,1624,618.3694,1620,622.3694,1616,618.3694,1620,627.3694" style="stroke:#181818;stroke-width:1.0;"/><text fill="#000000" font-family="sans-serif" font-size="13" lengthAdjust="spacing" textLength="7" x="1612.6773" y="580.3421">1</text><text fill="#000000" font-family="sans-serif" font-size="13" lengthAdjust="spacing" textLength="7" x="1612.6172" y="616.9201">1</text></g><!--link Role to Permission--><g id="link_Role_Permission"><path codeLine="135" d="M1620,756.6194 C1620,775.9794 1620,797.2094 1620,816.5694 " fill="none" id="Role-Permission" style="stroke:#181818;stroke-width:1.0;"/><text fill="#000000" font-family="sans-serif" font-size="13" lengthAdjust="spacing" textLength="7" x="1612.6172" y="778.0568">1</text><text fill="#000000" font-family="sans-serif" font-size="13" lengthAdjust="spacing" textLength="20" x="1598.8438" y="805.6892">0..*</text></g><!--link User to UserSession--><g id="link_User_UserSession"><path codeLine="136" d="M823.67,343.7894 C823.67,366.6694 823.67,390.5794 823.67,412.1094 " fill="none" id="User-UserSession" style="stroke:#181818;stroke-width:1.0;"/><text fill="#000000" font-family="sans-serif" font-size="13" lengthAdjust="spacing" textLength="7" x="813.1877" y="364.5788">1</text><text fill="#000000" font-family="sans-serif" font-size="13" lengthAdjust="spacing" textLength="20" x="806.4203" y="401.2308">0..*</text></g><!--link Clinic to ClinicStatus--><g id="link_Clinic_ClinicStatus"><path codeLine="137" d="M1896.6,243.6094 C1941.54,243.6094 1992,243.6094 1992,243.6094 C1992,243.6094 1992,357.9194 1992,428.8794 " fill="none" id="Clinic-to-ClinicStatus" style="stroke:#181818;stroke-width:1.0;"/><polygon fill="#181818" points="1992,434.8794,1996,425.8794,1992,429.8794,1988,425.8794,1992,434.8794" style="stroke:#181818;stroke-width:1.0;"/><text fill="#000000" font-family="sans-serif" font-size="13" lengthAdjust="spacing" textLength="36" x="1955" y="288.0345">status</text></g><!--link User to UserStatus--><g id="link_User_UserStatus"><path codeLine="138" d="M958,343.7894 C958,375.1194 958,402.3794 958,428.8094 " fill="none" id="User-to-UserStatus" style="stroke:#181818;stroke-width:1.0;"/><polygon fill="#181818" points="958,434.8094,962,425.8094,958,429.8094,954,425.8094,958,434.8094" style="stroke:#181818;stroke-width:1.0;"/><text fill="#000000" font-family="sans-serif" font-size="13" lengthAdjust="spacing" textLength="36" x="921" y="385.7945">status</text></g><rect fill="#DDDDDD" height="66.8281" id="_legend" rx="7.5" ry="7.5" style="stroke:#000000;stroke-width:1.0;" width="99" x="1966" y="1002.6094"/><rect fill="#F6CACA" height="17.6094" style="stroke:none;stroke-width:1.0;" width="89" x="1971" y="1009.6094"/><text fill="#000000" font-family="sans-serif" font-size="14" lengthAdjust="spacing" textLength="66" x="1975" y="1024.1426">Aggregate</text><rect fill="#DDEBFF" height="17.6094" style="stroke:none;stroke-width:1.0;" width="89" x="1971" y="1027.2188"/><text fill="#000000" font-family="sans-serif" font-size="14" lengthAdjust="spacing" textLength="35" x="1975" y="1041.752">Entity</text><rect fill="#FFF2B3" height="17.6094" style="stroke:none;stroke-width:1.0;" width="89" x="1971" y="1044.8281"/><text fill="#000000" font-family="sans-serif" font-size="14" lengthAdjust="spacing" textLength="81" x="1975" y="1059.3613">Value Object</text><line style="stroke:#000000;stroke-width:1.0;" x1="1971" x2="2060" y1="1009.6094" y2="1009.6094"/><line style="stroke:#000000;stroke-width:1.0;" x1="1971" x2="2060" y1="1027.2188" y2="1027.2188"/><line style="stroke:#000000;stroke-width:1.0;" x1="1971" x2="2060" y1="1044.8281" y2="1044.8281"/><line style="stroke:#000000;stroke-width:1.0;" x1="1971" x2="2060" y1="1062.4375" y2="1062.4375"/><line style="stroke:#000000;stroke-width:1.0;" x1="1971" x2="1971" y1="1009.6094" y2="1062.4375"/><line style="stroke:#000000;stroke-width:1.0;" x1="2060" x2="2060" y1="1009.6094" y2="1062.4375"/><!--SRC=[ZPPHRziu383V_Ik4xALRrs6x0NT0K0Hmd0G8hak3PklJNXYRTRJQaY79QRFh_ljHLXBBZkCM0PAOfAYFf4ZPS9CXk-S6CWxiYaKPQCqc7585EJsl3AJ8ljA_UOB2SBDZ818ouuB7B9B2uBCXxSKAO5MfmZX6hTy7WP45CvAjfJ4oPmbN61ikHH3eHouAiFvZkrjeZEBhqk0ybcB5VoFxx9de3IJoYOkKFK2cqTCG0ffTWKmgiv6Uee3uaQXNPaUXsLr1f1a6GOOf4g3YwSO4BzVlPdz7OHIEM9Yc2bCmo5wiU3APZcUp4PkwS2lPR3RxQ_nrnEuXAv7Thd-HLzAGE-Sq2FQRii6NJtsf-YbECZLWxsR_s0_xBs0k9OT5rzTmO1kDs1wuCcFiYYVEQiXkf4YTpC3pF1bIrHG_Y0WGiWNas1GR1GcUYhK1K-hX7c1LFLMQIw3gRGdaulsGRILFd5INkg3uFU6Vu1Z5M868DnI5IuSDmIMt3i6P-2684oP84aM9QWgBZHHDkykoI8XlWWPufjj4iDOKCbNDeVtGg5vBhxNnoHwuqiQch8L23hl4c1F7Qz37XDlD_7Hhdegvk6Wu-KX7M-idgOubRjQ2bjoMfhiMhg1XajEFpOIHghSm7VP-BZ0lChb3Z6JIga8EWlh0XgERHsNByMa2UhEMeCuSc8cCN-Do9ZvAZWcF8RlXCGgDYp9Vsx8rSbnWp24pkoQf1Lh56qpAh7MgQMXGagSYbYLrhUg6zNB3jpHjuE6Xbxp3_cqPrNl6i2Wa5oQdBRfmbx1hgJpOvGPK3Z5jtyjOcxqDpQPmISqPArxOuTugUSBjTD3uhIgHDJX3Hpg2waTpDirHOLr2rXvvQqutmeIwUiZiz_afShcMyl5iMcrmTrLg-rhg6ze3fpUyU4C_rSP-7BzeVqn2ut2_y_o0R4Sk1J6MCaCG-pciRP_VaUH2qTUGsR-jux2LZ-XkbsvokwINzgxot3UKaxheNLDuYIhdHDey4dx9ZmRzLJ-Q-JXn-o2Unq41wqPxUmpLpCNN8JmxdmAg34SAg-iUifF1hanz2EkgudD1xqBwfDoNJj56HL7cZUjupnL6t-Vtq-hlwiTgELrCffFgAGeNqVIcUgWTrDVBwVBvmdiOtzn6_zQBtJtvSdNLTO4qz6umDqGT4w-XhwTDK-mwdMJxrw31bm7xG0fwj_hqOR1_hUXGVwxKxKux-BPclLOd_UnMZAfVsn5aKtLEqrDzHBjtyavFpMpTDeewPFfm-rS-h85NjAFwJ_0_]--></g></svg>