<?xml version="1.0" encoding="us-ascii" standalone="no"?><svg xmlns="http://www.w3.org/2000/svg" xmlns:xlink="http://www.w3.org/1999/xlink" contentStyleType="text/css" height="1331px" preserveAspectRatio="none" style="width:1695px;height:1331px;background:#FFFFFF;" version="1.1" viewBox="0 0 1695 1331" width="1695px" zoomAndPan="magnify"><defs/><g><text fill="#000000" font-family="sans-serif" font-size="14" font-weight="bold" lengthAdjust="spacing" textLength="633" x="524" y="24.5332">Vitalia - Class Diagram - Stage 3 - Clinical Context - (Electronic Medical Record - EMR Core)</text><!--cluster 2--><g id="cluster_2"><rect fill="none" height="1182" rx="2.5" ry="2.5" style="stroke:#000000;stroke-width:1.5;" width="1682" x="7" y="45.6094"/><text fill="#000000" font-family="sans-serif" font-size="14" font-weight="bold" lengthAdjust="spacing" textLength="8" x="844" y="62.1426">2</text></g><!--cluster  Clinical Context\n(Electronic Medical Record - EMR Core)--><g id="cluster_ Clinical Context\n(Electronic Medical Record - EMR Core)"><rect fill="#ECECEC" height="1114" rx="2.5" ry="2.5" style="stroke:#000000;stroke-width:1.5;" width="1634" x="31" y="89.6094"/><text fill="#000000" font-family="sans-serif" font-size="14" font-weight="bold" lengthAdjust="spacing" textLength="110" x="795" y="106.1426">Clinical Context</text><text fill="#000000" font-family="sans-serif" font-size="14" font-weight="bold" lengthAdjust="spacing" textLength="278" x="709" y="123.752">(Electronic Medical Record - EMR Core)</text></g><!--class ClinicalPatientId--><g id="elem_ClinicalPatientId"><rect codeLine="17" fill="#FFF2B3" height="76.3125" id="ClinicalPatientId" rx="2.5" ry="2.5" style="stroke:#181818;stroke-width:0.5;" width="112" x="384" y="438.6094"/><ellipse cx="400.8" cy="459.9609" fill="#ADD1B2" rx="11" ry="11" style="stroke:#181818;stroke-width:1.0;"/><path d="M403.5656,455.8359 Q403.7219,455.6172 403.9094,455.5078 Q404.0969,455.3984 404.3156,455.3984 Q404.6906,455.3984 404.925,455.6641 Q405.1594,455.9141 405.1594,456.5234 L405.1594,457.9766 Q405.1594,458.5859 404.925,458.8516 Q404.6906,459.1172 404.3156,459.1172 Q403.9719,459.1172 403.7688,458.9141 Q403.5656,458.7266 403.4563,458.2109 Q403.4094,457.8516 403.2219,457.6641 Q402.8938,457.2891 402.2844,457.0703 Q401.675,456.8516 401.05,456.8516 Q400.2844,456.8516 399.6438,457.1797 Q399.0188,457.5078 398.5188,458.2578 Q398.0344,459.0078 398.0344,460.0391 L398.0344,461.1328 Q398.0344,462.3672 398.925,463.1953 Q399.8156,464.0078 401.4094,464.0078 Q402.3469,464.0078 403.0031,463.7578 Q403.3938,463.6016 403.8156,463.1641 Q404.0813,462.8984 404.2219,462.8203 Q404.3781,462.7422 404.5813,462.7422 Q404.9094,462.7422 405.1594,463.0078 Q405.425,463.2578 405.425,463.6016 Q405.425,463.9453 405.0813,464.3516 Q404.5813,464.9297 403.7844,465.2578 Q402.7063,465.7109 401.4094,465.7109 Q399.8938,465.7109 398.6906,465.0859 Q397.7063,464.5859 397.0188,463.5234 Q396.3313,462.4453 396.3313,461.1641 L396.3313,460.0078 Q396.3313,458.6797 396.9406,457.5391 Q397.5656,456.3828 398.6594,455.7734 Q399.7531,455.1484 400.9875,455.1484 Q401.7219,455.1484 402.3625,455.3203 Q403.0188,455.4766 403.5656,455.8359 Z " fill="#000000"/><text fill="#000000" font-family="sans-serif" font-size="12" font-style="italic" lengthAdjust="spacing" textLength="80" x="413.2" y="456.0664">&#171;valueObject&#187;</text><text fill="#000000" font-family="sans-serif" font-size="14" lengthAdjust="spacing" textLength="55" x="425.7" y="473.2363">PatientId</text><line style="stroke:#181818;stroke-width:0.5;" x1="385" x2="495" y1="481.3125" y2="481.3125"/><text fill="#000000" font-family="sans-serif" font-size="14" lengthAdjust="spacing" textLength="100" x="390" y="499.8457">-idPatient: Long</text><line style="stroke:#181818;stroke-width:0.5;" x1="385" x2="495" y1="506.9219" y2="506.9219"/></g><!--class ClinicalDoctorId--><g id="elem_ClinicalDoctorId"><rect codeLine="21" fill="#FFF2B3" height="76.3125" id="ClinicalDoctorId" rx="2.5" ry="2.5" style="stroke:#181818;stroke-width:0.5;" width="110" x="238" y="680.6094"/><ellipse cx="253.9" cy="701.9609" fill="#ADD1B2" rx="11" ry="11" style="stroke:#181818;stroke-width:1.0;"/><path d="M256.6656,697.8359 Q256.8219,697.6172 257.0094,697.5078 Q257.1969,697.3984 257.4156,697.3984 Q257.7906,697.3984 258.025,697.6641 Q258.2594,697.9141 258.2594,698.5234 L258.2594,699.9766 Q258.2594,700.5859 258.025,700.8516 Q257.7906,701.1172 257.4156,701.1172 Q257.0719,701.1172 256.8688,700.9141 Q256.6656,700.7266 256.5563,700.2109 Q256.5094,699.8516 256.3219,699.6641 Q255.9938,699.2891 255.3844,699.0703 Q254.775,698.8516 254.15,698.8516 Q253.3844,698.8516 252.7438,699.1797 Q252.1188,699.5078 251.6188,700.2578 Q251.1344,701.0078 251.1344,702.0391 L251.1344,703.1328 Q251.1344,704.3672 252.025,705.1953 Q252.9156,706.0078 254.5094,706.0078 Q255.4469,706.0078 256.1031,705.7578 Q256.4938,705.6016 256.9156,705.1641 Q257.1813,704.8984 257.3219,704.8203 Q257.4781,704.7422 257.6813,704.7422 Q258.0094,704.7422 258.2594,705.0078 Q258.525,705.2578 258.525,705.6016 Q258.525,705.9453 258.1813,706.3516 Q257.6813,706.9297 256.8844,707.2578 Q255.8063,707.7109 254.5094,707.7109 Q252.9938,707.7109 251.7906,707.0859 Q250.8063,706.5859 250.1188,705.5234 Q249.4313,704.4453 249.4313,703.1641 L249.4313,702.0078 Q249.4313,700.6797 250.0406,699.5391 Q250.6656,698.3828 251.7594,697.7734 Q252.8531,697.1484 254.0875,697.1484 Q254.8219,697.1484 255.4625,697.3203 Q256.1188,697.4766 256.6656,697.8359 Z " fill="#000000"/><text fill="#000000" font-family="sans-serif" font-size="12" font-style="italic" lengthAdjust="spacing" textLength="80" x="266.1" y="698.0664">&#171;valueObject&#187;</text><text fill="#000000" font-family="sans-serif" font-size="14" lengthAdjust="spacing" textLength="53" x="279.6" y="715.2363">DoctorId</text><line style="stroke:#181818;stroke-width:0.5;" x1="239" x2="347" y1="723.3125" y2="723.3125"/><text fill="#000000" font-family="sans-serif" font-size="14" lengthAdjust="spacing" textLength="98" x="244" y="741.8457">-idDoctor: Long</text><line style="stroke:#181818;stroke-width:0.5;" x1="239" x2="347" y1="748.9219" y2="748.9219"/></g><!--class ClinicalAppointmentId--><g id="elem_ClinicalAppointmentId"><rect codeLine="25" fill="#FFF2B3" height="76.3125" id="ClinicalAppointmentId" rx="2.5" ry="2.5" style="stroke:#181818;stroke-width:0.5;" width="147" x="383.5" y="680.6094"/><ellipse cx="409.75" cy="701.9609" fill="#ADD1B2" rx="11" ry="11" style="stroke:#181818;stroke-width:1.0;"/><path d="M412.5156,697.8359 Q412.6719,697.6172 412.8594,697.5078 Q413.0469,697.3984 413.2656,697.3984 Q413.6406,697.3984 413.875,697.6641 Q414.1094,697.9141 414.1094,698.5234 L414.1094,699.9766 Q414.1094,700.5859 413.875,700.8516 Q413.6406,701.1172 413.2656,701.1172 Q412.9219,701.1172 412.7188,700.9141 Q412.5156,700.7266 412.4063,700.2109 Q412.3594,699.8516 412.1719,699.6641 Q411.8438,699.2891 411.2344,699.0703 Q410.625,698.8516 410,698.8516 Q409.2344,698.8516 408.5938,699.1797 Q407.9688,699.5078 407.4688,700.2578 Q406.9844,701.0078 406.9844,702.0391 L406.9844,703.1328 Q406.9844,704.3672 407.875,705.1953 Q408.7656,706.0078 410.3594,706.0078 Q411.2969,706.0078 411.9531,705.7578 Q412.3438,705.6016 412.7656,705.1641 Q413.0313,704.8984 413.1719,704.8203 Q413.3281,704.7422 413.5313,704.7422 Q413.8594,704.7422 414.1094,705.0078 Q414.375,705.2578 414.375,705.6016 Q414.375,705.9453 414.0313,706.3516 Q413.5313,706.9297 412.7344,707.2578 Q411.6563,707.7109 410.3594,707.7109 Q408.8438,707.7109 407.6406,707.0859 Q406.6563,706.5859 405.9688,705.5234 Q405.2813,704.4453 405.2813,703.1641 L405.2813,702.0078 Q405.2813,700.6797 405.8906,699.5391 Q406.5156,698.3828 407.6094,697.7734 Q408.7031,697.1484 409.9375,697.1484 Q410.6719,697.1484 411.3125,697.3203 Q411.9688,697.4766 412.5156,697.8359 Z " fill="#000000"/><text fill="#000000" font-family="sans-serif" font-size="12" font-style="italic" lengthAdjust="spacing" textLength="80" x="431.25" y="698.0664">&#171;valueObject&#187;</text><text fill="#000000" font-family="sans-serif" font-size="14" lengthAdjust="spacing" textLength="90" x="426.25" y="715.2363">AppointmentId</text><line style="stroke:#181818;stroke-width:0.5;" x1="384.5" x2="529.5" y1="723.3125" y2="723.3125"/><text fill="#000000" font-family="sans-serif" font-size="14" lengthAdjust="spacing" textLength="135" x="389.5" y="741.8457">-idAppointment: Long</text><line style="stroke:#181818;stroke-width:0.5;" x1="384.5" x2="529.5" y1="748.9219" y2="748.9219"/></g><!--class ClinicalMedicationId--><g id="elem_ClinicalMedicationId"><rect codeLine="29" fill="#FFF2B3" height="76.3125" id="ClinicalMedicationId" rx="2.5" ry="2.5" style="stroke:#181818;stroke-width:0.5;" width="136" x="1213" y="1111.6094"/><ellipse cx="1239.25" cy="1132.9609" fill="#ADD1B2" rx="11" ry="11" style="stroke:#181818;stroke-width:1.0;"/><path d="M1242.0156,1128.8359 Q1242.1719,1128.6172 1242.3594,1128.5078 Q1242.5469,1128.3984 1242.7656,1128.3984 Q1243.1406,1128.3984 1243.375,1128.6641 Q1243.6094,1128.9141 1243.6094,1129.5234 L1243.6094,1130.9766 Q1243.6094,1131.5859 1243.375,1131.8516 Q1243.1406,1132.1172 1242.7656,1132.1172 Q1242.4219,1132.1172 1242.2188,1131.9141 Q1242.0156,1131.7266 1241.9063,1131.2109 Q1241.8594,1130.8516 1241.6719,1130.6641 Q1241.3438,1130.2891 1240.7344,1130.0703 Q1240.125,1129.8516 1239.5,1129.8516 Q1238.7344,1129.8516 1238.0938,1130.1797 Q1237.4688,1130.5078 1236.9688,1131.2578 Q1236.4844,1132.0078 1236.4844,1133.0391 L1236.4844,1134.1328 Q1236.4844,1135.3672 1237.375,1136.1953 Q1238.2656,1137.0078 1239.8594,1137.0078 Q1240.7969,1137.0078 1241.4531,1136.7578 Q1241.8438,1136.6016 1242.2656,1136.1641 Q1242.5313,1135.8984 1242.6719,1135.8203 Q1242.8281,1135.7422 1243.0313,1135.7422 Q1243.3594,1135.7422 1243.6094,1136.0078 Q1243.875,1136.2578 1243.875,1136.6016 Q1243.875,1136.9453 1243.5313,1137.3516 Q1243.0313,1137.9297 1242.2344,1138.2578 Q1241.1563,1138.7109 1239.8594,1138.7109 Q1238.3438,1138.7109 1237.1406,1138.0859 Q1236.1563,1137.5859 1235.4688,1136.5234 Q1234.7813,1135.4453 1234.7813,1134.1641 L1234.7813,1133.0078 Q1234.7813,1131.6797 1235.3906,1130.5391 Q1236.0156,1129.3828 1237.1094,1128.7734 Q1238.2031,1128.1484 1239.4375,1128.1484 Q1240.1719,1128.1484 1240.8125,1128.3203 Q1241.4688,1128.4766 1242.0156,1128.8359 Z " fill="#000000"/><text fill="#000000" font-family="sans-serif" font-size="12" font-style="italic" lengthAdjust="spacing" textLength="80" x="1255.25" y="1129.0664">&#171;valueObject&#187;</text><text fill="#000000" font-family="sans-serif" font-size="14" lengthAdjust="spacing" textLength="79" x="1255.75" y="1146.2363">MedicationId</text><line style="stroke:#181818;stroke-width:0.5;" x1="1214" x2="1348" y1="1154.3125" y2="1154.3125"/><text fill="#000000" font-family="sans-serif" font-size="14" lengthAdjust="spacing" textLength="124" x="1219" y="1172.8457">-idMedication: Long</text><line style="stroke:#181818;stroke-width:0.5;" x1="1214" x2="1348" y1="1179.9219" y2="1179.9219"/></g><!--class MedicalRecord--><g id="elem_MedicalRecord"><rect codeLine="33" fill="#F6CACA" height="181.9688" id="MedicalRecord" rx="2.5" ry="2.5" style="stroke:#181818;stroke-width:0.5;" width="290" x="589" y="143.6094"/><ellipse cx="682.75" cy="164.9609" fill="#ADD1B2" rx="11" ry="11" style="stroke:#181818;stroke-width:1.0;"/><path d="M685.5156,160.8359 Q685.6719,160.6172 685.8594,160.5078 Q686.0469,160.3984 686.2656,160.3984 Q686.6406,160.3984 686.875,160.6641 Q687.1094,160.9141 687.1094,161.5234 L687.1094,162.9766 Q687.1094,163.5859 686.875,163.8516 Q686.6406,164.1172 686.2656,164.1172 Q685.9219,164.1172 685.7188,163.9141 Q685.5156,163.7266 685.4063,163.2109 Q685.3594,162.8516 685.1719,162.6641 Q684.8438,162.2891 684.2344,162.0703 Q683.625,161.8516 683,161.8516 Q682.2344,161.8516 681.5938,162.1797 Q680.9688,162.5078 680.4688,163.2578 Q679.9844,164.0078 679.9844,165.0391 L679.9844,166.1328 Q679.9844,167.3672 680.875,168.1953 Q681.7656,169.0078 683.3594,169.0078 Q684.2969,169.0078 684.9531,168.7578 Q685.3438,168.6016 685.7656,168.1641 Q686.0313,167.8984 686.1719,167.8203 Q686.3281,167.7422 686.5313,167.7422 Q686.8594,167.7422 687.1094,168.0078 Q687.375,168.2578 687.375,168.6016 Q687.375,168.9453 687.0313,169.3516 Q686.5313,169.9297 685.7344,170.2578 Q684.6563,170.7109 683.3594,170.7109 Q681.8438,170.7109 680.6406,170.0859 Q679.6563,169.5859 678.9688,168.5234 Q678.2813,167.4453 678.2813,166.1641 L678.2813,165.0078 Q678.2813,163.6797 678.8906,162.5391 Q679.5156,161.3828 680.6094,160.7734 Q681.7031,160.1484 682.9375,160.1484 Q683.6719,160.1484 684.3125,160.3203 Q684.9688,160.4766 685.5156,160.8359 Z " fill="#000000"/><text fill="#000000" font-family="sans-serif" font-size="12" font-style="italic" lengthAdjust="spacing" textLength="70" x="715.25" y="161.0664">&#171;aggregate&#187;</text><text fill="#000000" font-family="sans-serif" font-size="14" lengthAdjust="spacing" textLength="94" x="703.25" y="178.2363">MedicalRecord</text><line style="stroke:#181818;stroke-width:0.5;" x1="590" x2="878" y1="186.3125" y2="186.3125"/><text fill="#000000" font-family="sans-serif" font-size="14" lengthAdjust="spacing" textLength="150" x="595" y="204.8457">-idMedicalRecord: Long</text><text fill="#000000" font-family="sans-serif" font-size="14" lengthAdjust="spacing" textLength="140" x="595" y="222.4551">-recordNumber: String</text><text fill="#000000" font-family="sans-serif" font-size="14" lengthAdjust="spacing" textLength="135" x="595" y="240.0645">-openedAt: DateTime</text><text fill="#000000" font-family="sans-serif" font-size="14" lengthAdjust="spacing" textLength="185" x="595" y="257.6738">-status: MedicalRecordStatus</text><line style="stroke:#181818;stroke-width:0.5;" x1="590" x2="878" y1="264.75" y2="264.75"/><text fill="#000000" font-family="sans-serif" font-size="14" lengthAdjust="spacing" textLength="84" x="595" y="283.2832">+open(): void</text><text fill="#000000" font-family="sans-serif" font-size="14" lengthAdjust="spacing" textLength="168" x="595" y="300.8926">+generateSummary(): void</text><text fill="#000000" font-family="sans-serif" font-size="14" lengthAdjust="spacing" textLength="278" x="595" y="318.502">+addEncounter(encounter: Encounter): void</text></g><!--class MedicalHistoryEntry--><g id="elem_MedicalHistoryEntry"><rect codeLine="43" fill="#DDEBFF" height="146.75" id="MedicalHistoryEntry" rx="2.5" ry="2.5" style="stroke:#181818;stroke-width:0.5;" width="192" x="531" y="403.1094"/><ellipse cx="562.2" cy="424.4609" fill="#ADD1B2" rx="11" ry="11" style="stroke:#181818;stroke-width:1.0;"/><path d="M564.9656,420.3359 Q565.1219,420.1172 565.3094,420.0078 Q565.4969,419.8984 565.7156,419.8984 Q566.0906,419.8984 566.325,420.1641 Q566.5594,420.4141 566.5594,421.0234 L566.5594,422.4766 Q566.5594,423.0859 566.325,423.3516 Q566.0906,423.6172 565.7156,423.6172 Q565.3719,423.6172 565.1688,423.4141 Q564.9656,423.2266 564.8563,422.7109 Q564.8094,422.3516 564.6219,422.1641 Q564.2938,421.7891 563.6844,421.5703 Q563.075,421.3516 562.45,421.3516 Q561.6844,421.3516 561.0438,421.6797 Q560.4188,422.0078 559.9188,422.7578 Q559.4344,423.5078 559.4344,424.5391 L559.4344,425.6328 Q559.4344,426.8672 560.325,427.6953 Q561.2156,428.5078 562.8094,428.5078 Q563.7469,428.5078 564.4031,428.2578 Q564.7938,428.1016 565.2156,427.6641 Q565.4813,427.3984 565.6219,427.3203 Q565.7781,427.2422 565.9813,427.2422 Q566.3094,427.2422 566.5594,427.5078 Q566.825,427.7578 566.825,428.1016 Q566.825,428.4453 566.4813,428.8516 Q565.9813,429.4297 565.1844,429.7578 Q564.1063,430.2109 562.8094,430.2109 Q561.2938,430.2109 560.0906,429.5859 Q559.1063,429.0859 558.4188,428.0234 Q557.7313,426.9453 557.7313,425.6641 L557.7313,424.5078 Q557.7313,423.1797 558.3406,422.0391 Q558.9656,420.8828 560.0594,420.2734 Q561.1531,419.6484 562.3875,419.6484 Q563.1219,419.6484 563.7625,419.8203 Q564.4188,419.9766 564.9656,420.3359 Z " fill="#000000"/><text fill="#000000" font-family="sans-serif" font-size="12" font-style="italic" lengthAdjust="spacing" textLength="43" x="620.3" y="420.5664">&#171;entity&#187;</text><text fill="#000000" font-family="sans-serif" font-size="14" lengthAdjust="spacing" textLength="124" x="579.8" y="437.7363">MedicalHistoryEntry</text><line style="stroke:#181818;stroke-width:0.5;" x1="532" x2="722" y1="445.8125" y2="445.8125"/><text fill="#000000" font-family="sans-serif" font-size="14" lengthAdjust="spacing" textLength="180" x="537" y="464.3457">-idMedicalHistoryEntry: Long</text><text fill="#000000" font-family="sans-serif" font-size="14" lengthAdjust="spacing" textLength="163" x="537" y="481.9551">-type: MedicalHistoryType</text><text fill="#000000" font-family="sans-serif" font-size="14" lengthAdjust="spacing" textLength="119" x="537" y="499.5645">-description: String</text><text fill="#000000" font-family="sans-serif" font-size="14" lengthAdjust="spacing" textLength="144" x="537" y="517.1738">-recordedAt: DateTime</text><line style="stroke:#181818;stroke-width:0.5;" x1="532" x2="722" y1="524.25" y2="524.25"/><text fill="#000000" font-family="sans-serif" font-size="14" lengthAdjust="spacing" textLength="93" x="537" y="542.7832">+record(): void</text></g><!--class Encounter--><g id="elem_Encounter"><rect codeLine="51" fill="#F6CACA" height="181.9688" id="Encounter" rx="2.5" ry="2.5" style="stroke:#181818;stroke-width:0.5;" width="168" x="758" y="385.6094"/><ellipse cx="804.75" cy="406.9609" fill="#ADD1B2" rx="11" ry="11" style="stroke:#181818;stroke-width:1.0;"/><path d="M807.5156,402.8359 Q807.6719,402.6172 807.8594,402.5078 Q808.0469,402.3984 808.2656,402.3984 Q808.6406,402.3984 808.875,402.6641 Q809.1094,402.9141 809.1094,403.5234 L809.1094,404.9766 Q809.1094,405.5859 808.875,405.8516 Q808.6406,406.1172 808.2656,406.1172 Q807.9219,406.1172 807.7188,405.9141 Q807.5156,405.7266 807.4063,405.2109 Q807.3594,404.8516 807.1719,404.6641 Q806.8438,404.2891 806.2344,404.0703 Q805.625,403.8516 805,403.8516 Q804.2344,403.8516 803.5938,404.1797 Q802.9688,404.5078 802.4688,405.2578 Q801.9844,406.0078 801.9844,407.0391 L801.9844,408.1328 Q801.9844,409.3672 802.875,410.1953 Q803.7656,411.0078 805.3594,411.0078 Q806.2969,411.0078 806.9531,410.7578 Q807.3438,410.6016 807.7656,410.1641 Q808.0313,409.8984 808.1719,409.8203 Q808.3281,409.7422 808.5313,409.7422 Q808.8594,409.7422 809.1094,410.0078 Q809.375,410.2578 809.375,410.6016 Q809.375,410.9453 809.0313,411.3516 Q808.5313,411.9297 807.7344,412.2578 Q806.6563,412.7109 805.3594,412.7109 Q803.8438,412.7109 802.6406,412.0859 Q801.6563,411.5859 800.9688,410.5234 Q800.2813,409.4453 800.2813,408.1641 L800.2813,407.0078 Q800.2813,405.6797 800.8906,404.5391 Q801.5156,403.3828 802.6094,402.7734 Q803.7031,402.1484 804.9375,402.1484 Q805.6719,402.1484 806.3125,402.3203 Q806.9688,402.4766 807.5156,402.8359 Z " fill="#000000"/><text fill="#000000" font-family="sans-serif" font-size="12" font-style="italic" lengthAdjust="spacing" textLength="70" x="823.25" y="403.0664">&#171;aggregate&#187;</text><text fill="#000000" font-family="sans-serif" font-size="14" lengthAdjust="spacing" textLength="65" x="825.75" y="420.2363">Encounter</text><line style="stroke:#181818;stroke-width:0.5;" x1="759" x2="925" y1="428.3125" y2="428.3125"/><text fill="#000000" font-family="sans-serif" font-size="14" lengthAdjust="spacing" textLength="121" x="764" y="446.8457">-idEncounter: Long</text><text fill="#000000" font-family="sans-serif" font-size="14" lengthAdjust="spacing" textLength="132" x="764" y="464.4551">-startDate: DateTime</text><text fill="#000000" font-family="sans-serif" font-size="14" lengthAdjust="spacing" textLength="128" x="764" y="482.0645">-closedAt: DateTime</text><text fill="#000000" font-family="sans-serif" font-size="14" lengthAdjust="spacing" textLength="123" x="764" y="499.6738">-visitReason: String</text><text fill="#000000" font-family="sans-serif" font-size="14" lengthAdjust="spacing" textLength="156" x="764" y="517.2832">-status: EncounterStatus</text><line style="stroke:#181818;stroke-width:0.5;" x1="759" x2="925" y1="524.3594" y2="524.3594"/><text fill="#000000" font-family="sans-serif" font-size="14" lengthAdjust="spacing" textLength="113" x="764" y="542.8926">+saveDraft(): void</text><text fill="#000000" font-family="sans-serif" font-size="14" lengthAdjust="spacing" textLength="150" x="764" y="560.502">+closeEncounter(): void</text></g><!--class Triage--><g id="elem_Triage"><rect codeLine="61" fill="#DDEBFF" height="129.1406" id="Triage" rx="2.5" ry="2.5" style="stroke:#181818;stroke-width:0.5;" width="297" x="565.5" y="654.1094"/><ellipse cx="689.25" cy="675.4609" fill="#ADD1B2" rx="11" ry="11" style="stroke:#181818;stroke-width:1.0;"/><path d="M692.0156,671.3359 Q692.1719,671.1172 692.3594,671.0078 Q692.5469,670.8984 692.7656,670.8984 Q693.1406,670.8984 693.375,671.1641 Q693.6094,671.4141 693.6094,672.0234 L693.6094,673.4766 Q693.6094,674.0859 693.375,674.3516 Q693.1406,674.6172 692.7656,674.6172 Q692.4219,674.6172 692.2188,674.4141 Q692.0156,674.2266 691.9063,673.7109 Q691.8594,673.3516 691.6719,673.1641 Q691.3438,672.7891 690.7344,672.5703 Q690.125,672.3516 689.5,672.3516 Q688.7344,672.3516 688.0938,672.6797 Q687.4688,673.0078 686.9688,673.7578 Q686.4844,674.5078 686.4844,675.5391 L686.4844,676.6328 Q686.4844,677.8672 687.375,678.6953 Q688.2656,679.5078 689.8594,679.5078 Q690.7969,679.5078 691.4531,679.2578 Q691.8438,679.1016 692.2656,678.6641 Q692.5313,678.3984 692.6719,678.3203 Q692.8281,678.2422 693.0313,678.2422 Q693.3594,678.2422 693.6094,678.5078 Q693.875,678.7578 693.875,679.1016 Q693.875,679.4453 693.5313,679.8516 Q693.0313,680.4297 692.2344,680.7578 Q691.1563,681.2109 689.8594,681.2109 Q688.3438,681.2109 687.1406,680.5859 Q686.1563,680.0859 685.4688,679.0234 Q684.7813,677.9453 684.7813,676.6641 L684.7813,675.5078 Q684.7813,674.1797 685.3906,673.0391 Q686.0156,671.8828 687.1094,671.2734 Q688.2031,670.6484 689.4375,670.6484 Q690.1719,670.6484 690.8125,670.8203 Q691.4688,670.9766 692.0156,671.3359 Z " fill="#000000"/><text fill="#000000" font-family="sans-serif" font-size="12" font-style="italic" lengthAdjust="spacing" textLength="43" x="708.75" y="671.5664">&#171;entity&#187;</text><text fill="#000000" font-family="sans-serif" font-size="14" lengthAdjust="spacing" textLength="41" x="709.75" y="688.7363">Triage</text><line style="stroke:#181818;stroke-width:0.5;" x1="566.5" x2="861.5" y1="696.8125" y2="696.8125"/><text fill="#000000" font-family="sans-serif" font-size="14" lengthAdjust="spacing" textLength="97" x="571.5" y="715.3457">-idTriage: Long</text><text fill="#000000" font-family="sans-serif" font-size="14" lengthAdjust="spacing" textLength="102" x="571.5" y="732.9551">-date: DateTime</text><text fill="#000000" font-family="sans-serif" font-size="14" lengthAdjust="spacing" textLength="131" x="571.5" y="750.5645">-observations: String</text><line style="stroke:#181818;stroke-width:0.5;" x1="566.5" x2="861.5" y1="757.6406" y2="757.6406"/><text fill="#000000" font-family="sans-serif" font-size="14" lengthAdjust="spacing" textLength="285" x="571.5" y="776.1738">+recordVitalSigns(vitalSigns: VitalSigns): void</text></g><!--class VitalSigns--><g id="elem_VitalSigns"><rect codeLine="68" fill="#FFF2B3" height="181.9688" id="VitalSigns" rx="2.5" ry="2.5" style="stroke:#181818;stroke-width:0.5;" width="185" x="621.5" y="869.6094"/><ellipse cx="671.75" cy="890.9609" fill="#ADD1B2" rx="11" ry="11" style="stroke:#181818;stroke-width:1.0;"/><path d="M674.5156,886.8359 Q674.6719,886.6172 674.8594,886.5078 Q675.0469,886.3984 675.2656,886.3984 Q675.6406,886.3984 675.875,886.6641 Q676.1094,886.9141 676.1094,887.5234 L676.1094,888.9766 Q676.1094,889.5859 675.875,889.8516 Q675.6406,890.1172 675.2656,890.1172 Q674.9219,890.1172 674.7188,889.9141 Q674.5156,889.7266 674.4063,889.2109 Q674.3594,888.8516 674.1719,888.6641 Q673.8438,888.2891 673.2344,888.0703 Q672.625,887.8516 672,887.8516 Q671.2344,887.8516 670.5938,888.1797 Q669.9688,888.5078 669.4688,889.2578 Q668.9844,890.0078 668.9844,891.0391 L668.9844,892.1328 Q668.9844,893.3672 669.875,894.1953 Q670.7656,895.0078 672.3594,895.0078 Q673.2969,895.0078 673.9531,894.7578 Q674.3438,894.6016 674.7656,894.1641 Q675.0313,893.8984 675.1719,893.8203 Q675.3281,893.7422 675.5313,893.7422 Q675.8594,893.7422 676.1094,894.0078 Q676.375,894.2578 676.375,894.6016 Q676.375,894.9453 676.0313,895.3516 Q675.5313,895.9297 674.7344,896.2578 Q673.6563,896.7109 672.3594,896.7109 Q670.8438,896.7109 669.6406,896.0859 Q668.6563,895.5859 667.9688,894.5234 Q667.2813,893.4453 667.2813,892.1641 L667.2813,891.0078 Q667.2813,889.6797 667.8906,888.5391 Q668.5156,887.3828 669.6094,886.7734 Q670.7031,886.1484 671.9375,886.1484 Q672.6719,886.1484 673.3125,886.3203 Q673.9688,886.4766 674.5156,886.8359 Z " fill="#000000"/><text fill="#000000" font-family="sans-serif" font-size="12" font-style="italic" lengthAdjust="spacing" textLength="80" x="690.25" y="887.0664">&#171;valueObject&#187;</text><text fill="#000000" font-family="sans-serif" font-size="14" lengthAdjust="spacing" textLength="62" x="699.25" y="904.2363">VitalSigns</text><line style="stroke:#181818;stroke-width:0.5;" x1="622.5" x2="805.5" y1="912.3125" y2="912.3125"/><text fill="#000000" font-family="sans-serif" font-size="14" lengthAdjust="spacing" textLength="118" x="627.5" y="930.8457">-idVitalSigns: Long</text><text fill="#000000" font-family="sans-serif" font-size="14" lengthAdjust="spacing" textLength="142" x="627.5" y="948.4551">-bloodPressure: String</text><text fill="#000000" font-family="sans-serif" font-size="14" lengthAdjust="spacing" textLength="140" x="627.5" y="966.0645">-temperature: Decimal</text><text fill="#000000" font-family="sans-serif" font-size="14" lengthAdjust="spacing" textLength="120" x="627.5" y="983.6738">-heartRate: Integer</text><text fill="#000000" font-family="sans-serif" font-size="14" lengthAdjust="spacing" textLength="155" x="627.5" y="1001.2832">-respiratoryRate: Integer</text><text fill="#000000" font-family="sans-serif" font-size="14" lengthAdjust="spacing" textLength="173" x="627.5" y="1018.8926">-oxygenSaturation: Decimal</text><line style="stroke:#181818;stroke-width:0.5;" x1="622.5" x2="805.5" y1="1025.9688" y2="1025.9688"/><text fill="#000000" font-family="sans-serif" font-size="14" lengthAdjust="spacing" textLength="96" x="627.5" y="1044.502">+update(): void</text></g><!--class Diagnosis--><g id="elem_Diagnosis"><rect codeLine="78" fill="#DDEBFF" height="146.75" id="Diagnosis" rx="2.5" ry="2.5" style="stroke:#181818;stroke-width:0.5;" width="146" x="898" y="645.1094"/><ellipse cx="936.4" cy="666.4609" fill="#ADD1B2" rx="11" ry="11" style="stroke:#181818;stroke-width:1.0;"/><path d="M939.1656,662.3359 Q939.3219,662.1172 939.5094,662.0078 Q939.6969,661.8984 939.9156,661.8984 Q940.2906,661.8984 940.525,662.1641 Q940.7594,662.4141 940.7594,663.0234 L940.7594,664.4766 Q940.7594,665.0859 940.525,665.3516 Q940.2906,665.6172 939.9156,665.6172 Q939.5719,665.6172 939.3688,665.4141 Q939.1656,665.2266 939.0563,664.7109 Q939.0094,664.3516 938.8219,664.1641 Q938.4938,663.7891 937.8844,663.5703 Q937.275,663.3516 936.65,663.3516 Q935.8844,663.3516 935.2438,663.6797 Q934.6188,664.0078 934.1188,664.7578 Q933.6344,665.5078 933.6344,666.5391 L933.6344,667.6328 Q933.6344,668.8672 934.525,669.6953 Q935.4156,670.5078 937.0094,670.5078 Q937.9469,670.5078 938.6031,670.2578 Q938.9938,670.1016 939.4156,669.6641 Q939.6813,669.3984 939.8219,669.3203 Q939.9781,669.2422 940.1813,669.2422 Q940.5094,669.2422 940.7594,669.5078 Q941.025,669.7578 941.025,670.1016 Q941.025,670.4453 940.6813,670.8516 Q940.1813,671.4297 939.3844,671.7578 Q938.3063,672.2109 937.0094,672.2109 Q935.4938,672.2109 934.2906,671.5859 Q933.3063,671.0859 932.6188,670.0234 Q931.9313,668.9453 931.9313,667.6641 L931.9313,666.5078 Q931.9313,665.1797 932.5406,664.0391 Q933.1656,662.8828 934.2594,662.2734 Q935.3531,661.6484 936.5875,661.6484 Q937.3219,661.6484 937.9625,661.8203 Q938.6188,661.9766 939.1656,662.3359 Z " fill="#000000"/><text fill="#000000" font-family="sans-serif" font-size="12" font-style="italic" lengthAdjust="spacing" textLength="43" x="965.1" y="662.5664">&#171;entity&#187;</text><text fill="#000000" font-family="sans-serif" font-size="14" lengthAdjust="spacing" textLength="62" x="955.6" y="679.7363">Diagnosis</text><line style="stroke:#181818;stroke-width:0.5;" x1="899" x2="1043" y1="687.8125" y2="687.8125"/><text fill="#000000" font-family="sans-serif" font-size="14" lengthAdjust="spacing" textLength="118" x="904" y="706.3457">-idDiagnosis: Long</text><text fill="#000000" font-family="sans-serif" font-size="14" lengthAdjust="spacing" textLength="102" x="904" y="723.9551">-icdCode: String</text><text fill="#000000" font-family="sans-serif" font-size="14" lengthAdjust="spacing" textLength="119" x="904" y="741.5645">-description: String</text><text fill="#000000" font-family="sans-serif" font-size="14" lengthAdjust="spacing" textLength="134" x="904" y="759.1738">-type: DiagnosisType</text><line style="stroke:#181818;stroke-width:0.5;" x1="899" x2="1043" y1="766.25" y2="766.25"/><text fill="#000000" font-family="sans-serif" font-size="14" lengthAdjust="spacing" textLength="93" x="904" y="784.7832">+record(): void</text></g><!--class TreatmentPlan--><g id="elem_TreatmentPlan"><rect codeLine="86" fill="#DDEBFF" height="129.1406" id="TreatmentPlan" rx="2.5" ry="2.5" style="stroke:#181818;stroke-width:0.5;" width="180" x="1079" y="654.1094"/><ellipse cx="1118.75" cy="675.4609" fill="#ADD1B2" rx="11" ry="11" style="stroke:#181818;stroke-width:1.0;"/><path d="M1121.5156,671.3359 Q1121.6719,671.1172 1121.8594,671.0078 Q1122.0469,670.8984 1122.2656,670.8984 Q1122.6406,670.8984 1122.875,671.1641 Q1123.1094,671.4141 1123.1094,672.0234 L1123.1094,673.4766 Q1123.1094,674.0859 1122.875,674.3516 Q1122.6406,674.6172 1122.2656,674.6172 Q1121.9219,674.6172 1121.7188,674.4141 Q1121.5156,674.2266 1121.4063,673.7109 Q1121.3594,673.3516 1121.1719,673.1641 Q1120.8438,672.7891 1120.2344,672.5703 Q1119.625,672.3516 1119,672.3516 Q1118.2344,672.3516 1117.5938,672.6797 Q1116.9688,673.0078 1116.4688,673.7578 Q1115.9844,674.5078 1115.9844,675.5391 L1115.9844,676.6328 Q1115.9844,677.8672 1116.875,678.6953 Q1117.7656,679.5078 1119.3594,679.5078 Q1120.2969,679.5078 1120.9531,679.2578 Q1121.3438,679.1016 1121.7656,678.6641 Q1122.0313,678.3984 1122.1719,678.3203 Q1122.3281,678.2422 1122.5313,678.2422 Q1122.8594,678.2422 1123.1094,678.5078 Q1123.375,678.7578 1123.375,679.1016 Q1123.375,679.4453 1123.0313,679.8516 Q1122.5313,680.4297 1121.7344,680.7578 Q1120.6563,681.2109 1119.3594,681.2109 Q1117.8438,681.2109 1116.6406,680.5859 Q1115.6563,680.0859 1114.9688,679.0234 Q1114.2813,677.9453 1114.2813,676.6641 L1114.2813,675.5078 Q1114.2813,674.1797 1114.8906,673.0391 Q1115.5156,671.8828 1116.6094,671.2734 Q1117.7031,670.6484 1118.9375,670.6484 Q1119.6719,670.6484 1120.3125,670.8203 Q1120.9688,670.9766 1121.5156,671.3359 Z " fill="#000000"/><text fill="#000000" font-family="sans-serif" font-size="12" font-style="italic" lengthAdjust="spacing" textLength="43" x="1163.25" y="671.5664">&#171;entity&#187;</text><text fill="#000000" font-family="sans-serif" font-size="14" lengthAdjust="spacing" textLength="93" x="1138.25" y="688.7363">TreatmentPlan</text><line style="stroke:#181818;stroke-width:0.5;" x1="1080" x2="1258" y1="696.8125" y2="696.8125"/><text fill="#000000" font-family="sans-serif" font-size="14" lengthAdjust="spacing" textLength="149" x="1085" y="715.3457">-idTreatmentPlan: Long</text><text fill="#000000" font-family="sans-serif" font-size="14" lengthAdjust="spacing" textLength="122" x="1085" y="732.9551">-instructions: String</text><text fill="#000000" font-family="sans-serif" font-size="14" lengthAdjust="spacing" textLength="125" x="1085" y="750.5645">-followUpDate: Date</text><line style="stroke:#181818;stroke-width:0.5;" x1="1080" x2="1258" y1="757.6406" y2="757.6406"/><text fill="#000000" font-family="sans-serif" font-size="14" lengthAdjust="spacing" textLength="168" x="1085" y="776.1738">+updateInstructions(): void</text></g><!--class Prescription--><g id="elem_Prescription"><rect codeLine="93" fill="#F6CACA" height="181.9688" id="Prescription" rx="2.5" ry="2.5" style="stroke:#181818;stroke-width:0.5;" width="182" x="1294" y="627.6094"/><ellipse cx="1343.25" cy="648.9609" fill="#ADD1B2" rx="11" ry="11" style="stroke:#181818;stroke-width:1.0;"/><path d="M1346.0156,644.8359 Q1346.1719,644.6172 1346.3594,644.5078 Q1346.5469,644.3984 1346.7656,644.3984 Q1347.1406,644.3984 1347.375,644.6641 Q1347.6094,644.9141 1347.6094,645.5234 L1347.6094,646.9766 Q1347.6094,647.5859 1347.375,647.8516 Q1347.1406,648.1172 1346.7656,648.1172 Q1346.4219,648.1172 1346.2188,647.9141 Q1346.0156,647.7266 1345.9063,647.2109 Q1345.8594,646.8516 1345.6719,646.6641 Q1345.3438,646.2891 1344.7344,646.0703 Q1344.125,645.8516 1343.5,645.8516 Q1342.7344,645.8516 1342.0938,646.1797 Q1341.4688,646.5078 1340.9688,647.2578 Q1340.4844,648.0078 1340.4844,649.0391 L1340.4844,650.1328 Q1340.4844,651.3672 1341.375,652.1953 Q1342.2656,653.0078 1343.8594,653.0078 Q1344.7969,653.0078 1345.4531,652.7578 Q1345.8438,652.6016 1346.2656,652.1641 Q1346.5313,651.8984 1346.6719,651.8203 Q1346.8281,651.7422 1347.0313,651.7422 Q1347.3594,651.7422 1347.6094,652.0078 Q1347.875,652.2578 1347.875,652.6016 Q1347.875,652.9453 1347.5313,653.3516 Q1347.0313,653.9297 1346.2344,654.2578 Q1345.1563,654.7109 1343.8594,654.7109 Q1342.3438,654.7109 1341.1406,654.0859 Q1340.1563,653.5859 1339.4688,652.5234 Q1338.7813,651.4453 1338.7813,650.1641 L1338.7813,649.0078 Q1338.7813,647.6797 1339.3906,646.5391 Q1340.0156,645.3828 1341.1094,644.7734 Q1342.2031,644.1484 1343.4375,644.1484 Q1344.1719,644.1484 1344.8125,644.3203 Q1345.4688,644.4766 1346.0156,644.8359 Z " fill="#000000"/><text fill="#000000" font-family="sans-serif" font-size="12" font-style="italic" lengthAdjust="spacing" textLength="70" x="1366.25" y="645.0664">&#171;aggregate&#187;</text><text fill="#000000" font-family="sans-serif" font-size="14" lengthAdjust="spacing" textLength="75" x="1363.75" y="662.2363">Prescription</text><line style="stroke:#181818;stroke-width:0.5;" x1="1295" x2="1475" y1="670.3125" y2="670.3125"/><text fill="#000000" font-family="sans-serif" font-size="14" lengthAdjust="spacing" textLength="131" x="1300" y="688.8457">-idPrescription: Long</text><text fill="#000000" font-family="sans-serif" font-size="14" lengthAdjust="spacing" textLength="128" x="1300" y="706.4551">-issuedAt: DateTime</text><text fill="#000000" font-family="sans-serif" font-size="14" lengthAdjust="spacing" textLength="166" x="1300" y="724.0645">-status: PrescriptionStatus</text><text fill="#000000" font-family="sans-serif" font-size="14" lengthAdjust="spacing" textLength="170" x="1300" y="741.6738">-generalInstructions: String</text><line style="stroke:#181818;stroke-width:0.5;" x1="1295" x2="1475" y1="748.75" y2="748.75"/><text fill="#000000" font-family="sans-serif" font-size="14" lengthAdjust="spacing" textLength="85" x="1300" y="767.2832">+issue(): void</text><text fill="#000000" font-family="sans-serif" font-size="14" lengthAdjust="spacing" textLength="88" x="1300" y="784.8926">+reuse(): void</text><text fill="#000000" font-family="sans-serif" font-size="14" lengthAdjust="spacing" textLength="78" x="1300" y="802.502">+void(): void</text></g><!--class PrescriptionItem--><g id="elem_PrescriptionItem"><rect codeLine="103" fill="#DDEBFF" height="164.3594" id="PrescriptionItem" rx="2.5" ry="2.5" style="stroke:#181818;stroke-width:0.5;" width="180" x="1191" y="878.6094"/><ellipse cx="1227.15" cy="899.9609" fill="#ADD1B2" rx="11" ry="11" style="stroke:#181818;stroke-width:1.0;"/><path d="M1229.9156,895.8359 Q1230.0719,895.6172 1230.2594,895.5078 Q1230.4469,895.3984 1230.6656,895.3984 Q1231.0406,895.3984 1231.275,895.6641 Q1231.5094,895.9141 1231.5094,896.5234 L1231.5094,897.9766 Q1231.5094,898.5859 1231.275,898.8516 Q1231.0406,899.1172 1230.6656,899.1172 Q1230.3219,899.1172 1230.1188,898.9141 Q1229.9156,898.7266 1229.8063,898.2109 Q1229.7594,897.8516 1229.5719,897.6641 Q1229.2438,897.2891 1228.6344,897.0703 Q1228.025,896.8516 1227.4,896.8516 Q1226.6344,896.8516 1225.9938,897.1797 Q1225.3688,897.5078 1224.8688,898.2578 Q1224.3844,899.0078 1224.3844,900.0391 L1224.3844,901.1328 Q1224.3844,902.3672 1225.275,903.1953 Q1226.1656,904.0078 1227.7594,904.0078 Q1228.6969,904.0078 1229.3531,903.7578 Q1229.7438,903.6016 1230.1656,903.1641 Q1230.4313,902.8984 1230.5719,902.8203 Q1230.7281,902.7422 1230.9313,902.7422 Q1231.2594,902.7422 1231.5094,903.0078 Q1231.775,903.2578 1231.775,903.6016 Q1231.775,903.9453 1231.4313,904.3516 Q1230.9313,904.9297 1230.1344,905.2578 Q1229.0563,905.7109 1227.7594,905.7109 Q1226.2438,905.7109 1225.0406,905.0859 Q1224.0563,904.5859 1223.3688,903.5234 Q1222.6813,902.4453 1222.6813,901.1641 L1222.6813,900.0078 Q1222.6813,898.6797 1223.2906,897.5391 Q1223.9156,896.3828 1225.0094,895.7734 Q1226.1031,895.1484 1227.3375,895.1484 Q1228.0719,895.1484 1228.7125,895.3203 Q1229.3688,895.4766 1229.9156,895.8359 Z " fill="#000000"/><text fill="#000000" font-family="sans-serif" font-size="12" font-style="italic" lengthAdjust="spacing" textLength="43" x="1274.85" y="896.0664">&#171;entity&#187;</text><text fill="#000000" font-family="sans-serif" font-size="14" lengthAdjust="spacing" textLength="101" x="1245.85" y="913.2363">PrescriptionItem</text><line style="stroke:#181818;stroke-width:0.5;" x1="1192" x2="1370" y1="921.3125" y2="921.3125"/><text fill="#000000" font-family="sans-serif" font-size="14" lengthAdjust="spacing" textLength="157" x="1197" y="939.8457">-idPrescriptionItem: Long</text><text fill="#000000" font-family="sans-serif" font-size="14" lengthAdjust="spacing" textLength="154" x="1197" y="957.4551">-medicationName: String</text><text fill="#000000" font-family="sans-serif" font-size="14" lengthAdjust="spacing" textLength="81" x="1197" y="975.0645">-dose: String</text><text fill="#000000" font-family="sans-serif" font-size="14" lengthAdjust="spacing" textLength="113" x="1197" y="992.6738">-frequency: String</text><text fill="#000000" font-family="sans-serif" font-size="14" lengthAdjust="spacing" textLength="102" x="1197" y="1010.2832">-duration: String</text><line style="stroke:#181818;stroke-width:0.5;" x1="1192" x2="1370" y1="1017.3594" y2="1017.3594"/><text fill="#000000" font-family="sans-serif" font-size="14" lengthAdjust="spacing" textLength="168" x="1197" y="1035.8926">+updateInstructions(): void</text></g><!--class MedicalRecordStatus--><g id="elem_MedicalRecordStatus"><rect codeLine="112" fill="#F1F1F1" height="100.8281" id="MedicalRecordStatus" rx="2.5" ry="2.5" style="stroke:#181818;stroke-width:0.5;" width="166" x="961" y="426.1094"/><ellipse cx="976" cy="442.1094" fill="#EB937F" rx="11" ry="11" style="stroke:#181818;stroke-width:1.0;"/><path d="M974.8594,442.9063 L974.8594,445.4063 L979.1875,445.4063 L979.1875,444.4844 Q979.1875,443.875 979.4219,443.6094 Q979.6719,443.3438 980.0469,443.3438 Q980.4219,443.3438 980.6563,443.6094 Q980.8906,443.875 980.8906,444.4844 L980.8906,447.1094 L972.8906,447.1094 Q972.2656,447.1094 972,446.875 Q971.75,446.6406 971.75,446.25 Q971.75,445.875 972.0156,445.6406 Q972.2813,445.4063 972.8906,445.4063 L973.1563,445.4063 L973.1563,438.75 L972.8906,438.75 Q972.2656,438.75 972,438.5156 Q971.75,438.2813 971.75,437.8906 Q971.75,437.5156 972,437.2813 Q972.2656,437.0469 972.8906,437.0469 L980.5156,437.0469 L980.5156,439.6406 Q980.5156,440.25 980.2813,440.5156 Q980.0625,440.7656 979.6719,440.7656 Q979.2969,440.7656 979.0625,440.5156 Q978.8281,440.25 978.8281,439.6406 L978.8281,438.75 L974.8594,438.75 L974.8594,441.2031 L976.3438,441.2031 Q976.3438,440.5469 976.4688,440.3594 Q976.7344,439.9531 977.2031,439.9531 Q977.5781,439.9531 977.8125,440.2188 Q978.0469,440.4688 978.0469,441.0781 L978.0469,443.0469 Q978.0469,443.5938 977.9219,443.7813 Q977.6563,444.1719 977.2031,444.1719 Q976.7344,444.1719 976.4688,443.7656 Q976.3438,443.5781 976.3438,442.9063 L974.8594,442.9063 Z " fill="#000000"/><text fill="#000000" font-family="sans-serif" font-size="14" lengthAdjust="spacing" textLength="134" x="990" y="447.8379">MedicalRecordStatus</text><line style="stroke:#181818;stroke-width:0.5;" x1="962" x2="1126" y1="458.1094" y2="458.1094"/><text fill="#000000" font-family="sans-serif" font-size="14" lengthAdjust="spacing" textLength="38" x="967" y="476.6426">OPEN</text><text fill="#000000" font-family="sans-serif" font-size="14" lengthAdjust="spacing" textLength="57" x="967" y="494.252">CLOSED</text><text fill="#000000" font-family="sans-serif" font-size="14" lengthAdjust="spacing" textLength="69" x="967" y="511.8613">ARCHIVED</text><line style="stroke:#181818;stroke-width:0.5;" x1="962" x2="1126" y1="518.9375" y2="518.9375"/></g><!--class MedicalHistoryType--><g id="elem_MedicalHistoryType"><rect codeLine="118" fill="#F1F1F1" height="118.4375" id="MedicalHistoryType" rx="2.5" ry="2.5" style="stroke:#181818;stroke-width:0.5;" width="155" x="47.5" y="659.6094"/><ellipse cx="62.5" cy="675.6094" fill="#EB937F" rx="11" ry="11" style="stroke:#181818;stroke-width:1.0;"/><path d="M61.3594,676.4063 L61.3594,678.9063 L65.6875,678.9063 L65.6875,677.9844 Q65.6875,677.375 65.9219,677.1094 Q66.1719,676.8438 66.5469,676.8438 Q66.9219,676.8438 67.1563,677.1094 Q67.3906,677.375 67.3906,677.9844 L67.3906,680.6094 L59.3906,680.6094 Q58.7656,680.6094 58.5,680.375 Q58.25,680.1406 58.25,679.75 Q58.25,679.375 58.5156,679.1406 Q58.7813,678.9063 59.3906,678.9063 L59.6563,678.9063 L59.6563,672.25 L59.3906,672.25 Q58.7656,672.25 58.5,672.0156 Q58.25,671.7813 58.25,671.3906 Q58.25,671.0156 58.5,670.7813 Q58.7656,670.5469 59.3906,670.5469 L67.0156,670.5469 L67.0156,673.1406 Q67.0156,673.75 66.7813,674.0156 Q66.5625,674.2656 66.1719,674.2656 Q65.7969,674.2656 65.5625,674.0156 Q65.3281,673.75 65.3281,673.1406 L65.3281,672.25 L61.3594,672.25 L61.3594,674.7031 L62.8438,674.7031 Q62.8438,674.0469 62.9688,673.8594 Q63.2344,673.4531 63.7031,673.4531 Q64.0781,673.4531 64.3125,673.7188 Q64.5469,673.9688 64.5469,674.5781 L64.5469,676.5469 Q64.5469,677.0938 64.4219,677.2813 Q64.1563,677.6719 63.7031,677.6719 Q63.2344,677.6719 62.9688,677.2656 Q62.8438,677.0781 62.8438,676.4063 L61.3594,676.4063 Z " fill="#000000"/><text fill="#000000" font-family="sans-serif" font-size="14" lengthAdjust="spacing" textLength="123" x="76.5" y="681.3379">MedicalHistoryType</text><line style="stroke:#181818;stroke-width:0.5;" x1="48.5" x2="201.5" y1="691.6094" y2="691.6094"/><text fill="#000000" font-family="sans-serif" font-size="14" lengthAdjust="spacing" textLength="74" x="53.5" y="710.1426">PERSONAL</text><text fill="#000000" font-family="sans-serif" font-size="14" lengthAdjust="spacing" textLength="49" x="53.5" y="727.752">FAMILY</text><text fill="#000000" font-family="sans-serif" font-size="14" lengthAdjust="spacing" textLength="64" x="53.5" y="745.3613">ALLERGY</text><text fill="#000000" font-family="sans-serif" font-size="14" lengthAdjust="spacing" textLength="69" x="53.5" y="762.9707">SURGICAL</text><line style="stroke:#181818;stroke-width:0.5;" x1="48.5" x2="201.5" y1="770.0469" y2="770.0469"/></g><!--class EncounterStatus--><g id="elem_EncounterStatus"><rect codeLine="125" fill="#F1F1F1" height="100.8281" id="EncounterStatus" rx="2.5" ry="2.5" style="stroke:#181818;stroke-width:0.5;" width="137" x="1511.5" y="668.1094"/><ellipse cx="1526.5" cy="684.1094" fill="#EB937F" rx="11" ry="11" style="stroke:#181818;stroke-width:1.0;"/><path d="M1525.3594,684.9063 L1525.3594,687.4063 L1529.6875,687.4063 L1529.6875,686.4844 Q1529.6875,685.875 1529.9219,685.6094 Q1530.1719,685.3438 1530.5469,685.3438 Q1530.9219,685.3438 1531.1563,685.6094 Q1531.3906,685.875 1531.3906,686.4844 L1531.3906,689.1094 L1523.3906,689.1094 Q1522.7656,689.1094 1522.5,688.875 Q1522.25,688.6406 1522.25,688.25 Q1522.25,687.875 1522.5156,687.6406 Q1522.7813,687.4063 1523.3906,687.4063 L1523.6563,687.4063 L1523.6563,680.75 L1523.3906,680.75 Q1522.7656,680.75 1522.5,680.5156 Q1522.25,680.2813 1522.25,679.8906 Q1522.25,679.5156 1522.5,679.2813 Q1522.7656,679.0469 1523.3906,679.0469 L1531.0156,679.0469 L1531.0156,681.6406 Q1531.0156,682.25 1530.7813,682.5156 Q1530.5625,682.7656 1530.1719,682.7656 Q1529.7969,682.7656 1529.5625,682.5156 Q1529.3281,682.25 1529.3281,681.6406 L1529.3281,680.75 L1525.3594,680.75 L1525.3594,683.2031 L1526.8438,683.2031 Q1526.8438,682.5469 1526.9688,682.3594 Q1527.2344,681.9531 1527.7031,681.9531 Q1528.0781,681.9531 1528.3125,682.2188 Q1528.5469,682.4688 1528.5469,683.0781 L1528.5469,685.0469 Q1528.5469,685.5938 1528.4219,685.7813 Q1528.1563,686.1719 1527.7031,686.1719 Q1527.2344,686.1719 1526.9688,685.7656 Q1526.8438,685.5781 1526.8438,684.9063 L1525.3594,684.9063 Z " fill="#000000"/><text fill="#000000" font-family="sans-serif" font-size="14" lengthAdjust="spacing" textLength="105" x="1540.5" y="689.8379">EncounterStatus</text><line style="stroke:#181818;stroke-width:0.5;" x1="1512.5" x2="1647.5" y1="700.1094" y2="700.1094"/><text fill="#000000" font-family="sans-serif" font-size="14" lengthAdjust="spacing" textLength="47" x="1517.5" y="718.6426">DRAFT</text><text fill="#000000" font-family="sans-serif" font-size="14" lengthAdjust="spacing" textLength="98" x="1517.5" y="736.252">IN_PROGRESS</text><text fill="#000000" font-family="sans-serif" font-size="14" lengthAdjust="spacing" textLength="57" x="1517.5" y="753.8613">CLOSED</text><line style="stroke:#181818;stroke-width:0.5;" x1="1512.5" x2="1647.5" y1="760.9375" y2="760.9375"/></g><!--class DiagnosisType--><g id="elem_DiagnosisType"><rect codeLine="131" fill="#F1F1F1" height="83.2188" id="DiagnosisType" rx="2.5" ry="2.5" style="stroke:#181818;stroke-width:0.5;" width="126" x="908" y="919.1094"/><ellipse cx="923" cy="935.1094" fill="#EB937F" rx="11" ry="11" style="stroke:#181818;stroke-width:1.0;"/><path d="M921.8594,935.9063 L921.8594,938.4063 L926.1875,938.4063 L926.1875,937.4844 Q926.1875,936.875 926.4219,936.6094 Q926.6719,936.3438 927.0469,936.3438 Q927.4219,936.3438 927.6563,936.6094 Q927.8906,936.875 927.8906,937.4844 L927.8906,940.1094 L919.8906,940.1094 Q919.2656,940.1094 919,939.875 Q918.75,939.6406 918.75,939.25 Q918.75,938.875 919.0156,938.6406 Q919.2813,938.4063 919.8906,938.4063 L920.1563,938.4063 L920.1563,931.75 L919.8906,931.75 Q919.2656,931.75 919,931.5156 Q918.75,931.2813 918.75,930.8906 Q918.75,930.5156 919,930.2813 Q919.2656,930.0469 919.8906,930.0469 L927.5156,930.0469 L927.5156,932.6406 Q927.5156,933.25 927.2813,933.5156 Q927.0625,933.7656 926.6719,933.7656 Q926.2969,933.7656 926.0625,933.5156 Q925.8281,933.25 925.8281,932.6406 L925.8281,931.75 L921.8594,931.75 L921.8594,934.2031 L923.3438,934.2031 Q923.3438,933.5469 923.4688,933.3594 Q923.7344,932.9531 924.2031,932.9531 Q924.5781,932.9531 924.8125,933.2188 Q925.0469,933.4688 925.0469,934.0781 L925.0469,936.0469 Q925.0469,936.5938 924.9219,936.7813 Q924.6563,937.1719 924.2031,937.1719 Q923.7344,937.1719 923.4688,936.7656 Q923.3438,936.5781 923.3438,935.9063 L921.8594,935.9063 Z " fill="#000000"/><text fill="#000000" font-family="sans-serif" font-size="14" lengthAdjust="spacing" textLength="94" x="937" y="940.8379">DiagnosisType</text><line style="stroke:#181818;stroke-width:0.5;" x1="909" x2="1033" y1="951.1094" y2="951.1094"/><text fill="#000000" font-family="sans-serif" font-size="14" lengthAdjust="spacing" textLength="96" x="914" y="969.6426">PRESUMPTIVE</text><text fill="#000000" font-family="sans-serif" font-size="14" lengthAdjust="spacing" textLength="73" x="914" y="987.252">DEFINITIVE</text><line style="stroke:#181818;stroke-width:0.5;" x1="909" x2="1033" y1="994.3281" y2="994.3281"/></g><!--class PrescriptionStatus--><g id="elem_PrescriptionStatus"><rect codeLine="136" fill="#F1F1F1" height="118.4375" id="PrescriptionStatus" rx="2.5" ry="2.5" style="stroke:#181818;stroke-width:0.5;" width="147" x="1406.5" y="901.6094"/><ellipse cx="1421.5" cy="917.6094" fill="#EB937F" rx="11" ry="11" style="stroke:#181818;stroke-width:1.0;"/><path d="M1420.3594,918.4063 L1420.3594,920.9063 L1424.6875,920.9063 L1424.6875,919.9844 Q1424.6875,919.375 1424.9219,919.1094 Q1425.1719,918.8438 1425.5469,918.8438 Q1425.9219,918.8438 1426.1563,919.1094 Q1426.3906,919.375 1426.3906,919.9844 L1426.3906,922.6094 L1418.3906,922.6094 Q1417.7656,922.6094 1417.5,922.375 Q1417.25,922.1406 1417.25,921.75 Q1417.25,921.375 1417.5156,921.1406 Q1417.7813,920.9063 1418.3906,920.9063 L1418.6563,920.9063 L1418.6563,914.25 L1418.3906,914.25 Q1417.7656,914.25 1417.5,914.0156 Q1417.25,913.7813 1417.25,913.3906 Q1417.25,913.0156 1417.5,912.7813 Q1417.7656,912.5469 1418.3906,912.5469 L1426.0156,912.5469 L1426.0156,915.1406 Q1426.0156,915.75 1425.7813,916.0156 Q1425.5625,916.2656 1425.1719,916.2656 Q1424.7969,916.2656 1424.5625,916.0156 Q1424.3281,915.75 1424.3281,915.1406 L1424.3281,914.25 L1420.3594,914.25 L1420.3594,916.7031 L1421.8438,916.7031 Q1421.8438,916.0469 1421.9688,915.8594 Q1422.2344,915.4531 1422.7031,915.4531 Q1423.0781,915.4531 1423.3125,915.7188 Q1423.5469,915.9688 1423.5469,916.5781 L1423.5469,918.5469 Q1423.5469,919.0938 1423.4219,919.2813 Q1423.1563,919.6719 1422.7031,919.6719 Q1422.2344,919.6719 1421.9688,919.2656 Q1421.8438,919.0781 1421.8438,918.4063 L1420.3594,918.4063 Z " fill="#000000"/><text fill="#000000" font-family="sans-serif" font-size="14" lengthAdjust="spacing" textLength="115" x="1435.5" y="923.3379">PrescriptionStatus</text><line style="stroke:#181818;stroke-width:0.5;" x1="1407.5" x2="1552.5" y1="933.6094" y2="933.6094"/><text fill="#000000" font-family="sans-serif" font-size="14" lengthAdjust="spacing" textLength="47" x="1412.5" y="952.1426">DRAFT</text><text fill="#000000" font-family="sans-serif" font-size="14" lengthAdjust="spacing" textLength="49" x="1412.5" y="969.752">ISSUED</text><text fill="#000000" font-family="sans-serif" font-size="14" lengthAdjust="spacing" textLength="77" x="1412.5" y="987.3613">DISPENSED</text><text fill="#000000" font-family="sans-serif" font-size="14" lengthAdjust="spacing" textLength="52" x="1412.5" y="1004.9707">VOIDED</text><line style="stroke:#181818;stroke-width:0.5;" x1="1407.5" x2="1552.5" y1="1012.0469" y2="1012.0469"/></g><!--link MedicalRecord to ClinicalPatientId--><g id="link_MedicalRecord_ClinicalPatientId"><path codeLine="143" d="M588.72,234.6094 C514.65,234.6094 440,234.6094 440,234.6094 C440,234.6094 440,364.3794 440,432.5294 " fill="none" id="MedicalRecord-to-ClinicalPatientId" style="stroke:#181818;stroke-width:1.0;"/><polygon fill="#181818" points="440,438.5294,444,429.5294,440,433.5294,436,429.5294,440,438.5294" style="stroke:#181818;stroke-width:1.0;"/><text fill="#000000" font-family="sans-serif" font-size="13" lengthAdjust="spacing" textLength="39" x="400" y="258.7045">patient</text><text fill="#000000" font-family="sans-serif" font-size="13" lengthAdjust="spacing" textLength="7" x="574.0485" y="231.7019">1</text><text fill="#000000" font-family="sans-serif" font-size="13" lengthAdjust="spacing" textLength="7" x="432.3766" y="427.82">1</text></g><!--reverse link MedicalRecord to MedicalHistoryEntry--><g id="link_MedicalRecord_MedicalHistoryEntry"><path codeLine="144" d="M656,337.7494 C656,363.2094 656,378.5494 656,402.8694 " fill="none" id="MedicalRecord-backto-MedicalHistoryEntry" style="stroke:#181818;stroke-width:1.0;"/><polygon fill="#181818" points="656,325.7494,652,331.7494,656,337.7494,660,331.7494,656,325.7494" style="stroke:#181818;stroke-width:1.0;"/><text fill="#000000" font-family="sans-serif" font-size="13" lengthAdjust="spacing" textLength="7" x="642.5055" y="347.16">1</text><text fill="#000000" font-family="sans-serif" font-size="13" lengthAdjust="spacing" textLength="20" x="637.8703" y="392.3478">0..*</text></g><!--reverse link MedicalRecord to Encounter--><g id="link_MedicalRecord_Encounter"><path codeLine="145" d="M818.5,337.7494 C818.5,357.3194 818.5,365.9894 818.5,385.5494 " fill="none" id="MedicalRecord-backto-Encounter" style="stroke:#181818;stroke-width:1.0;"/><polygon fill="#181818" points="818.5,325.7494,814.5,331.7494,818.5,337.7494,822.5,331.7494,818.5,325.7494" style="stroke:#181818;stroke-width:1.0;"/><text fill="#000000" font-family="sans-serif" font-size="13" lengthAdjust="spacing" textLength="7" x="817.9547" y="347.16">1</text><text fill="#000000" font-family="sans-serif" font-size="13" lengthAdjust="spacing" textLength="20" x="795.7258" y="374.8569">0..*</text></g><!--link Encounter to ClinicalDoctorId--><g id="link_Encounter_ClinicalDoctorId"><path codeLine="146" d="M757.72,556.6094 C603.83,556.6094 293,556.6094 293,556.6094 C293,556.6094 293,626.3094 293,674.2194 " fill="none" id="Encounter-to-ClinicalDoctorId" style="stroke:#181818;stroke-width:1.0;"/><polygon fill="#181818" points="293,680.2194,297,671.2194,293,675.2194,289,671.2194,293,680.2194" style="stroke:#181818;stroke-width:1.0;"/><text fill="#000000" font-family="sans-serif" font-size="13" lengthAdjust="spacing" textLength="36" x="426.56" y="553.1045">doctor</text><text fill="#000000" font-family="sans-serif" font-size="13" lengthAdjust="spacing" textLength="7" x="742.9021" y="560.534">1</text><text fill="#000000" font-family="sans-serif" font-size="13" lengthAdjust="spacing" textLength="7" x="285.3984" y="669.7446">1</text></g><!--link Encounter to ClinicalAppointmentId--><g id="link_Encounter_ClinicalAppointmentId"><path codeLine="147" d="M757.77,562.6094 C660.36,562.6094 513.25,562.6094 513.25,562.6094 C513.25,562.6094 513.25,628.2594 513.25,674.4494 " fill="none" id="Encounter-to-ClinicalAppointmentId" style="stroke:#181818;stroke-width:1.0;"/><polygon fill="#181818" points="513.25,680.4494,517.25,671.4494,513.25,675.4494,509.25,671.4494,513.25,680.4494" style="stroke:#181818;stroke-width:1.0;"/><text fill="#000000" font-family="sans-serif" font-size="13" lengthAdjust="spacing" textLength="71" x="504.59" y="577.1045">appointment</text><text fill="#000000" font-family="sans-serif" font-size="13" lengthAdjust="spacing" textLength="7" x="742.9565" y="584.4934">1</text><text fill="#000000" font-family="sans-serif" font-size="13" lengthAdjust="spacing" textLength="22" x="499.3102" y="669.7257">0..1</text></g><!--reverse link Encounter to Triage--><g id="link_Encounter_Triage"><path codeLine="148" d="M810.25,579.7494 C810.25,608.4294 810.25,627.4894 810.25,653.9294 " fill="none" id="Encounter-backto-Triage" style="stroke:#181818;stroke-width:1.0;"/><polygon fill="none" points="810.25,567.7494,806.25,573.7494,810.25,579.7494,814.25,573.7494,810.25,567.7494" style="stroke:#181818;stroke-width:1.0;"/><text fill="#000000" font-family="sans-serif" font-size="13" lengthAdjust="spacing" textLength="7" x="800.441" y="589.16">1</text><text fill="#000000" font-family="sans-serif" font-size="13" lengthAdjust="spacing" textLength="22" x="798.107" y="643.0331">0..1</text></g><!--reverse link Triage to VitalSigns--><g id="link_Triage_VitalSigns"><path codeLine="149" d="M714,795.1394 C714,821.6094 714,840.7194 714,869.4294 " fill="none" id="Triage-backto-VitalSigns" style="stroke:#181818;stroke-width:1.0;"/><polygon fill="#181818" points="714,783.1394,710,789.1394,714,795.1394,718,789.1394,714,783.1394" style="stroke:#181818;stroke-width:1.0;"/><text fill="#000000" font-family="sans-serif" font-size="13" lengthAdjust="spacing" textLength="7" x="706.6172" y="804.579">1</text><text fill="#000000" font-family="sans-serif" font-size="13" lengthAdjust="spacing" textLength="7" x="706.7102" y="858.727">1</text></g><!--reverse link Encounter to Diagnosis--><g id="link_Encounter_Diagnosis"><path codeLine="150" d="M907.33,579.7494 C907.33,605.2094 907.33,620.5494 907.33,644.8694 " fill="none" id="Encounter-backto-Diagnosis" style="stroke:#181818;stroke-width:1.0;"/><polygon fill="#181818" points="907.33,567.7494,903.33,573.7494,907.33,579.7494,911.33,573.7494,907.33,567.7494" style="stroke:#181818;stroke-width:1.0;"/><text fill="#000000" font-family="sans-serif" font-size="13" lengthAdjust="spacing" textLength="7" x="905.2571" y="589.16">1</text><text fill="#000000" font-family="sans-serif" font-size="13" lengthAdjust="spacing" textLength="20" x="880.0781" y="634.3478">1..*</text></g><!--reverse link Encounter to TreatmentPlan--><g id="link_Encounter_TreatmentPlan"><path codeLine="151" d="M938.02,554.6094 C1014.32,554.6094 1103,554.6094 1103,554.6094 C1103,554.6094 1103,607.9494 1103,653.7894 " fill="none" id="Encounter-backto-TreatmentPlan" style="stroke:#181818;stroke-width:1.0;"/><polygon fill="#181818" points="926.02,554.6094,932.02,558.6094,938.02,554.6094,932.02,550.6094,926.02,554.6094" style="stroke:#181818;stroke-width:1.0;"/><text fill="#000000" font-family="sans-serif" font-size="13" lengthAdjust="spacing" textLength="7" x="934.0883" y="558.5753">1</text><text fill="#000000" font-family="sans-serif" font-size="13" lengthAdjust="spacing" textLength="22" x="1072.5781" y="643.3313">0..1</text></g><!--reverse link Encounter to Prescription--><g id="link_Encounter_Prescription"><path codeLine="152" d="M916.67,579.8294 C916.67,615.7594 916.67,636.6094 916.67,636.6094 C916.67,636.6094 1157.62,636.6094 1293.87,636.6094 " fill="none" id="Encounter-backto-Prescription" style="stroke:#181818;stroke-width:1.0;"/><polygon fill="#181818" points="916.67,567.8294,912.67,573.8294,916.67,579.8294,920.67,573.8294,916.67,567.8294" style="stroke:#181818;stroke-width:1.0;"/><text fill="#000000" font-family="sans-serif" font-size="13" lengthAdjust="spacing" textLength="7" x="915.119" y="588.9357">1</text><text fill="#000000" font-family="sans-serif" font-size="13" lengthAdjust="spacing" textLength="20" x="1266.1272" y="627.2285">0..*</text></g><!--reverse link Prescription to PrescriptionItem--><g id="link_Prescription_PrescriptionItem"><path codeLine="153" d="M1332.5,821.7494 C1332.5,844.2594 1332.5,856.2394 1332.5,878.3094 " fill="none" id="Prescription-backto-PrescriptionItem" style="stroke:#181818;stroke-width:1.0;"/><polygon fill="#181818" points="1332.5,809.7494,1328.5,815.7494,1332.5,821.7494,1336.5,815.7494,1332.5,809.7494" style="stroke:#181818;stroke-width:1.0;"/><text fill="#000000" font-family="sans-serif" font-size="13" lengthAdjust="spacing" textLength="7" x="1321.0375" y="831.16">1</text><text fill="#000000" font-family="sans-serif" font-size="13" lengthAdjust="spacing" textLength="20" x="1316.1961" y="867.7618">1..*</text></g><!--link PrescriptionItem to ClinicalMedicationId--><g id="link_PrescriptionItem_ClinicalMedicationId"><path codeLine="154" d="M1281,1042.6794 C1281,1066.5894 1281,1085.5794 1281,1105.3794 " fill="none" id="PrescriptionItem-to-ClinicalMedicationId" style="stroke:#181818;stroke-width:1.0;"/><polygon fill="#181818" points="1281,1111.3794,1285,1102.3794,1281,1106.3794,1277,1102.3794,1281,1111.3794" style="stroke:#181818;stroke-width:1.0;"/><text fill="#000000" font-family="sans-serif" font-size="13" lengthAdjust="spacing" textLength="63" x="1217" y="1073.5245">medication</text><text fill="#000000" font-family="sans-serif" font-size="13" lengthAdjust="spacing" textLength="7" x="1273.6773" y="1064.4775">1</text><text fill="#000000" font-family="sans-serif" font-size="13" lengthAdjust="spacing" textLength="7" x="1273.3766" y="1100.6433">1</text></g><!--link MedicalRecord to MedicalRecordStatus--><g id="link_MedicalRecord_MedicalRecordStatus"><path codeLine="155" d="M879.02,234.6094 C959.7,234.6094 1044,234.6094 1044,234.6094 C1044,234.6094 1044,348.9194 1044,419.8794 " fill="none" id="MedicalRecord-to-MedicalRecordStatus" style="stroke:#181818;stroke-width:1.0;"/><polygon fill="#181818" points="1044,425.8794,1048,416.8794,1044,420.8794,1040,416.8794,1044,425.8794" style="stroke:#181818;stroke-width:1.0;"/><text fill="#000000" font-family="sans-serif" font-size="13" lengthAdjust="spacing" textLength="36" x="1007" y="244.2445">status</text></g><!--link MedicalHistoryEntry to MedicalHistoryType--><g id="link_MedicalHistoryEntry_MedicalHistoryType"><path codeLine="156" d="M548.25,550.2294 C548.25,605.1094 548.25,670.6094 548.25,670.6094 C548.25,670.6094 330.82,670.6094 208.63,670.6094 " fill="none" id="MedicalHistoryEntry-to-MedicalHistoryType" style="stroke:#181818;stroke-width:1.0;"/><polygon fill="#181818" points="202.63,670.6094,211.63,674.6094,207.63,670.6094,211.63,666.6094,202.63,670.6094" style="stroke:#181818;stroke-width:1.0;"/><text fill="#000000" font-family="sans-serif" font-size="13" lengthAdjust="spacing" textLength="25" x="409.63" y="667.1045">type</text></g><!--link Encounter to EncounterStatus--><g id="link_Encounter_EncounterStatus"><path codeLine="157" d="M926.3,540.6094 C1119.94,540.6094 1580,540.6094 1580,540.6094 C1580,540.6094 1580,609.4494 1580,662.0794 " fill="none" id="Encounter-to-EncounterStatus" style="stroke:#181818;stroke-width:1.0;"/><polygon fill="#181818" points="1580,668.0794,1584,659.0794,1580,663.0794,1576,659.0794,1580,668.0794" style="stroke:#181818;stroke-width:1.0;"/><text fill="#000000" font-family="sans-serif" font-size="13" lengthAdjust="spacing" textLength="36" x="1279.88" y="537.1045">status</text></g><!--link Diagnosis to DiagnosisType--><g id="link_Diagnosis_DiagnosisType"><path codeLine="158" d="M971,792.1994 C971,833.7794 971,878.2294 971,913.0094 " fill="none" id="Diagnosis-to-DiagnosisType" style="stroke:#181818;stroke-width:1.0;"/><polygon fill="#181818" points="971,919.0094,975,910.0094,971,914.0094,967,910.0094,971,919.0094" style="stroke:#181818;stroke-width:1.0;"/><text fill="#000000" font-family="sans-serif" font-size="13" lengthAdjust="spacing" textLength="25" x="945" y="852.1045">type</text></g><!--link Prescription to PrescriptionStatus--><g id="link_Prescription_PrescriptionStatus"><path codeLine="159" d="M1441.25,809.7494 C1441.25,840.4394 1441.25,867.8494 1441.25,895.4194 " fill="none" id="Prescription-to-PrescriptionStatus" style="stroke:#181818;stroke-width:1.0;"/><polygon fill="#181818" points="1441.25,901.4194,1445.25,892.4194,1441.25,896.4194,1437.25,892.4194,1441.25,901.4194" style="stroke:#181818;stroke-width:1.0;"/><text fill="#000000" font-family="sans-serif" font-size="13" lengthAdjust="spacing" textLength="36" x="1404.25" y="852.0845">status</text></g><rect fill="#DDDDDD" height="66.8281" id="_legend" rx="7.5" ry="7.5" style="stroke:#000000;stroke-width:1.0;" width="99" x="1570" y="1244.6094"/><rect fill="#F6CACA" height="17.6094" style="stroke:none;stroke-width:1.0;" width="89" x="1575" y="1251.6094"/><text fill="#000000" font-family="sans-serif" font-size="14" lengthAdjust="spacing" textLength="66" x="1579" y="1266.1426">Aggregate</text><rect fill="#DDEBFF" height="17.6094" style="stroke:none;stroke-width:1.0;" width="89" x="1575" y="1269.2188"/><text fill="#000000" font-family="sans-serif" font-size="14" lengthAdjust="spacing" textLength="35" x="1579" y="1283.752">Entity</text><rect fill="#FFF2B3" height="17.6094" style="stroke:none;stroke-width:1.0;" width="89" x="1575" y="1286.8281"/><text fill="#000000" font-family="sans-serif" font-size="14" lengthAdjust="spacing" textLength="81" x="1579" y="1301.3613">Value Object</text><line style="stroke:#000000;stroke-width:1.0;" x1="1575" x2="1664" y1="1251.6094" y2="1251.6094"/><line style="stroke:#000000;stroke-width:1.0;" x1="1575" x2="1664" y1="1269.2188" y2="1269.2188"/><line style="stroke:#000000;stroke-width:1.0;" x1="1575" x2="1664" y1="1286.8281" y2="1286.8281"/><line style="stroke:#000000;stroke-width:1.0;" x1="1575" x2="1664" y1="1304.4375" y2="1304.4375"/><line style="stroke:#000000;stroke-width:1.0;" x1="1575" x2="1575" y1="1251.6094" y2="1304.4375"/><line style="stroke:#000000;stroke-width:1.0;" x1="1664" x2="1664" y1="1251.6094" y2="1304.4375"/><!--SRC=[ZLP9Rziu5BxhLn3k9MtWeDC2Sn020wubfm8Ssv2S00CCKD0Iet0gYHgISkjE-z_daTH2BOaB7qozvNlx8oML6K6FLEACOZH7gmmBWJoAKuvp-8uaJWdwg3cqe37Eq8eLadoNGBhoCn9Bpe2ExacYkI696K-0wT-78Ch9MyUHh4IIeIEJakKeeHoqA2iSHtobHOcLfLZPNKh9wR6I98XP4T4V1BstHCGpJjWtMgJe2MU2M1pmZCXpIH3ZyfbPZ1B7Ny7_I9uXI6KL5sb672SZAIaIn6dwB9sVjs_MVwwMg-K2BTEKanHBWdugikVvdzRh1V8BIUNPqDRhzOTF7nVe4MSLGRlZFu0A780pe8vJ6qMp3pUZfFrT_5xEPkYDlr8_z9-3J7BGR8yb9OKCaXd2eeLkgUZszgISCZuj5gZsLKCWDAT9BUgY3IjI8FvoEd2FnPBn0NP3l0nj92UHbsN9Q27piUizpcKRblYa8PDErLa3EpRZifbEUifANREwPBUtk6aP3QNxQ0XL2xTemEAQigto8u6aHT3s3OULf2394YBq0FH0SsBeGc9P2RTlFz94BN2j5A_UkkZ4Q68eq8w40qXKvJdcvpuJ9ubVnAo2jkHNf3cvg2LsqkFeFrC1rJx3NF0pv83e-L09C1CpIe0jRwT13Qqx03q0pN0J8c9EIrC9EqScUnDPkZQSgqdVsyWkLStlij6v2lddKXaR5YREc9Wgs8aAAaE2nT3xffAj6RkA0f-8n_6Jx5TB6-dgDHdVWLErTbuhXn6nmqec8c97GVX9Ju3ekLwdLzyM4KqBSNLgZoxgo9FkTUpB8_XemNQ-7ZF6aZqdGbISz7CgILwgNjSCZyGqnvdXF1EeMwYZ321tAU5D3ucIWWPqt0INVJ_3z4GAiDu4DkXrLQgyJPT1tPq54rIyMebMoWwGnicA9OFGNfm2CpmjK3ithmx1WHEiD-W-myM5Nh4aUruMGl8g7hV7_8bb6VlsK7PZOgShiFIcdLErRMAzDAIsRCyxw8xNzgUjPmtUt2pBB7Wfk6iDt9zAJYen8AdJvU02wDTNapyKjYFCs_jfY_DXiy2Q6DI4atyhsE_dWM3Rs7QCbmj5YYgVkeDgrtTxVwiFgyqkyZrzN8Qhpy6Z_XX1M3k_HjZxORJRBZVwOxsy3pP_6PJDnW_lp3bw2E-2bPRf40Vhj8RpmkNwe4_1zii-tDs5VXJrFUmWUhFK-0CA3_Vx0qHW0Frri0tgpqvrt5PZ1wBeeKw95qIGg2P1Zxl0wppfFp1cVypGVBxG_-CNdmilN7sUr7itdwFP-vkRTxEfU_kIIfjF4EokpYb_sbUYYn9zdDO0M4kf__Pp4Uw-H-gizWgEvWO3YVgsQvs6_-xM624O4HrNM-HfeSQCjVnU50Gqk-uWrzjW0yF3cHw8wvqmbTxUwzL5tVYFAgWqfsRJHQBPT5CFE4lDdaSNINEbTC4hoU6SMU3TrQS4-zFKelLIfEGcHgV5_ENy3m00]--></g></svg>