<?xml version="1.0" encoding="us-ascii" standalone="no"?><svg xmlns="http://www.w3.org/2000/svg" xmlns:xlink="http://www.w3.org/1999/xlink" contentStyleType="text/css" height="1457px" preserveAspectRatio="none" style="width:862px;height:1457px;background:#FFFFFF;" version="1.1" viewBox="0 0 862 1457" width="862px" zoomAndPan="magnify"><defs/><g><text fill="#000000" font-family="sans-serif" font-size="14" font-weight="bold" lengthAdjust="spacing" textLength="549" x="149.5" y="24.5332">Vitalia - Class Diagram - Stage 3 - Pharmacy and Inventory Context - (Inventory)</text><!--cluster 4--><g id="cluster_4"><rect fill="none" height="1308" rx="2.5" ry="2.5" style="stroke:#000000;stroke-width:1.5;" width="849" x="7" y="45.6094"/><text fill="#000000" font-family="sans-serif" font-size="14" font-weight="bold" lengthAdjust="spacing" textLength="8" x="427.5" y="62.1426">4</text></g><!--cluster  Pharmacy and Inventory Context\n(Inventory)--><g id="cluster_ Pharmacy and Inventory Context\n(Inventory)"><rect fill="#EEF0F3" height="1240" rx="2.5" ry="2.5" style="stroke:#000000;stroke-width:1.5;" width="801" x="31" y="89.6094"/><text fill="#000000" font-family="sans-serif" font-size="14" font-weight="bold" lengthAdjust="spacing" textLength="227" x="320" y="106.1426">Pharmacy and Inventory Context</text><text fill="#000000" font-family="sans-serif" font-size="14" font-weight="bold" lengthAdjust="spacing" textLength="77" x="393" y="123.752">(Inventory)</text></g><!--class PharmacyBranchId--><g id="elem_PharmacyBranchId"><rect codeLine="17" fill="#FFF2B3" height="76.3125" id="PharmacyBranchId" rx="2.5" ry="2.5" style="stroke:#181818;stroke-width:0.5;" width="113" x="47.5" y="1032.6094"/><ellipse cx="64.75" cy="1053.9609" fill="#ADD1B2" rx="11" ry="11" style="stroke:#181818;stroke-width:1.0;"/><path d="M67.5156,1049.8359 Q67.6719,1049.6172 67.8594,1049.5078 Q68.0469,1049.3984 68.2656,1049.3984 Q68.6406,1049.3984 68.875,1049.6641 Q69.1094,1049.9141 69.1094,1050.5234 L69.1094,1051.9766 Q69.1094,1052.5859 68.875,1052.8516 Q68.6406,1053.1172 68.2656,1053.1172 Q67.9219,1053.1172 67.7188,1052.9141 Q67.5156,1052.7266 67.4063,1052.2109 Q67.3594,1051.8516 67.1719,1051.6641 Q66.8438,1051.2891 66.2344,1051.0703 Q65.625,1050.8516 65,1050.8516 Q64.2344,1050.8516 63.5938,1051.1797 Q62.9688,1051.5078 62.4688,1052.2578 Q61.9844,1053.0078 61.9844,1054.0391 L61.9844,1055.1328 Q61.9844,1056.3672 62.875,1057.1953 Q63.7656,1058.0078 65.3594,1058.0078 Q66.2969,1058.0078 66.9531,1057.7578 Q67.3438,1057.6016 67.7656,1057.1641 Q68.0313,1056.8984 68.1719,1056.8203 Q68.3281,1056.7422 68.5313,1056.7422 Q68.8594,1056.7422 69.1094,1057.0078 Q69.375,1057.2578 69.375,1057.6016 Q69.375,1057.9453 69.0313,1058.3516 Q68.5313,1058.9297 67.7344,1059.2578 Q66.6563,1059.7109 65.3594,1059.7109 Q63.8438,1059.7109 62.6406,1059.0859 Q61.6563,1058.5859 60.9688,1057.5234 Q60.2813,1056.4453 60.2813,1055.1641 L60.2813,1054.0078 Q60.2813,1052.6797 60.8906,1051.5391 Q61.5156,1050.3828 62.6094,1049.7734 Q63.7031,1049.1484 64.9375,1049.1484 Q65.6719,1049.1484 66.3125,1049.3203 Q66.9688,1049.4766 67.5156,1049.8359 Z " fill="#000000"/><text fill="#000000" font-family="sans-serif" font-size="12" font-style="italic" lengthAdjust="spacing" textLength="80" x="77.25" y="1050.0664">&#171;valueObject&#187;</text><text fill="#000000" font-family="sans-serif" font-size="14" lengthAdjust="spacing" textLength="56" x="89.25" y="1067.2363">BranchId</text><line style="stroke:#181818;stroke-width:0.5;" x1="48.5" x2="159.5" y1="1075.3125" y2="1075.3125"/><text fill="#000000" font-family="sans-serif" font-size="14" lengthAdjust="spacing" textLength="101" x="53.5" y="1093.8457">-idBranch: Long</text><line style="stroke:#181818;stroke-width:0.5;" x1="48.5" x2="159.5" y1="1100.9219" y2="1100.9219"/></g><!--class PharmacyPrescriptionId--><g id="elem_PharmacyPrescriptionId"><rect codeLine="21" fill="#FFF2B3" height="76.3125" id="PharmacyPrescriptionId" rx="2.5" ry="2.5" style="stroke:#181818;stroke-width:0.5;" width="143" x="49.5" y="368.6094"/><ellipse cx="75.75" cy="389.9609" fill="#ADD1B2" rx="11" ry="11" style="stroke:#181818;stroke-width:1.0;"/><path d="M78.5156,385.8359 Q78.6719,385.6172 78.8594,385.5078 Q79.0469,385.3984 79.2656,385.3984 Q79.6406,385.3984 79.875,385.6641 Q80.1094,385.9141 80.1094,386.5234 L80.1094,387.9766 Q80.1094,388.5859 79.875,388.8516 Q79.6406,389.1172 79.2656,389.1172 Q78.9219,389.1172 78.7188,388.9141 Q78.5156,388.7266 78.4063,388.2109 Q78.3594,387.8516 78.1719,387.6641 Q77.8438,387.2891 77.2344,387.0703 Q76.625,386.8516 76,386.8516 Q75.2344,386.8516 74.5938,387.1797 Q73.9688,387.5078 73.4688,388.2578 Q72.9844,389.0078 72.9844,390.0391 L72.9844,391.1328 Q72.9844,392.3672 73.875,393.1953 Q74.7656,394.0078 76.3594,394.0078 Q77.2969,394.0078 77.9531,393.7578 Q78.3438,393.6016 78.7656,393.1641 Q79.0313,392.8984 79.1719,392.8203 Q79.3281,392.7422 79.5313,392.7422 Q79.8594,392.7422 80.1094,393.0078 Q80.375,393.2578 80.375,393.6016 Q80.375,393.9453 80.0313,394.3516 Q79.5313,394.9297 78.7344,395.2578 Q77.6563,395.7109 76.3594,395.7109 Q74.8438,395.7109 73.6406,395.0859 Q72.6563,394.5859 71.9688,393.5234 Q71.2813,392.4453 71.2813,391.1641 L71.2813,390.0078 Q71.2813,388.6797 71.8906,387.5391 Q72.5156,386.3828 73.6094,385.7734 Q74.7031,385.1484 75.9375,385.1484 Q76.6719,385.1484 77.3125,385.3203 Q77.9688,385.4766 78.5156,385.8359 Z " fill="#000000"/><text fill="#000000" font-family="sans-serif" font-size="12" font-style="italic" lengthAdjust="spacing" textLength="80" x="95.25" y="386.0664">&#171;valueObject&#187;</text><text fill="#000000" font-family="sans-serif" font-size="14" lengthAdjust="spacing" textLength="86" x="92.25" y="403.2363">PrescriptionId</text><line style="stroke:#181818;stroke-width:0.5;" x1="50.5" x2="191.5" y1="411.3125" y2="411.3125"/><text fill="#000000" font-family="sans-serif" font-size="14" lengthAdjust="spacing" textLength="131" x="55.5" y="429.8457">-idPrescription: Long</text><line style="stroke:#181818;stroke-width:0.5;" x1="50.5" x2="191.5" y1="436.9219" y2="436.9219"/></g><!--class PharmacyPrescriptionItemId--><g id="elem_PharmacyPrescriptionItemId"><rect codeLine="25" fill="#FFF2B3" height="76.3125" id="PharmacyPrescriptionItemId" rx="2.5" ry="2.5" style="stroke:#181818;stroke-width:0.5;" width="169" x="438.5" y="566.6094"/><ellipse cx="464.75" cy="587.9609" fill="#ADD1B2" rx="11" ry="11" style="stroke:#181818;stroke-width:1.0;"/><path d="M467.5156,583.8359 Q467.6719,583.6172 467.8594,583.5078 Q468.0469,583.3984 468.2656,583.3984 Q468.6406,583.3984 468.875,583.6641 Q469.1094,583.9141 469.1094,584.5234 L469.1094,585.9766 Q469.1094,586.5859 468.875,586.8516 Q468.6406,587.1172 468.2656,587.1172 Q467.9219,587.1172 467.7188,586.9141 Q467.5156,586.7266 467.4063,586.2109 Q467.3594,585.8516 467.1719,585.6641 Q466.8438,585.2891 466.2344,585.0703 Q465.625,584.8516 465,584.8516 Q464.2344,584.8516 463.5938,585.1797 Q462.9688,585.5078 462.4688,586.2578 Q461.9844,587.0078 461.9844,588.0391 L461.9844,589.1328 Q461.9844,590.3672 462.875,591.1953 Q463.7656,592.0078 465.3594,592.0078 Q466.2969,592.0078 466.9531,591.7578 Q467.3438,591.6016 467.7656,591.1641 Q468.0313,590.8984 468.1719,590.8203 Q468.3281,590.7422 468.5313,590.7422 Q468.8594,590.7422 469.1094,591.0078 Q469.375,591.2578 469.375,591.6016 Q469.375,591.9453 469.0313,592.3516 Q468.5313,592.9297 467.7344,593.2578 Q466.6563,593.7109 465.3594,593.7109 Q463.8438,593.7109 462.6406,593.0859 Q461.6563,592.5859 460.9688,591.5234 Q460.2813,590.4453 460.2813,589.1641 L460.2813,588.0078 Q460.2813,586.6797 460.8906,585.5391 Q461.5156,584.3828 462.6094,583.7734 Q463.7031,583.1484 464.9375,583.1484 Q465.6719,583.1484 466.3125,583.3203 Q466.9688,583.4766 467.5156,583.8359 Z " fill="#000000"/><text fill="#000000" font-family="sans-serif" font-size="12" font-style="italic" lengthAdjust="spacing" textLength="80" x="497.25" y="584.0664">&#171;valueObject&#187;</text><text fill="#000000" font-family="sans-serif" font-size="14" lengthAdjust="spacing" textLength="112" x="481.25" y="601.2363">PrescriptionItemId</text><line style="stroke:#181818;stroke-width:0.5;" x1="439.5" x2="606.5" y1="609.3125" y2="609.3125"/><text fill="#000000" font-family="sans-serif" font-size="14" lengthAdjust="spacing" textLength="157" x="444.5" y="627.8457">-idPrescriptionItem: Long</text><line style="stroke:#181818;stroke-width:0.5;" x1="439.5" x2="606.5" y1="634.9219" y2="634.9219"/></g><!--class PharmacyPharmacistId--><g id="elem_PharmacyPharmacistId"><rect codeLine="29" fill="#FFF2B3" height="76.3125" id="PharmacyPharmacistId" rx="2.5" ry="2.5" style="stroke:#181818;stroke-width:0.5;" width="138" x="228" y="368.6094"/><ellipse cx="254.25" cy="389.9609" fill="#ADD1B2" rx="11" ry="11" style="stroke:#181818;stroke-width:1.0;"/><path d="M257.0156,385.8359 Q257.1719,385.6172 257.3594,385.5078 Q257.5469,385.3984 257.7656,385.3984 Q258.1406,385.3984 258.375,385.6641 Q258.6094,385.9141 258.6094,386.5234 L258.6094,387.9766 Q258.6094,388.5859 258.375,388.8516 Q258.1406,389.1172 257.7656,389.1172 Q257.4219,389.1172 257.2188,388.9141 Q257.0156,388.7266 256.9063,388.2109 Q256.8594,387.8516 256.6719,387.6641 Q256.3438,387.2891 255.7344,387.0703 Q255.125,386.8516 254.5,386.8516 Q253.7344,386.8516 253.0938,387.1797 Q252.4688,387.5078 251.9688,388.2578 Q251.4844,389.0078 251.4844,390.0391 L251.4844,391.1328 Q251.4844,392.3672 252.375,393.1953 Q253.2656,394.0078 254.8594,394.0078 Q255.7969,394.0078 256.4531,393.7578 Q256.8438,393.6016 257.2656,393.1641 Q257.5313,392.8984 257.6719,392.8203 Q257.8281,392.7422 258.0313,392.7422 Q258.3594,392.7422 258.6094,393.0078 Q258.875,393.2578 258.875,393.6016 Q258.875,393.9453 258.5313,394.3516 Q258.0313,394.9297 257.2344,395.2578 Q256.1563,395.7109 254.8594,395.7109 Q253.3438,395.7109 252.1406,395.0859 Q251.1563,394.5859 250.4688,393.5234 Q249.7813,392.4453 249.7813,391.1641 L249.7813,390.0078 Q249.7813,388.6797 250.3906,387.5391 Q251.0156,386.3828 252.1094,385.7734 Q253.2031,385.1484 254.4375,385.1484 Q255.1719,385.1484 255.8125,385.3203 Q256.4688,385.4766 257.0156,385.8359 Z " fill="#000000"/><text fill="#000000" font-family="sans-serif" font-size="12" font-style="italic" lengthAdjust="spacing" textLength="80" x="271.25" y="386.0664">&#171;valueObject&#187;</text><text fill="#000000" font-family="sans-serif" font-size="14" lengthAdjust="spacing" textLength="81" x="270.75" y="403.2363">PharmacistId</text><line style="stroke:#181818;stroke-width:0.5;" x1="229" x2="365" y1="411.3125" y2="411.3125"/><text fill="#000000" font-family="sans-serif" font-size="14" lengthAdjust="spacing" textLength="126" x="234" y="429.8457">-idPharmacist: Long</text><line style="stroke:#181818;stroke-width:0.5;" x1="229" x2="365" y1="436.9219" y2="436.9219"/></g><!--class Medication--><g id="elem_Medication"><rect codeLine="33" fill="#F6CACA" height="164.3594" id="Medication" rx="2.5" ry="2.5" style="stroke:#181818;stroke-width:0.5;" width="171" x="642.5" y="522.6094"/><ellipse cx="689.75" cy="543.9609" fill="#ADD1B2" rx="11" ry="11" style="stroke:#181818;stroke-width:1.0;"/><path d="M692.5156,539.8359 Q692.6719,539.6172 692.8594,539.5078 Q693.0469,539.3984 693.2656,539.3984 Q693.6406,539.3984 693.875,539.6641 Q694.1094,539.9141 694.1094,540.5234 L694.1094,541.9766 Q694.1094,542.5859 693.875,542.8516 Q693.6406,543.1172 693.2656,543.1172 Q692.9219,543.1172 692.7188,542.9141 Q692.5156,542.7266 692.4063,542.2109 Q692.3594,541.8516 692.1719,541.6641 Q691.8438,541.2891 691.2344,541.0703 Q690.625,540.8516 690,540.8516 Q689.2344,540.8516 688.5938,541.1797 Q687.9688,541.5078 687.4688,542.2578 Q686.9844,543.0078 686.9844,544.0391 L686.9844,545.1328 Q686.9844,546.3672 687.875,547.1953 Q688.7656,548.0078 690.3594,548.0078 Q691.2969,548.0078 691.9531,547.7578 Q692.3438,547.6016 692.7656,547.1641 Q693.0313,546.8984 693.1719,546.8203 Q693.3281,546.7422 693.5313,546.7422 Q693.8594,546.7422 694.1094,547.0078 Q694.375,547.2578 694.375,547.6016 Q694.375,547.9453 694.0313,548.3516 Q693.5313,548.9297 692.7344,549.2578 Q691.6563,549.7109 690.3594,549.7109 Q688.8438,549.7109 687.6406,549.0859 Q686.6563,548.5859 685.9688,547.5234 Q685.2813,546.4453 685.2813,545.1641 L685.2813,544.0078 Q685.2813,542.6797 685.8906,541.5391 Q686.5156,540.3828 687.6094,539.7734 Q688.7031,539.1484 689.9375,539.1484 Q690.6719,539.1484 691.3125,539.3203 Q691.9688,539.4766 692.5156,539.8359 Z " fill="#000000"/><text fill="#000000" font-family="sans-serif" font-size="12" font-style="italic" lengthAdjust="spacing" textLength="70" x="709.25" y="540.0664">&#171;aggregate&#187;</text><text fill="#000000" font-family="sans-serif" font-size="14" lengthAdjust="spacing" textLength="68" x="710.25" y="557.2363">Medication</text><line style="stroke:#181818;stroke-width:0.5;" x1="643.5" x2="812.5" y1="565.3125" y2="565.3125"/><text fill="#000000" font-family="sans-serif" font-size="14" lengthAdjust="spacing" textLength="124" x="648.5" y="583.8457">-idMedication: Long</text><text fill="#000000" font-family="sans-serif" font-size="14" lengthAdjust="spacing" textLength="81" x="648.5" y="601.4551">-code: String</text><text fill="#000000" font-family="sans-serif" font-size="14" lengthAdjust="spacing" textLength="85" x="648.5" y="619.0645">-name: String</text><text fill="#000000" font-family="sans-serif" font-size="14" lengthAdjust="spacing" textLength="129" x="648.5" y="636.6738">-presentation: String</text><text fill="#000000" font-family="sans-serif" font-size="14" lengthAdjust="spacing" textLength="159" x="648.5" y="654.2832">-status: MedicationStatus</text><line style="stroke:#181818;stroke-width:0.5;" x1="643.5" x2="812.5" y1="661.3594" y2="661.3594"/><text fill="#000000" font-family="sans-serif" font-size="14" lengthAdjust="spacing" textLength="139" x="648.5" y="679.8926">+updateDetails(): void</text></g><!--class MedicationInventory--><g id="elem_MedicationInventory"><rect codeLine="42" fill="#F6CACA" height="181.9688" id="MedicationInventory" rx="2.5" ry="2.5" style="stroke:#181818;stroke-width:0.5;" width="260" x="317" y="746.6094"/><ellipse cx="379.75" cy="767.9609" fill="#ADD1B2" rx="11" ry="11" style="stroke:#181818;stroke-width:1.0;"/><path d="M382.5156,763.8359 Q382.6719,763.6172 382.8594,763.5078 Q383.0469,763.3984 383.2656,763.3984 Q383.6406,763.3984 383.875,763.6641 Q384.1094,763.9141 384.1094,764.5234 L384.1094,765.9766 Q384.1094,766.5859 383.875,766.8516 Q383.6406,767.1172 383.2656,767.1172 Q382.9219,767.1172 382.7188,766.9141 Q382.5156,766.7266 382.4063,766.2109 Q382.3594,765.8516 382.1719,765.6641 Q381.8438,765.2891 381.2344,765.0703 Q380.625,764.8516 380,764.8516 Q379.2344,764.8516 378.5938,765.1797 Q377.9688,765.5078 377.4688,766.2578 Q376.9844,767.0078 376.9844,768.0391 L376.9844,769.1328 Q376.9844,770.3672 377.875,771.1953 Q378.7656,772.0078 380.3594,772.0078 Q381.2969,772.0078 381.9531,771.7578 Q382.3438,771.6016 382.7656,771.1641 Q383.0313,770.8984 383.1719,770.8203 Q383.3281,770.7422 383.5313,770.7422 Q383.8594,770.7422 384.1094,771.0078 Q384.375,771.2578 384.375,771.6016 Q384.375,771.9453 384.0313,772.3516 Q383.5313,772.9297 382.7344,773.2578 Q381.6563,773.7109 380.3594,773.7109 Q378.8438,773.7109 377.6406,773.0859 Q376.6563,772.5859 375.9688,771.5234 Q375.2813,770.4453 375.2813,769.1641 L375.2813,768.0078 Q375.2813,766.6797 375.8906,765.5391 Q376.5156,764.3828 377.6094,763.7734 Q378.7031,763.1484 379.9375,763.1484 Q380.6719,763.1484 381.3125,763.3203 Q381.9688,763.4766 382.5156,763.8359 Z " fill="#000000"/><text fill="#000000" font-family="sans-serif" font-size="12" font-style="italic" lengthAdjust="spacing" textLength="70" x="428.25" y="764.0664">&#171;aggregate&#187;</text><text fill="#000000" font-family="sans-serif" font-size="14" lengthAdjust="spacing" textLength="126" x="400.25" y="781.2363">MedicationInventory</text><line style="stroke:#181818;stroke-width:0.5;" x1="318" x2="576" y1="789.3125" y2="789.3125"/><text fill="#000000" font-family="sans-serif" font-size="14" lengthAdjust="spacing" textLength="182" x="323" y="807.8457">-idMedicationInventory: Long</text><text fill="#000000" font-family="sans-serif" font-size="14" lengthAdjust="spacing" textLength="137" x="323" y="825.4551">-currentStock: Integer</text><text fill="#000000" font-family="sans-serif" font-size="14" lengthAdjust="spacing" textLength="147" x="323" y="843.0645">-minimumStock: Integer</text><text fill="#000000" font-family="sans-serif" font-size="14" lengthAdjust="spacing" textLength="99" x="323" y="860.6738">-location: String</text><line style="stroke:#181818;stroke-width:0.5;" x1="318" x2="576" y1="867.75" y2="867.75"/><text fill="#000000" font-family="sans-serif" font-size="14" lengthAdjust="spacing" textLength="243" x="323" y="886.2832">+increaseStock(quantity: Integer): void</text><text fill="#000000" font-family="sans-serif" font-size="14" lengthAdjust="spacing" textLength="248" x="323" y="903.8926">+decreaseStock(quantity: Integer): void</text><text fill="#000000" font-family="sans-serif" font-size="14" lengthAdjust="spacing" textLength="195" x="323" y="921.502">+validateReplenishment(): void</text></g><!--class MedicationBatch--><g id="elem_MedicationBatch"><rect codeLine="52" fill="#DDEBFF" height="146.75" id="MedicationBatch" rx="2.5" ry="2.5" style="stroke:#181818;stroke-width:0.5;" width="178" x="196" y="997.1094"/><ellipse cx="229.9" cy="1018.4609" fill="#ADD1B2" rx="11" ry="11" style="stroke:#181818;stroke-width:1.0;"/><path d="M232.6656,1014.3359 Q232.8219,1014.1172 233.0094,1014.0078 Q233.1969,1013.8984 233.4156,1013.8984 Q233.7906,1013.8984 234.025,1014.1641 Q234.2594,1014.4141 234.2594,1015.0234 L234.2594,1016.4766 Q234.2594,1017.0859 234.025,1017.3516 Q233.7906,1017.6172 233.4156,1017.6172 Q233.0719,1017.6172 232.8688,1017.4141 Q232.6656,1017.2266 232.5563,1016.7109 Q232.5094,1016.3516 232.3219,1016.1641 Q231.9938,1015.7891 231.3844,1015.5703 Q230.775,1015.3516 230.15,1015.3516 Q229.3844,1015.3516 228.7438,1015.6797 Q228.1188,1016.0078 227.6188,1016.7578 Q227.1344,1017.5078 227.1344,1018.5391 L227.1344,1019.6328 Q227.1344,1020.8672 228.025,1021.6953 Q228.9156,1022.5078 230.5094,1022.5078 Q231.4469,1022.5078 232.1031,1022.2578 Q232.4938,1022.1016 232.9156,1021.6641 Q233.1813,1021.3984 233.3219,1021.3203 Q233.4781,1021.2422 233.6813,1021.2422 Q234.0094,1021.2422 234.2594,1021.5078 Q234.525,1021.7578 234.525,1022.1016 Q234.525,1022.4453 234.1813,1022.8516 Q233.6813,1023.4297 232.8844,1023.7578 Q231.8063,1024.2109 230.5094,1024.2109 Q228.9938,1024.2109 227.7906,1023.5859 Q226.8063,1023.0859 226.1188,1022.0234 Q225.4313,1020.9453 225.4313,1019.6641 L225.4313,1018.5078 Q225.4313,1017.1797 226.0406,1016.0391 Q226.6656,1014.8828 227.7594,1014.2734 Q228.8531,1013.6484 230.0875,1013.6484 Q230.8219,1013.6484 231.4625,1013.8203 Q232.1188,1013.9766 232.6656,1014.3359 Z " fill="#000000"/><text fill="#000000" font-family="sans-serif" font-size="12" font-style="italic" lengthAdjust="spacing" textLength="43" x="278.6" y="1014.5664">&#171;entity&#187;</text><text fill="#000000" font-family="sans-serif" font-size="14" lengthAdjust="spacing" textLength="104" x="248.1" y="1031.7363">MedicationBatch</text><line style="stroke:#181818;stroke-width:0.5;" x1="197" x2="373" y1="1039.8125" y2="1039.8125"/><text fill="#000000" font-family="sans-serif" font-size="14" lengthAdjust="spacing" textLength="160" x="202" y="1058.3457">-idMedicationBatch: Long</text><text fill="#000000" font-family="sans-serif" font-size="14" lengthAdjust="spacing" textLength="134" x="202" y="1075.9551">-batchNumber: String</text><text fill="#000000" font-family="sans-serif" font-size="14" lengthAdjust="spacing" textLength="134" x="202" y="1093.5645">-expirationDate: Date</text><text fill="#000000" font-family="sans-serif" font-size="14" lengthAdjust="spacing" textLength="166" x="202" y="1111.1738">-availableQuantity: Integer</text><line style="stroke:#181818;stroke-width:0.5;" x1="197" x2="373" y1="1118.25" y2="1118.25"/><text fill="#000000" font-family="sans-serif" font-size="14" lengthAdjust="spacing" textLength="163" x="202" y="1136.7832">+validateExpiration(): void</text></g><!--class InventoryMovement--><g id="elem_InventoryMovement"><rect codeLine="60" fill="#DDEBFF" height="164.3594" id="InventoryMovement" rx="2.5" ry="2.5" style="stroke:#181818;stroke-width:0.5;" width="207" x="409.5" y="988.6094"/><ellipse cx="447.9" cy="1009.9609" fill="#ADD1B2" rx="11" ry="11" style="stroke:#181818;stroke-width:1.0;"/><path d="M450.6656,1005.8359 Q450.8219,1005.6172 451.0094,1005.5078 Q451.1969,1005.3984 451.4156,1005.3984 Q451.7906,1005.3984 452.025,1005.6641 Q452.2594,1005.9141 452.2594,1006.5234 L452.2594,1007.9766 Q452.2594,1008.5859 452.025,1008.8516 Q451.7906,1009.1172 451.4156,1009.1172 Q451.0719,1009.1172 450.8688,1008.9141 Q450.6656,1008.7266 450.5563,1008.2109 Q450.5094,1007.8516 450.3219,1007.6641 Q449.9938,1007.2891 449.3844,1007.0703 Q448.775,1006.8516 448.15,1006.8516 Q447.3844,1006.8516 446.7438,1007.1797 Q446.1188,1007.5078 445.6188,1008.2578 Q445.1344,1009.0078 445.1344,1010.0391 L445.1344,1011.1328 Q445.1344,1012.3672 446.025,1013.1953 Q446.9156,1014.0078 448.5094,1014.0078 Q449.4469,1014.0078 450.1031,1013.7578 Q450.4938,1013.6016 450.9156,1013.1641 Q451.1813,1012.8984 451.3219,1012.8203 Q451.4781,1012.7422 451.6813,1012.7422 Q452.0094,1012.7422 452.2594,1013.0078 Q452.525,1013.2578 452.525,1013.6016 Q452.525,1013.9453 452.1813,1014.3516 Q451.6813,1014.9297 450.8844,1015.2578 Q449.8063,1015.7109 448.5094,1015.7109 Q446.9938,1015.7109 445.7906,1015.0859 Q444.8063,1014.5859 444.1188,1013.5234 Q443.4313,1012.4453 443.4313,1011.1641 L443.4313,1010.0078 Q443.4313,1008.6797 444.0406,1007.5391 Q444.6656,1006.3828 445.7594,1005.7734 Q446.8531,1005.1484 448.0875,1005.1484 Q448.8219,1005.1484 449.4625,1005.3203 Q450.1188,1005.4766 450.6656,1005.8359 Z " fill="#000000"/><text fill="#000000" font-family="sans-serif" font-size="12" font-style="italic" lengthAdjust="spacing" textLength="43" x="507.1" y="1006.0664">&#171;entity&#187;</text><text fill="#000000" font-family="sans-serif" font-size="14" lengthAdjust="spacing" textLength="123" x="467.1" y="1023.2363">InventoryMovement</text><line style="stroke:#181818;stroke-width:0.5;" x1="410.5" x2="615.5" y1="1031.3125" y2="1031.3125"/><text fill="#000000" font-family="sans-serif" font-size="14" lengthAdjust="spacing" textLength="179" x="415.5" y="1049.8457">-idInventoryMovement: Long</text><text fill="#000000" font-family="sans-serif" font-size="14" lengthAdjust="spacing" textLength="195" x="415.5" y="1067.4551">-type: InventoryMovementType</text><text fill="#000000" font-family="sans-serif" font-size="14" lengthAdjust="spacing" textLength="107" x="415.5" y="1085.0645">-quantity: Integer</text><text fill="#000000" font-family="sans-serif" font-size="14" lengthAdjust="spacing" textLength="102" x="415.5" y="1102.6738">-date: DateTime</text><text fill="#000000" font-family="sans-serif" font-size="14" lengthAdjust="spacing" textLength="94" x="415.5" y="1120.2832">-reason: String</text><line style="stroke:#181818;stroke-width:0.5;" x1="410.5" x2="615.5" y1="1127.3594" y2="1127.3594"/><text fill="#000000" font-family="sans-serif" font-size="14" lengthAdjust="spacing" textLength="93" x="415.5" y="1145.8926">+record(): void</text></g><!--class Dispensing--><g id="elem_Dispensing"><rect codeLine="69" fill="#F6CACA" height="146.75" id="Dispensing" rx="2.5" ry="2.5" style="stroke:#181818;stroke-width:0.5;" width="173" x="315.5" y="143.6094"/><ellipse cx="362.75" cy="164.9609" fill="#ADD1B2" rx="11" ry="11" style="stroke:#181818;stroke-width:1.0;"/><path d="M365.5156,160.8359 Q365.6719,160.6172 365.8594,160.5078 Q366.0469,160.3984 366.2656,160.3984 Q366.6406,160.3984 366.875,160.6641 Q367.1094,160.9141 367.1094,161.5234 L367.1094,162.9766 Q367.1094,163.5859 366.875,163.8516 Q366.6406,164.1172 366.2656,164.1172 Q365.9219,164.1172 365.7188,163.9141 Q365.5156,163.7266 365.4063,163.2109 Q365.3594,162.8516 365.1719,162.6641 Q364.8438,162.2891 364.2344,162.0703 Q363.625,161.8516 363,161.8516 Q362.2344,161.8516 361.5938,162.1797 Q360.9688,162.5078 360.4688,163.2578 Q359.9844,164.0078 359.9844,165.0391 L359.9844,166.1328 Q359.9844,167.3672 360.875,168.1953 Q361.7656,169.0078 363.3594,169.0078 Q364.2969,169.0078 364.9531,168.7578 Q365.3438,168.6016 365.7656,168.1641 Q366.0313,167.8984 366.1719,167.8203 Q366.3281,167.7422 366.5313,167.7422 Q366.8594,167.7422 367.1094,168.0078 Q367.375,168.2578 367.375,168.6016 Q367.375,168.9453 367.0313,169.3516 Q366.5313,169.9297 365.7344,170.2578 Q364.6563,170.7109 363.3594,170.7109 Q361.8438,170.7109 360.6406,170.0859 Q359.6563,169.5859 358.9688,168.5234 Q358.2813,167.4453 358.2813,166.1641 L358.2813,165.0078 Q358.2813,163.6797 358.8906,162.5391 Q359.5156,161.3828 360.6094,160.7734 Q361.7031,160.1484 362.9375,160.1484 Q363.6719,160.1484 364.3125,160.3203 Q364.9688,160.4766 365.5156,160.8359 Z " fill="#000000"/><text fill="#000000" font-family="sans-serif" font-size="12" font-style="italic" lengthAdjust="spacing" textLength="70" x="383.25" y="161.0664">&#171;aggregate&#187;</text><text fill="#000000" font-family="sans-serif" font-size="14" lengthAdjust="spacing" textLength="70" x="383.25" y="178.2363">Dispensing</text><line style="stroke:#181818;stroke-width:0.5;" x1="316.5" x2="487.5" y1="186.3125" y2="186.3125"/><text fill="#000000" font-family="sans-serif" font-size="14" lengthAdjust="spacing" textLength="126" x="321.5" y="204.8457">-idDispensing: Long</text><text fill="#000000" font-family="sans-serif" font-size="14" lengthAdjust="spacing" textLength="102" x="321.5" y="222.4551">-date: DateTime</text><text fill="#000000" font-family="sans-serif" font-size="14" lengthAdjust="spacing" textLength="161" x="321.5" y="240.0645">-status: DispensingStatus</text><line style="stroke:#181818;stroke-width:0.5;" x1="316.5" x2="487.5" y1="247.1406" y2="247.1406"/><text fill="#000000" font-family="sans-serif" font-size="14" lengthAdjust="spacing" textLength="144" x="321.5" y="265.6738">+recordDelivery(): void</text><text fill="#000000" font-family="sans-serif" font-size="14" lengthAdjust="spacing" textLength="78" x="321.5" y="283.2832">+void(): void</text></g><!--class DispensingItem--><g id="elem_DispensingItem"><rect codeLine="77" fill="#DDEBFF" height="111.5313" id="DispensingItem" rx="2.5" ry="2.5" style="stroke:#181818;stroke-width:0.5;" width="180" x="438" y="350.6094"/><ellipse cx="476.4" cy="371.9609" fill="#ADD1B2" rx="11" ry="11" style="stroke:#181818;stroke-width:1.0;"/><path d="M479.1656,367.8359 Q479.3219,367.6172 479.5094,367.5078 Q479.6969,367.3984 479.9156,367.3984 Q480.2906,367.3984 480.525,367.6641 Q480.7594,367.9141 480.7594,368.5234 L480.7594,369.9766 Q480.7594,370.5859 480.525,370.8516 Q480.2906,371.1172 479.9156,371.1172 Q479.5719,371.1172 479.3688,370.9141 Q479.1656,370.7266 479.0563,370.2109 Q479.0094,369.8516 478.8219,369.6641 Q478.4938,369.2891 477.8844,369.0703 Q477.275,368.8516 476.65,368.8516 Q475.8844,368.8516 475.2438,369.1797 Q474.6188,369.5078 474.1188,370.2578 Q473.6344,371.0078 473.6344,372.0391 L473.6344,373.1328 Q473.6344,374.3672 474.525,375.1953 Q475.4156,376.0078 477.0094,376.0078 Q477.9469,376.0078 478.6031,375.7578 Q478.9938,375.6016 479.4156,375.1641 Q479.6813,374.8984 479.8219,374.8203 Q479.9781,374.7422 480.1813,374.7422 Q480.5094,374.7422 480.7594,375.0078 Q481.025,375.2578 481.025,375.6016 Q481.025,375.9453 480.6813,376.3516 Q480.1813,376.9297 479.3844,377.2578 Q478.3063,377.7109 477.0094,377.7109 Q475.4938,377.7109 474.2906,377.0859 Q473.3063,376.5859 472.6188,375.5234 Q471.9313,374.4453 471.9313,373.1641 L471.9313,372.0078 Q471.9313,370.6797 472.5406,369.5391 Q473.1656,368.3828 474.2594,367.7734 Q475.3531,367.1484 476.5875,367.1484 Q477.3219,367.1484 477.9625,367.3203 Q478.6188,367.4766 479.1656,367.8359 Z " fill="#000000"/><text fill="#000000" font-family="sans-serif" font-size="12" font-style="italic" lengthAdjust="spacing" textLength="43" x="522.1" y="368.0664">&#171;entity&#187;</text><text fill="#000000" font-family="sans-serif" font-size="14" lengthAdjust="spacing" textLength="96" x="495.6" y="385.2363">DispensingItem</text><line style="stroke:#181818;stroke-width:0.5;" x1="439" x2="617" y1="393.3125" y2="393.3125"/><text fill="#000000" font-family="sans-serif" font-size="14" lengthAdjust="spacing" textLength="152" x="444" y="411.8457">-idDispensingItem: Long</text><text fill="#000000" font-family="sans-serif" font-size="14" lengthAdjust="spacing" textLength="168" x="444" y="429.4551">-deliveredQuantity: Integer</text><line style="stroke:#181818;stroke-width:0.5;" x1="439" x2="617" y1="436.5313" y2="436.5313"/><text fill="#000000" font-family="sans-serif" font-size="14" lengthAdjust="spacing" textLength="146" x="444" y="455.0645">+recordQuantity(): void</text></g><!--class StockAlert--><g id="elem_StockAlert"><rect codeLine="83" fill="#DDEBFF" height="146.75" id="StockAlert" rx="2.5" ry="2.5" style="stroke:#181818;stroke-width:0.5;" width="164" x="652" y="997.1094"/><ellipse cx="697.75" cy="1018.4609" fill="#ADD1B2" rx="11" ry="11" style="stroke:#181818;stroke-width:1.0;"/><path d="M700.5156,1014.3359 Q700.6719,1014.1172 700.8594,1014.0078 Q701.0469,1013.8984 701.2656,1013.8984 Q701.6406,1013.8984 701.875,1014.1641 Q702.1094,1014.4141 702.1094,1015.0234 L702.1094,1016.4766 Q702.1094,1017.0859 701.875,1017.3516 Q701.6406,1017.6172 701.2656,1017.6172 Q700.9219,1017.6172 700.7188,1017.4141 Q700.5156,1017.2266 700.4063,1016.7109 Q700.3594,1016.3516 700.1719,1016.1641 Q699.8438,1015.7891 699.2344,1015.5703 Q698.625,1015.3516 698,1015.3516 Q697.2344,1015.3516 696.5938,1015.6797 Q695.9688,1016.0078 695.4688,1016.7578 Q694.9844,1017.5078 694.9844,1018.5391 L694.9844,1019.6328 Q694.9844,1020.8672 695.875,1021.6953 Q696.7656,1022.5078 698.3594,1022.5078 Q699.2969,1022.5078 699.9531,1022.2578 Q700.3438,1022.1016 700.7656,1021.6641 Q701.0313,1021.3984 701.1719,1021.3203 Q701.3281,1021.2422 701.5313,1021.2422 Q701.8594,1021.2422 702.1094,1021.5078 Q702.375,1021.7578 702.375,1022.1016 Q702.375,1022.4453 702.0313,1022.8516 Q701.5313,1023.4297 700.7344,1023.7578 Q699.6563,1024.2109 698.3594,1024.2109 Q696.8438,1024.2109 695.6406,1023.5859 Q694.6563,1023.0859 693.9688,1022.0234 Q693.2813,1020.9453 693.2813,1019.6641 L693.2813,1018.5078 Q693.2813,1017.1797 693.8906,1016.0391 Q694.5156,1014.8828 695.6094,1014.2734 Q696.7031,1013.6484 697.9375,1013.6484 Q698.6719,1013.6484 699.3125,1013.8203 Q699.9688,1013.9766 700.5156,1014.3359 Z " fill="#000000"/><text fill="#000000" font-family="sans-serif" font-size="12" font-style="italic" lengthAdjust="spacing" textLength="43" x="728.75" y="1014.5664">&#171;entity&#187;</text><text fill="#000000" font-family="sans-serif" font-size="14" lengthAdjust="spacing" textLength="64" x="718.25" y="1031.7363">StockAlert</text><line style="stroke:#181818;stroke-width:0.5;" x1="653" x2="815" y1="1039.8125" y2="1039.8125"/><text fill="#000000" font-family="sans-serif" font-size="14" lengthAdjust="spacing" textLength="120" x="658" y="1058.3457">-idStockAlert: Long</text><text fill="#000000" font-family="sans-serif" font-size="14" lengthAdjust="spacing" textLength="105" x="658" y="1075.9551">-level: AlertLevel</text><text fill="#000000" font-family="sans-serif" font-size="14" lengthAdjust="spacing" textLength="107" x="658" y="1093.5645">-message: String</text><text fill="#000000" font-family="sans-serif" font-size="14" lengthAdjust="spacing" textLength="152" x="658" y="1111.1738">-generatedAt: DateTime</text><line style="stroke:#181818;stroke-width:0.5;" x1="653" x2="815" y1="1118.25" y2="1118.25"/><text fill="#000000" font-family="sans-serif" font-size="14" lengthAdjust="spacing" textLength="144" x="658" y="1136.7832">+markReviewed(): void</text></g><!--class MedicationStatus--><g id="elem_MedicationStatus"><rect codeLine="91" fill="#F1F1F1" height="83.2188" id="MedicationStatus" rx="2.5" ry="2.5" style="stroke:#181818;stroke-width:0.5;" width="140" x="658" y="796.1094"/><ellipse cx="673" cy="812.1094" fill="#EB937F" rx="11" ry="11" style="stroke:#181818;stroke-width:1.0;"/><path d="M671.8594,812.9063 L671.8594,815.4063 L676.1875,815.4063 L676.1875,814.4844 Q676.1875,813.875 676.4219,813.6094 Q676.6719,813.3438 677.0469,813.3438 Q677.4219,813.3438 677.6563,813.6094 Q677.8906,813.875 677.8906,814.4844 L677.8906,817.1094 L669.8906,817.1094 Q669.2656,817.1094 669,816.875 Q668.75,816.6406 668.75,816.25 Q668.75,815.875 669.0156,815.6406 Q669.2813,815.4063 669.8906,815.4063 L670.1563,815.4063 L670.1563,808.75 L669.8906,808.75 Q669.2656,808.75 669,808.5156 Q668.75,808.2813 668.75,807.8906 Q668.75,807.5156 669,807.2813 Q669.2656,807.0469 669.8906,807.0469 L677.5156,807.0469 L677.5156,809.6406 Q677.5156,810.25 677.2813,810.5156 Q677.0625,810.7656 676.6719,810.7656 Q676.2969,810.7656 676.0625,810.5156 Q675.8281,810.25 675.8281,809.6406 L675.8281,808.75 L671.8594,808.75 L671.8594,811.2031 L673.3438,811.2031 Q673.3438,810.5469 673.4688,810.3594 Q673.7344,809.9531 674.2031,809.9531 Q674.5781,809.9531 674.8125,810.2188 Q675.0469,810.4688 675.0469,811.0781 L675.0469,813.0469 Q675.0469,813.5938 674.9219,813.7813 Q674.6563,814.1719 674.2031,814.1719 Q673.7344,814.1719 673.4688,813.7656 Q673.3438,813.5781 673.3438,812.9063 L671.8594,812.9063 Z " fill="#000000"/><text fill="#000000" font-family="sans-serif" font-size="14" lengthAdjust="spacing" textLength="108" x="687" y="817.8379">MedicationStatus</text><line style="stroke:#181818;stroke-width:0.5;" x1="659" x2="797" y1="828.1094" y2="828.1094"/><text fill="#000000" font-family="sans-serif" font-size="14" lengthAdjust="spacing" textLength="49" x="664" y="846.6426">ACTIVE</text><text fill="#000000" font-family="sans-serif" font-size="14" lengthAdjust="spacing" textLength="61" x="664" y="864.252">INACTIVE</text><line style="stroke:#181818;stroke-width:0.5;" x1="659" x2="797" y1="871.3281" y2="871.3281"/></g><!--class InventoryMovementType--><g id="elem_InventoryMovementType"><rect codeLine="96" fill="#F1F1F1" height="100.8281" id="InventoryMovementType" rx="2.5" ry="2.5" style="stroke:#181818;stroke-width:0.5;" width="187" x="419.5" y="1212.6094"/><ellipse cx="434.5" cy="1228.6094" fill="#EB937F" rx="11" ry="11" style="stroke:#181818;stroke-width:1.0;"/><path d="M433.3594,1229.4063 L433.3594,1231.9063 L437.6875,1231.9063 L437.6875,1230.9844 Q437.6875,1230.375 437.9219,1230.1094 Q438.1719,1229.8438 438.5469,1229.8438 Q438.9219,1229.8438 439.1563,1230.1094 Q439.3906,1230.375 439.3906,1230.9844 L439.3906,1233.6094 L431.3906,1233.6094 Q430.7656,1233.6094 430.5,1233.375 Q430.25,1233.1406 430.25,1232.75 Q430.25,1232.375 430.5156,1232.1406 Q430.7813,1231.9063 431.3906,1231.9063 L431.6563,1231.9063 L431.6563,1225.25 L431.3906,1225.25 Q430.7656,1225.25 430.5,1225.0156 Q430.25,1224.7813 430.25,1224.3906 Q430.25,1224.0156 430.5,1223.7813 Q430.7656,1223.5469 431.3906,1223.5469 L439.0156,1223.5469 L439.0156,1226.1406 Q439.0156,1226.75 438.7813,1227.0156 Q438.5625,1227.2656 438.1719,1227.2656 Q437.7969,1227.2656 437.5625,1227.0156 Q437.3281,1226.75 437.3281,1226.1406 L437.3281,1225.25 L433.3594,1225.25 L433.3594,1227.7031 L434.8438,1227.7031 Q434.8438,1227.0469 434.9688,1226.8594 Q435.2344,1226.4531 435.7031,1226.4531 Q436.0781,1226.4531 436.3125,1226.7188 Q436.5469,1226.9688 436.5469,1227.5781 L436.5469,1229.5469 Q436.5469,1230.0938 436.4219,1230.2813 Q436.1563,1230.6719 435.7031,1230.6719 Q435.2344,1230.6719 434.9688,1230.2656 Q434.8438,1230.0781 434.8438,1229.4063 L433.3594,1229.4063 Z " fill="#000000"/><text fill="#000000" font-family="sans-serif" font-size="14" lengthAdjust="spacing" textLength="155" x="448.5" y="1234.3379">InventoryMovementType</text><line style="stroke:#181818;stroke-width:0.5;" x1="420.5" x2="605.5" y1="1244.6094" y2="1244.6094"/><text fill="#000000" font-family="sans-serif" font-size="14" lengthAdjust="spacing" textLength="60" x="425.5" y="1263.1426">INBOUND</text><text fill="#000000" font-family="sans-serif" font-size="14" lengthAdjust="spacing" textLength="77" x="425.5" y="1280.752">OUTBOUND</text><text fill="#000000" font-family="sans-serif" font-size="14" lengthAdjust="spacing" textLength="90" x="425.5" y="1298.3613">ADJUSTMENT</text><line style="stroke:#181818;stroke-width:0.5;" x1="420.5" x2="605.5" y1="1305.4375" y2="1305.4375"/></g><!--class DispensingStatus--><g id="elem_DispensingStatus"><rect codeLine="102" fill="#F1F1F1" height="100.8281" id="DispensingStatus" rx="2.5" ry="2.5" style="stroke:#181818;stroke-width:0.5;" width="142" x="653" y="356.1094"/><ellipse cx="668" cy="372.1094" fill="#EB937F" rx="11" ry="11" style="stroke:#181818;stroke-width:1.0;"/><path d="M666.8594,372.9063 L666.8594,375.4063 L671.1875,375.4063 L671.1875,374.4844 Q671.1875,373.875 671.4219,373.6094 Q671.6719,373.3438 672.0469,373.3438 Q672.4219,373.3438 672.6563,373.6094 Q672.8906,373.875 672.8906,374.4844 L672.8906,377.1094 L664.8906,377.1094 Q664.2656,377.1094 664,376.875 Q663.75,376.6406 663.75,376.25 Q663.75,375.875 664.0156,375.6406 Q664.2813,375.4063 664.8906,375.4063 L665.1563,375.4063 L665.1563,368.75 L664.8906,368.75 Q664.2656,368.75 664,368.5156 Q663.75,368.2813 663.75,367.8906 Q663.75,367.5156 664,367.2813 Q664.2656,367.0469 664.8906,367.0469 L672.5156,367.0469 L672.5156,369.6406 Q672.5156,370.25 672.2813,370.5156 Q672.0625,370.7656 671.6719,370.7656 Q671.2969,370.7656 671.0625,370.5156 Q670.8281,370.25 670.8281,369.6406 L670.8281,368.75 L666.8594,368.75 L666.8594,371.2031 L668.3438,371.2031 Q668.3438,370.5469 668.4688,370.3594 Q668.7344,369.9531 669.2031,369.9531 Q669.5781,369.9531 669.8125,370.2188 Q670.0469,370.4688 670.0469,371.0781 L670.0469,373.0469 Q670.0469,373.5938 669.9219,373.7813 Q669.6563,374.1719 669.2031,374.1719 Q668.7344,374.1719 668.4688,373.7656 Q668.3438,373.5781 668.3438,372.9063 L666.8594,372.9063 Z " fill="#000000"/><text fill="#000000" font-family="sans-serif" font-size="14" lengthAdjust="spacing" textLength="110" x="682" y="377.8379">DispensingStatus</text><line style="stroke:#181818;stroke-width:0.5;" x1="654" x2="794" y1="388.1094" y2="388.1094"/><text fill="#000000" font-family="sans-serif" font-size="14" lengthAdjust="spacing" textLength="60" x="659" y="406.6426">PENDING</text><text fill="#000000" font-family="sans-serif" font-size="14" lengthAdjust="spacing" textLength="77" x="659" y="424.252">DISPENSED</text><text fill="#000000" font-family="sans-serif" font-size="14" lengthAdjust="spacing" textLength="52" x="659" y="441.8613">VOIDED</text><line style="stroke:#181818;stroke-width:0.5;" x1="654" x2="794" y1="448.9375" y2="448.9375"/></g><!--class AlertLevel--><g id="elem_AlertLevel"><rect codeLine="108" fill="#F1F1F1" height="100.8281" id="AlertLevel" rx="2.5" ry="2.5" style="stroke:#181818;stroke-width:0.5;" width="137" x="665.5" y="1212.6094"/><ellipse cx="699.4" cy="1228.6094" fill="#EB937F" rx="11" ry="11" style="stroke:#181818;stroke-width:1.0;"/><path d="M698.2594,1229.4063 L698.2594,1231.9063 L702.5875,1231.9063 L702.5875,1230.9844 Q702.5875,1230.375 702.8219,1230.1094 Q703.0719,1229.8438 703.4469,1229.8438 Q703.8219,1229.8438 704.0563,1230.1094 Q704.2906,1230.375 704.2906,1230.9844 L704.2906,1233.6094 L696.2906,1233.6094 Q695.6656,1233.6094 695.4,1233.375 Q695.15,1233.1406 695.15,1232.75 Q695.15,1232.375 695.4156,1232.1406 Q695.6813,1231.9063 696.2906,1231.9063 L696.5563,1231.9063 L696.5563,1225.25 L696.2906,1225.25 Q695.6656,1225.25 695.4,1225.0156 Q695.15,1224.7813 695.15,1224.3906 Q695.15,1224.0156 695.4,1223.7813 Q695.6656,1223.5469 696.2906,1223.5469 L703.9156,1223.5469 L703.9156,1226.1406 Q703.9156,1226.75 703.6813,1227.0156 Q703.4625,1227.2656 703.0719,1227.2656 Q702.6969,1227.2656 702.4625,1227.0156 Q702.2281,1226.75 702.2281,1226.1406 L702.2281,1225.25 L698.2594,1225.25 L698.2594,1227.7031 L699.7438,1227.7031 Q699.7438,1227.0469 699.8688,1226.8594 Q700.1344,1226.4531 700.6031,1226.4531 Q700.9781,1226.4531 701.2125,1226.7188 Q701.4469,1226.9688 701.4469,1227.5781 L701.4469,1229.5469 Q701.4469,1230.0938 701.3219,1230.2813 Q701.0563,1230.6719 700.6031,1230.6719 Q700.1344,1230.6719 699.8688,1230.2656 Q699.7438,1230.0781 699.7438,1229.4063 L698.2594,1229.4063 Z " fill="#000000"/><text fill="#000000" font-family="sans-serif" font-size="14" lengthAdjust="spacing" textLength="63" x="717.6" y="1234.3379">AlertLevel</text><line style="stroke:#181818;stroke-width:0.5;" x1="666.5" x2="801.5" y1="1244.6094" y2="1244.6094"/><text fill="#000000" font-family="sans-serif" font-size="14" lengthAdjust="spacing" textLength="88" x="671.5" y="1263.1426">LOW_STOCK</text><text fill="#000000" font-family="sans-serif" font-size="14" lengthAdjust="spacing" textLength="125" x="671.5" y="1280.752">NEAR_EXPIRATION</text><text fill="#000000" font-family="sans-serif" font-size="14" lengthAdjust="spacing" textLength="113" x="671.5" y="1298.3613">OUT_OF_STOCK</text><line style="stroke:#181818;stroke-width:0.5;" x1="666.5" x2="801.5" y1="1305.4375" y2="1305.4375"/></g><!--link Medication to MedicationInventory--><g id="link_Medication_MedicationInventory"><path codeLine="114" d="M647.25,686.6394 C647.25,728.8794 647.25,771.6094 647.25,771.6094 C647.25,771.6094 615.46,771.6094 577.21,771.6094 " fill="none" id="Medication-MedicationInventory" style="stroke:#181818;stroke-width:1.0;"/><text fill="#000000" font-family="sans-serif" font-size="13" lengthAdjust="spacing" textLength="7" x="632.4832" y="708.4338">1</text><text fill="#000000" font-family="sans-serif" font-size="13" lengthAdjust="spacing" textLength="7" x="584.9401" y="764.8374">1</text></g><!--link MedicationInventory to PharmacyBranchId--><g id="link_MedicationInventory_PharmacyBranchId"><path codeLine="115" d="M316.73,837.6094 C220.08,837.6094 105,837.6094 105,837.6094 C105,837.6094 105,960.2894 105,1026.3994 " fill="none" id="MedicationInventory-to-PharmacyBranchId" style="stroke:#181818;stroke-width:1.0;"/><polygon fill="#181818" points="105,1032.3994,109,1023.3994,105,1027.3994,101,1023.3994,105,1032.3994" style="stroke:#181818;stroke-width:1.0;"/><text fill="#000000" font-family="sans-serif" font-size="13" lengthAdjust="spacing" textLength="39" x="73.47" y="834.1045">branch</text><text fill="#000000" font-family="sans-serif" font-size="13" lengthAdjust="spacing" textLength="7" x="301.9964" y="834.6531">1</text><text fill="#000000" font-family="sans-serif" font-size="13" lengthAdjust="spacing" textLength="7" x="97.5547" y="1021.6668">1</text></g><!--reverse link MedicationInventory to MedicationBatch--><g id="link_MedicationInventory_MedicationBatch"><path codeLine="116" d="M345.5,940.6894 C345.5,963.2894 345.5,975.2194 345.5,996.8594 " fill="none" id="MedicationInventory-backto-MedicationBatch" style="stroke:#181818;stroke-width:1.0;"/><polygon fill="#181818" points="345.5,928.6894,341.5,934.6894,345.5,940.6894,349.5,934.6894,345.5,928.6894" style="stroke:#181818;stroke-width:1.0;"/><text fill="#000000" font-family="sans-serif" font-size="13" lengthAdjust="spacing" textLength="7" x="330.1328" y="950.0952">1</text><text fill="#000000" font-family="sans-serif" font-size="13" lengthAdjust="spacing" textLength="20" x="330.4711" y="986.3368">0..*</text></g><!--reverse link MedicationInventory to InventoryMovement--><g id="link_MedicationInventory_InventoryMovement"><path codeLine="117" d="M493.25,940.6894 C493.25,960.3494 493.25,969.0194 493.25,988.3194 " fill="none" id="MedicationInventory-backto-InventoryMovement" style="stroke:#181818;stroke-width:1.0;"/><polygon fill="#181818" points="493.25,928.6894,489.25,934.6894,493.25,940.6894,497.25,934.6894,493.25,928.6894" style="stroke:#181818;stroke-width:1.0;"/><text fill="#000000" font-family="sans-serif" font-size="13" lengthAdjust="spacing" textLength="7" x="489.6566" y="950.0952">1</text><text fill="#000000" font-family="sans-serif" font-size="13" lengthAdjust="spacing" textLength="20" x="470.6004" y="977.7727">0..*</text></g><!--link MedicationInventory to StockAlert--><g id="link_MedicationInventory_StockAlert"><path codeLine="118" d="M577.22,904.6094 C650.72,904.6094 728,904.6094 728,904.6094 C728,904.6094 728,946.4994 728,990.8294 " fill="none" id="MedicationInventory-to-StockAlert" style="stroke:#181818;stroke-width:1.0;"/><polygon fill="#181818" points="728,996.8294,732,987.8294,728,991.8294,724,987.8294,728,996.8294" style="stroke:#181818;stroke-width:1.0;"/><text fill="#000000" font-family="sans-serif" font-size="13" lengthAdjust="spacing" textLength="7" x="584.9507" y="905.5265">1</text><text fill="#000000" font-family="sans-serif" font-size="13" lengthAdjust="spacing" textLength="20" x="706.425" y="986.3039">0..*</text></g><!--link Dispensing to PharmacyPrescriptionId--><g id="link_Dispensing_PharmacyPrescriptionId"><path codeLine="119" d="M315.4,217.6094 C232.83,217.6094 121,217.6094 121,217.6094 C121,217.6094 121,307.1394 121,362.3594 " fill="none" id="Dispensing-to-PharmacyPrescriptionId" style="stroke:#181818;stroke-width:1.0;"/><polygon fill="#181818" points="121,368.3594,125,359.3594,121,363.3594,117,359.3594,121,368.3594" style="stroke:#181818;stroke-width:1.0;"/><text fill="#000000" font-family="sans-serif" font-size="13" lengthAdjust="spacing" textLength="67" x="74.82" y="214.1045">prescription</text><text fill="#000000" font-family="sans-serif" font-size="13" lengthAdjust="spacing" textLength="7" x="300.3755" y="214.4633">1</text><text fill="#000000" font-family="sans-serif" font-size="13" lengthAdjust="spacing" textLength="7" x="113.3766" y="357.6197">1</text></g><!--link Dispensing to PharmacyPharmacistId--><g id="link_Dispensing_PharmacyPharmacistId"><path codeLine="120" d="M340.75,290.6494 C340.75,317.2794 340.75,340.2694 340.75,362.5994 " fill="none" id="Dispensing-to-PharmacyPharmacistId" style="stroke:#181818;stroke-width:1.0;"/><polygon fill="#181818" points="340.75,368.5994,344.75,359.5994,340.75,363.5994,336.75,359.5994,340.75,368.5994" style="stroke:#181818;stroke-width:1.0;"/><text fill="#000000" font-family="sans-serif" font-size="13" lengthAdjust="spacing" textLength="64" x="275.75" y="326.1245">pharmacist</text><text fill="#000000" font-family="sans-serif" font-size="13" lengthAdjust="spacing" textLength="7" x="327.5785" y="311.9449">1</text><text fill="#000000" font-family="sans-serif" font-size="13" lengthAdjust="spacing" textLength="7" x="341.1711" y="357.615">1</text></g><!--reverse link Dispensing to DispensingItem--><g id="link_Dispensing_DispensingItem"><path codeLine="121" d="M463.25,302.6494 C463.25,322.5194 463.25,331.6994 463.25,350.4494 " fill="none" id="Dispensing-backto-DispensingItem" style="stroke:#181818;stroke-width:1.0;"/><polygon fill="#181818" points="463.25,290.6494,459.25,296.6494,463.25,302.6494,467.25,296.6494,463.25,290.6494" style="stroke:#181818;stroke-width:1.0;"/><text fill="#000000" font-family="sans-serif" font-size="13" lengthAdjust="spacing" textLength="7" x="461.7543" y="311.9449">1</text><text fill="#000000" font-family="sans-serif" font-size="13" lengthAdjust="spacing" textLength="20" x="433.6727" y="339.7765">1..*</text></g><!--link DispensingItem to PharmacyPrescriptionItemId--><g id="link_DispensingItem_PharmacyPrescriptionItemId"><path codeLine="122" d="M523,462.8194 C523,495.9794 523,531.0594 523,560.4594 " fill="none" id="DispensingItem-to-PharmacyPrescriptionItemId" style="stroke:#181818;stroke-width:1.0;"/><polygon fill="#181818" points="523,566.4594,527,557.4594,523,561.4594,519,557.4594,523,566.4594" style="stroke:#181818;stroke-width:1.0;"/><text fill="#000000" font-family="sans-serif" font-size="13" lengthAdjust="spacing" textLength="92" x="430" y="511.1345">prescriptionItem</text><text fill="#000000" font-family="sans-serif" font-size="13" lengthAdjust="spacing" textLength="7" x="515.0172" y="483.7862">1</text><text fill="#000000" font-family="sans-serif" font-size="13" lengthAdjust="spacing" textLength="7" x="515.3766" y="555.7375">1</text></g><!--link DispensingItem to Medication--><g id="link_DispensingItem_Medication"><path codeLine="123" d="M612,462.7394 C612,500.9494 612,544.6094 612,544.6094 C612,544.6094 619.09,544.6094 636.48,544.6094 " fill="none" id="DispensingItem-to-Medication" style="stroke:#181818;stroke-width:1.0;"/><polygon fill="#181818" points="642.48,544.6094,633.48,540.6094,637.48,544.6094,633.48,548.6094,642.48,544.6094" style="stroke:#181818;stroke-width:1.0;"/><text fill="#000000" font-family="sans-serif" font-size="13" lengthAdjust="spacing" textLength="7" x="614.3078" y="483.6969">1</text><text fill="#000000" font-family="sans-serif" font-size="13" lengthAdjust="spacing" textLength="7" x="627.5517" y="536.0479">1</text></g><!--link Dispensing to MedicationInventory--><g id="link_Dispensing_MedicationInventory"><path codeLine="124" d="M402,290.7294 C402,404.5294 402,616.9094 402,740.4994 " fill="none" id="Dispensing-to-MedicationInventory" style="stroke:#181818;stroke-width:1.0;"/><polygon fill="#181818" points="402,746.4994,406,737.4994,402,741.4994,398,737.4994,402,746.4994" style="stroke:#181818;stroke-width:1.0;"/><text fill="#000000" font-family="sans-serif" font-size="13" lengthAdjust="spacing" textLength="7" x="394.6773" y="311.7766">1</text><text fill="#000000" font-family="sans-serif" font-size="13" lengthAdjust="spacing" textLength="7" x="390.9836" y="735.8028">1</text></g><!--link Medication to MedicationStatus--><g id="link_Medication_MedicationStatus"><path codeLine="125" d="M728,686.7594 C728,723.6994 728,759.7094 728,789.9994 " fill="none" id="Medication-to-MedicationStatus" style="stroke:#181818;stroke-width:1.0;"/><polygon fill="#181818" points="728,795.9994,732,786.9994,728,790.9994,724,786.9994,728,795.9994" style="stroke:#181818;stroke-width:1.0;"/><text fill="#000000" font-family="sans-serif" font-size="13" lengthAdjust="spacing" textLength="36" x="691" y="737.8745">status</text></g><!--link InventoryMovement to InventoryMovementType--><g id="link_InventoryMovement_InventoryMovementType"><path codeLine="126" d="M513,1152.8094 C513,1173.0394 513,1188.1194 513,1206.3694 " fill="none" id="InventoryMovement-to-InventoryMovementType" style="stroke:#181818;stroke-width:1.0;"/><polygon fill="#181818" points="513,1212.3694,517,1203.3694,513,1207.3694,509,1203.3694,513,1212.3694" style="stroke:#181818;stroke-width:1.0;"/><text fill="#000000" font-family="sans-serif" font-size="13" lengthAdjust="spacing" textLength="25" x="487" y="1179.0845">type</text></g><!--link Dispensing to DispensingStatus--><g id="link_Dispensing_DispensingStatus"><path codeLine="127" d="M488.71,217.6094 C584.09,217.6094 724,217.6094 724,217.6094 C724,217.6094 724,293.9794 724,349.9594 " fill="none" id="Dispensing-to-DispensingStatus" style="stroke:#181818;stroke-width:1.0;"/><polygon fill="#181818" points="724,355.9594,728,346.9594,724,350.9594,720,346.9594,724,355.9594" style="stroke:#181818;stroke-width:1.0;"/><text fill="#000000" font-family="sans-serif" font-size="13" lengthAdjust="spacing" textLength="36" x="638.53" y="214.1045">status</text></g><!--link StockAlert to AlertLevel--><g id="link_StockAlert_AlertLevel"><path codeLine="128" d="M734,1144.2094 C734,1167.0294 734,1185.6494 734,1206.5394 " fill="none" id="StockAlert-to-AlertLevel" style="stroke:#181818;stroke-width:1.0;"/><polygon fill="#181818" points="734,1212.5394,738,1203.5394,734,1207.5394,730,1203.5394,734,1212.5394" style="stroke:#181818;stroke-width:1.0;"/><text fill="#000000" font-family="sans-serif" font-size="13" lengthAdjust="spacing" textLength="25" x="708" y="1174.8645">level</text></g><rect fill="#DDDDDD" height="66.8281" id="_legend" rx="7.5" ry="7.5" style="stroke:#000000;stroke-width:1.0;" width="99" x="737" y="1370.6094"/><rect fill="#F6CACA" height="17.6094" style="stroke:none;stroke-width:1.0;" width="89" x="742" y="1377.6094"/><text fill="#000000" font-family="sans-serif" font-size="14" lengthAdjust="spacing" textLength="66" x="746" y="1392.1426">Aggregate</text><rect fill="#DDEBFF" height="17.6094" style="stroke:none;stroke-width:1.0;" width="89" x="742" y="1395.2188"/><text fill="#000000" font-family="sans-serif" font-size="14" lengthAdjust="spacing" textLength="35" x="746" y="1409.752">Entity</text><rect fill="#FFF2B3" height="17.6094" style="stroke:none;stroke-width:1.0;" width="89" x="742" y="1412.8281"/><text fill="#000000" font-family="sans-serif" font-size="14" lengthAdjust="spacing" textLength="81" x="746" y="1427.3613">Value Object</text><line style="stroke:#000000;stroke-width:1.0;" x1="742" x2="831" y1="1377.6094" y2="1377.6094"/><line style="stroke:#000000;stroke-width:1.0;" x1="742" x2="831" y1="1395.2188" y2="1395.2188"/><line style="stroke:#000000;stroke-width:1.0;" x1="742" x2="831" y1="1412.8281" y2="1412.8281"/><line style="stroke:#000000;stroke-width:1.0;" x1="742" x2="831" y1="1430.4375" y2="1430.4375"/><line style="stroke:#000000;stroke-width:1.0;" x1="742" x2="742" y1="1377.6094" y2="1430.4375"/><line style="stroke:#000000;stroke-width:1.0;" x1="831" x2="831" y1="1377.6094" y2="1430.4375"/><!--SRC=[bLPRSwCs57xdLvpnlcGtuqoswVI1oNW66zoXJUmqEDa-T2OZmobM0u8LmhjkT__xIi86OOXnNspfNBzp5OAA1E6P2f9G0cEO9QGemAKavYILzq2G6E56dXusXASat05X4VXiYqnaV0UpZ0dyAgJ0HKryRraYoq5aiCw4o5A8ACTGq8nPLl5AMKwKyL2vSeJWT5qAzCEC1VHVX6j3fDYGAFj2MGn_awH0WvDGXcAN8sHSR3A3aPFmLK8En4x6fRmI5YTeMGd6A85p6c-4zUtstVoNcJDp9k34CSUO28HlYkowtdG-du3711MxYZQVpt-QtapWcIGbmdBzZxGgET9SPTIozavXzFFLG9x-OaQQHl3Ey-RNynlupu8g7p2QSiB2ZH-DW1IriGCHRc-t2aK5OZA1FJXj061CeqhIXhkCnPBstMeiFt0iGavpLOWZ-stMi1TJVjYNmFIKFyt-VpwLJh_VoW4jnB57Wt66hrgwpyizHZGa2eUqH0uDfEtehchiD9Ar7KaFimXjELgS7YYCf4UKN4OhssIlQt8AIImBsq0HQ8hcNfPv9B6uA0XDYeltDcmp6hq5lsdFi-EeLLe1bPnBQY2oyDMMJI_aNF2AbL96qpBjOoLPs0tlahAG8obGQrnyBecUn5grYKZAHdY-hAmuLQbvn3n1HejDAX4F9MXAHBYHoK5jM6McMX1zcT6oPbRMYh0eqpNoTWNnQqwvrd4b81lKRyKXMrasiaxmZ-DOsa5ujON-2EegtMTRL86UZA4ZRKQXjgpTDRYIv4hWSo_KSLI7jgBfNbGLwxZUSaTdFEeFmwL5ZgnG3y10WpQI9lO-38VnQJJCyQdGk9ZGBVBTHRk3v6a8frfC9tFT5cs1hPnYz4RjAsW7PZyGFGXEWlnqmHin4q22MqniqFGxTTvFC1Q5VDpQBIpVFPGDY94ZZX9ycHB- -eXRYb-maovaPTfPN7jSpcpbFtlww2_gIwFMsu9xNNynNJujN7rUFgsQY-F-zXIixht5gcNhkFXxCm_UmlKNl-gpwmVo6dYLdUUbx-fZOwF9qrxxRldf9LWjPx_hsy9p7b-yFn_yHsVbBnS7Q2_BUIsaRHcFoUZZ2CPZ_TUpS5kopUQkb2Rwl_EvOCDQ7q_eVb0Uhw-kFeoEzzvvIfso3E6ir9eMbFB6dFU5S_HrOaDk4CvGDvz-gLnVkwewheyQO7jGMw9wo0U1LfyrRR33ffhKlHtOK7DemSwKsL0S5bttUL0Q_GDcWwXMlG56INT6oB1lh24bQaoA3NhBMD-j7m00]--></g></svg>