<?xml version="1.0" encoding="us-ascii" standalone="no"?><svg xmlns="http://www.w3.org/2000/svg" xmlns:xlink="http://www.w3.org/1999/xlink" contentStyleType="text/css" height="1303px" preserveAspectRatio="none" style="width:1347px;height:1303px;background:#FFFFFF;" version="1.1" viewBox="0 0 1347 1303" width="1347px" zoomAndPan="magnify"><defs/><g><text fill="#000000" font-family="sans-serif" font-size="14" font-weight="bold" lengthAdjust="spacing" textLength="648" x="342.5" y="24.5332">Vitalia - Class Diagram - Stage 3 - Scheduling Context - (Scheduling and Appointment Engine)</text><!--cluster 3--><g id="cluster_3"><rect fill="none" height="1154" rx="2.5" ry="2.5" style="stroke:#000000;stroke-width:1.5;" width="1334" x="7" y="45.6094"/><text fill="#000000" font-family="sans-serif" font-size="14" font-weight="bold" lengthAdjust="spacing" textLength="8" x="670" y="62.1426">3</text></g><!--cluster  Scheduling Context\n(Scheduling and Appointment Engine)--><g id="cluster_ Scheduling Context\n(Scheduling and Appointment Engine)"><rect fill="#F5F0EA" height="1086" rx="2.5" ry="2.5" style="stroke:#000000;stroke-width:1.5;" width="1286" x="31" y="89.6094"/><text fill="#000000" font-family="sans-serif" font-size="14" font-weight="bold" lengthAdjust="spacing" textLength="138" x="607" y="106.1426">Scheduling Context</text><text fill="#000000" font-family="sans-serif" font-size="14" font-weight="bold" lengthAdjust="spacing" textLength="265" x="541.5" y="123.752">(Scheduling and Appointment Engine)</text></g><!--class SchedulingDoctorId--><g id="elem_SchedulingDoctorId"><rect codeLine="17" fill="#FFF2B3" height="76.3125" id="SchedulingDoctorId" rx="2.5" ry="2.5" style="stroke:#181818;stroke-width:0.5;" width="110" x="1191" y="878.6094"/><ellipse cx="1206.9" cy="899.9609" fill="#ADD1B2" rx="11" ry="11" style="stroke:#181818;stroke-width:1.0;"/><path d="M1209.6656,895.8359 Q1209.8219,895.6172 1210.0094,895.5078 Q1210.1969,895.3984 1210.4156,895.3984 Q1210.7906,895.3984 1211.025,895.6641 Q1211.2594,895.9141 1211.2594,896.5234 L1211.2594,897.9766 Q1211.2594,898.5859 1211.025,898.8516 Q1210.7906,899.1172 1210.4156,899.1172 Q1210.0719,899.1172 1209.8688,898.9141 Q1209.6656,898.7266 1209.5563,898.2109 Q1209.5094,897.8516 1209.3219,897.6641 Q1208.9938,897.2891 1208.3844,897.0703 Q1207.775,896.8516 1207.15,896.8516 Q1206.3844,896.8516 1205.7438,897.1797 Q1205.1188,897.5078 1204.6188,898.2578 Q1204.1344,899.0078 1204.1344,900.0391 L1204.1344,901.1328 Q1204.1344,902.3672 1205.025,903.1953 Q1205.9156,904.0078 1207.5094,904.0078 Q1208.4469,904.0078 1209.1031,903.7578 Q1209.4938,903.6016 1209.9156,903.1641 Q1210.1813,902.8984 1210.3219,902.8203 Q1210.4781,902.7422 1210.6813,902.7422 Q1211.0094,902.7422 1211.2594,903.0078 Q1211.525,903.2578 1211.525,903.6016 Q1211.525,903.9453 1211.1813,904.3516 Q1210.6813,904.9297 1209.8844,905.2578 Q1208.8063,905.7109 1207.5094,905.7109 Q1205.9938,905.7109 1204.7906,905.0859 Q1203.8063,904.5859 1203.1188,903.5234 Q1202.4313,902.4453 1202.4313,901.1641 L1202.4313,900.0078 Q1202.4313,898.6797 1203.0406,897.5391 Q1203.6656,896.3828 1204.7594,895.7734 Q1205.8531,895.1484 1207.0875,895.1484 Q1207.8219,895.1484 1208.4625,895.3203 Q1209.1188,895.4766 1209.6656,895.8359 Z " fill="#000000"/><text fill="#000000" font-family="sans-serif" font-size="12" font-style="italic" lengthAdjust="spacing" textLength="80" x="1219.1" y="896.0664">&#171;valueObject&#187;</text><text fill="#000000" font-family="sans-serif" font-size="14" lengthAdjust="spacing" textLength="53" x="1232.6" y="913.2363">DoctorId</text><line style="stroke:#181818;stroke-width:0.5;" x1="1192" x2="1300" y1="921.3125" y2="921.3125"/><text fill="#000000" font-family="sans-serif" font-size="14" lengthAdjust="spacing" textLength="98" x="1197" y="939.8457">-idDoctor: Long</text><line style="stroke:#181818;stroke-width:0.5;" x1="1192" x2="1300" y1="946.9219" y2="946.9219"/></g><!--class SchedulingPatientId--><g id="elem_SchedulingPatientId"><rect codeLine="21" fill="#FFF2B3" height="76.3125" id="SchedulingPatientId" rx="2.5" ry="2.5" style="stroke:#181818;stroke-width:0.5;" width="112" x="47" y="878.6094"/><ellipse cx="63.8" cy="899.9609" fill="#ADD1B2" rx="11" ry="11" style="stroke:#181818;stroke-width:1.0;"/><path d="M66.5656,895.8359 Q66.7219,895.6172 66.9094,895.5078 Q67.0969,895.3984 67.3156,895.3984 Q67.6906,895.3984 67.925,895.6641 Q68.1594,895.9141 68.1594,896.5234 L68.1594,897.9766 Q68.1594,898.5859 67.925,898.8516 Q67.6906,899.1172 67.3156,899.1172 Q66.9719,899.1172 66.7688,898.9141 Q66.5656,898.7266 66.4563,898.2109 Q66.4094,897.8516 66.2219,897.6641 Q65.8938,897.2891 65.2844,897.0703 Q64.675,896.8516 64.05,896.8516 Q63.2844,896.8516 62.6438,897.1797 Q62.0188,897.5078 61.5188,898.2578 Q61.0344,899.0078 61.0344,900.0391 L61.0344,901.1328 Q61.0344,902.3672 61.925,903.1953 Q62.8156,904.0078 64.4094,904.0078 Q65.3469,904.0078 66.0031,903.7578 Q66.3938,903.6016 66.8156,903.1641 Q67.0813,902.8984 67.2219,902.8203 Q67.3781,902.7422 67.5813,902.7422 Q67.9094,902.7422 68.1594,903.0078 Q68.425,903.2578 68.425,903.6016 Q68.425,903.9453 68.0813,904.3516 Q67.5813,904.9297 66.7844,905.2578 Q65.7063,905.7109 64.4094,905.7109 Q62.8938,905.7109 61.6906,905.0859 Q60.7063,904.5859 60.0188,903.5234 Q59.3313,902.4453 59.3313,901.1641 L59.3313,900.0078 Q59.3313,898.6797 59.9406,897.5391 Q60.5656,896.3828 61.6594,895.7734 Q62.7531,895.1484 63.9875,895.1484 Q64.7219,895.1484 65.3625,895.3203 Q66.0188,895.4766 66.5656,895.8359 Z " fill="#000000"/><text fill="#000000" font-family="sans-serif" font-size="12" font-style="italic" lengthAdjust="spacing" textLength="80" x="76.2" y="896.0664">&#171;valueObject&#187;</text><text fill="#000000" font-family="sans-serif" font-size="14" lengthAdjust="spacing" textLength="55" x="88.7" y="913.2363">PatientId</text><line style="stroke:#181818;stroke-width:0.5;" x1="48" x2="158" y1="921.3125" y2="921.3125"/><text fill="#000000" font-family="sans-serif" font-size="14" lengthAdjust="spacing" textLength="100" x="53" y="939.8457">-idPatient: Long</text><line style="stroke:#181818;stroke-width:0.5;" x1="48" x2="158" y1="946.9219" y2="946.9219"/></g><!--class SchedulingBranchId--><g id="elem_SchedulingBranchId"><rect codeLine="25" fill="#FFF2B3" height="76.3125" id="SchedulingBranchId" rx="2.5" ry="2.5" style="stroke:#181818;stroke-width:0.5;" width="113" x="587.5" y="394.6094"/><ellipse cx="604.75" cy="415.9609" fill="#ADD1B2" rx="11" ry="11" style="stroke:#181818;stroke-width:1.0;"/><path d="M607.5156,411.8359 Q607.6719,411.6172 607.8594,411.5078 Q608.0469,411.3984 608.2656,411.3984 Q608.6406,411.3984 608.875,411.6641 Q609.1094,411.9141 609.1094,412.5234 L609.1094,413.9766 Q609.1094,414.5859 608.875,414.8516 Q608.6406,415.1172 608.2656,415.1172 Q607.9219,415.1172 607.7188,414.9141 Q607.5156,414.7266 607.4063,414.2109 Q607.3594,413.8516 607.1719,413.6641 Q606.8438,413.2891 606.2344,413.0703 Q605.625,412.8516 605,412.8516 Q604.2344,412.8516 603.5938,413.1797 Q602.9688,413.5078 602.4688,414.2578 Q601.9844,415.0078 601.9844,416.0391 L601.9844,417.1328 Q601.9844,418.3672 602.875,419.1953 Q603.7656,420.0078 605.3594,420.0078 Q606.2969,420.0078 606.9531,419.7578 Q607.3438,419.6016 607.7656,419.1641 Q608.0313,418.8984 608.1719,418.8203 Q608.3281,418.7422 608.5313,418.7422 Q608.8594,418.7422 609.1094,419.0078 Q609.375,419.2578 609.375,419.6016 Q609.375,419.9453 609.0313,420.3516 Q608.5313,420.9297 607.7344,421.2578 Q606.6563,421.7109 605.3594,421.7109 Q603.8438,421.7109 602.6406,421.0859 Q601.6563,420.5859 600.9688,419.5234 Q600.2813,418.4453 600.2813,417.1641 L600.2813,416.0078 Q600.2813,414.6797 600.8906,413.5391 Q601.5156,412.3828 602.6094,411.7734 Q603.7031,411.1484 604.9375,411.1484 Q605.6719,411.1484 606.3125,411.3203 Q606.9688,411.4766 607.5156,411.8359 Z " fill="#000000"/><text fill="#000000" font-family="sans-serif" font-size="12" font-style="italic" lengthAdjust="spacing" textLength="80" x="617.25" y="412.0664">&#171;valueObject&#187;</text><text fill="#000000" font-family="sans-serif" font-size="14" lengthAdjust="spacing" textLength="56" x="629.25" y="429.2363">BranchId</text><line style="stroke:#181818;stroke-width:0.5;" x1="588.5" x2="699.5" y1="437.3125" y2="437.3125"/><text fill="#000000" font-family="sans-serif" font-size="14" lengthAdjust="spacing" textLength="101" x="593.5" y="455.8457">-idBranch: Long</text><line style="stroke:#181818;stroke-width:0.5;" x1="588.5" x2="699.5" y1="462.9219" y2="462.9219"/></g><!--class SchedulingEncounterId--><g id="elem_SchedulingEncounterId"><rect codeLine="29" fill="#FFF2B3" height="76.3125" id="SchedulingEncounterId" rx="2.5" ry="2.5" style="stroke:#181818;stroke-width:0.5;" width="133" x="1022.5" y="878.6094"/><ellipse cx="1048.75" cy="899.9609" fill="#ADD1B2" rx="11" ry="11" style="stroke:#181818;stroke-width:1.0;"/><path d="M1051.5156,895.8359 Q1051.6719,895.6172 1051.8594,895.5078 Q1052.0469,895.3984 1052.2656,895.3984 Q1052.6406,895.3984 1052.875,895.6641 Q1053.1094,895.9141 1053.1094,896.5234 L1053.1094,897.9766 Q1053.1094,898.5859 1052.875,898.8516 Q1052.6406,899.1172 1052.2656,899.1172 Q1051.9219,899.1172 1051.7188,898.9141 Q1051.5156,898.7266 1051.4063,898.2109 Q1051.3594,897.8516 1051.1719,897.6641 Q1050.8438,897.2891 1050.2344,897.0703 Q1049.625,896.8516 1049,896.8516 Q1048.2344,896.8516 1047.5938,897.1797 Q1046.9688,897.5078 1046.4688,898.2578 Q1045.9844,899.0078 1045.9844,900.0391 L1045.9844,901.1328 Q1045.9844,902.3672 1046.875,903.1953 Q1047.7656,904.0078 1049.3594,904.0078 Q1050.2969,904.0078 1050.9531,903.7578 Q1051.3438,903.6016 1051.7656,903.1641 Q1052.0313,902.8984 1052.1719,902.8203 Q1052.3281,902.7422 1052.5313,902.7422 Q1052.8594,902.7422 1053.1094,903.0078 Q1053.375,903.2578 1053.375,903.6016 Q1053.375,903.9453 1053.0313,904.3516 Q1052.5313,904.9297 1051.7344,905.2578 Q1050.6563,905.7109 1049.3594,905.7109 Q1047.8438,905.7109 1046.6406,905.0859 Q1045.6563,904.5859 1044.9688,903.5234 Q1044.2813,902.4453 1044.2813,901.1641 L1044.2813,900.0078 Q1044.2813,898.6797 1044.8906,897.5391 Q1045.5156,896.3828 1046.6094,895.7734 Q1047.7031,895.1484 1048.9375,895.1484 Q1049.6719,895.1484 1050.3125,895.3203 Q1050.9688,895.4766 1051.5156,895.8359 Z " fill="#000000"/><text fill="#000000" font-family="sans-serif" font-size="12" font-style="italic" lengthAdjust="spacing" textLength="80" x="1063.25" y="896.0664">&#171;valueObject&#187;</text><text fill="#000000" font-family="sans-serif" font-size="14" lengthAdjust="spacing" textLength="76" x="1065.25" y="913.2363">EncounterId</text><line style="stroke:#181818;stroke-width:0.5;" x1="1023.5" x2="1154.5" y1="921.3125" y2="921.3125"/><text fill="#000000" font-family="sans-serif" font-size="14" lengthAdjust="spacing" textLength="121" x="1028.5" y="939.8457">-idEncounter: Long</text><line style="stroke:#181818;stroke-width:0.5;" x1="1023.5" x2="1154.5" y1="946.9219" y2="946.9219"/></g><!--class DoctorSchedule--><g id="elem_DoctorSchedule"><rect codeLine="33" fill="#F6CACA" height="146.75" id="DoctorSchedule" rx="2.5" ry="2.5" style="stroke:#181818;stroke-width:0.5;" width="175" x="797.5" y="143.6094"/><ellipse cx="831.4" cy="164.9609" fill="#ADD1B2" rx="11" ry="11" style="stroke:#181818;stroke-width:1.0;"/><path d="M834.1656,160.8359 Q834.3219,160.6172 834.5094,160.5078 Q834.6969,160.3984 834.9156,160.3984 Q835.2906,160.3984 835.525,160.6641 Q835.7594,160.9141 835.7594,161.5234 L835.7594,162.9766 Q835.7594,163.5859 835.525,163.8516 Q835.2906,164.1172 834.9156,164.1172 Q834.5719,164.1172 834.3688,163.9141 Q834.1656,163.7266 834.0563,163.2109 Q834.0094,162.8516 833.8219,162.6641 Q833.4938,162.2891 832.8844,162.0703 Q832.275,161.8516 831.65,161.8516 Q830.8844,161.8516 830.2438,162.1797 Q829.6188,162.5078 829.1188,163.2578 Q828.6344,164.0078 828.6344,165.0391 L828.6344,166.1328 Q828.6344,167.3672 829.525,168.1953 Q830.4156,169.0078 832.0094,169.0078 Q832.9469,169.0078 833.6031,168.7578 Q833.9938,168.6016 834.4156,168.1641 Q834.6813,167.8984 834.8219,167.8203 Q834.9781,167.7422 835.1813,167.7422 Q835.5094,167.7422 835.7594,168.0078 Q836.025,168.2578 836.025,168.6016 Q836.025,168.9453 835.6813,169.3516 Q835.1813,169.9297 834.3844,170.2578 Q833.3063,170.7109 832.0094,170.7109 Q830.4938,170.7109 829.2906,170.0859 Q828.3063,169.5859 827.6188,168.5234 Q826.9313,167.4453 826.9313,166.1641 L826.9313,165.0078 Q826.9313,163.6797 827.5406,162.5391 Q828.1656,161.3828 829.2594,160.7734 Q830.3531,160.1484 831.5875,160.1484 Q832.3219,160.1484 832.9625,160.3203 Q833.6188,160.4766 834.1656,160.8359 Z " fill="#000000"/><text fill="#000000" font-family="sans-serif" font-size="12" font-style="italic" lengthAdjust="spacing" textLength="70" x="865.1" y="161.0664">&#171;aggregate&#187;</text><text fill="#000000" font-family="sans-serif" font-size="14" lengthAdjust="spacing" textLength="101" x="849.6" y="178.2363">DoctorSchedule</text><line style="stroke:#181818;stroke-width:0.5;" x1="798.5" x2="971.5" y1="186.3125" y2="186.3125"/><text fill="#000000" font-family="sans-serif" font-size="14" lengthAdjust="spacing" textLength="157" x="803.5" y="204.8457">-idDoctorSchedule: Long</text><text fill="#000000" font-family="sans-serif" font-size="14" lengthAdjust="spacing" textLength="71" x="803.5" y="222.4551">-date: Date</text><text fill="#000000" font-family="sans-serif" font-size="14" lengthAdjust="spacing" textLength="150" x="803.5" y="240.0645">-status: ScheduleStatus</text><line style="stroke:#181818;stroke-width:0.5;" x1="798.5" x2="971.5" y1="247.1406" y2="247.1406"/><text fill="#000000" font-family="sans-serif" font-size="14" lengthAdjust="spacing" textLength="163" x="803.5" y="265.6738">+publishAvailability(): void</text><text fill="#000000" font-family="sans-serif" font-size="14" lengthAdjust="spacing" textLength="140" x="803.5" y="283.2832">+blockTimeSlot(): void</text></g><!--class TimeSlot--><g id="elem_TimeSlot"><rect codeLine="41" fill="#DDEBFF" height="164.3594" id="TimeSlot" rx="2.5" ry="2.5" style="stroke:#181818;stroke-width:0.5;" width="133" x="735.5" y="350.6094"/><ellipse cx="771.2" cy="371.9609" fill="#ADD1B2" rx="11" ry="11" style="stroke:#181818;stroke-width:1.0;"/><path d="M773.9656,367.8359 Q774.1219,367.6172 774.3094,367.5078 Q774.4969,367.3984 774.7156,367.3984 Q775.0906,367.3984 775.325,367.6641 Q775.5594,367.9141 775.5594,368.5234 L775.5594,369.9766 Q775.5594,370.5859 775.325,370.8516 Q775.0906,371.1172 774.7156,371.1172 Q774.3719,371.1172 774.1688,370.9141 Q773.9656,370.7266 773.8563,370.2109 Q773.8094,369.8516 773.6219,369.6641 Q773.2938,369.2891 772.6844,369.0703 Q772.075,368.8516 771.45,368.8516 Q770.6844,368.8516 770.0438,369.1797 Q769.4188,369.5078 768.9188,370.2578 Q768.4344,371.0078 768.4344,372.0391 L768.4344,373.1328 Q768.4344,374.3672 769.325,375.1953 Q770.2156,376.0078 771.8094,376.0078 Q772.7469,376.0078 773.4031,375.7578 Q773.7938,375.6016 774.2156,375.1641 Q774.4813,374.8984 774.6219,374.8203 Q774.7781,374.7422 774.9813,374.7422 Q775.3094,374.7422 775.5594,375.0078 Q775.825,375.2578 775.825,375.6016 Q775.825,375.9453 775.4813,376.3516 Q774.9813,376.9297 774.1844,377.2578 Q773.1063,377.7109 771.8094,377.7109 Q770.2938,377.7109 769.0906,377.0859 Q768.1063,376.5859 767.4188,375.5234 Q766.7313,374.4453 766.7313,373.1641 L766.7313,372.0078 Q766.7313,370.6797 767.3406,369.5391 Q767.9656,368.3828 769.0594,367.7734 Q770.1531,367.1484 771.3875,367.1484 Q772.1219,367.1484 772.7625,367.3203 Q773.4188,367.4766 773.9656,367.8359 Z " fill="#000000"/><text fill="#000000" font-family="sans-serif" font-size="12" font-style="italic" lengthAdjust="spacing" textLength="43" x="795.8" y="368.0664">&#171;entity&#187;</text><text fill="#000000" font-family="sans-serif" font-size="14" lengthAdjust="spacing" textLength="55" x="789.8" y="385.2363">TimeSlot</text><line style="stroke:#181818;stroke-width:0.5;" x1="736.5" x2="867.5" y1="393.3125" y2="393.3125"/><text fill="#000000" font-family="sans-serif" font-size="14" lengthAdjust="spacing" textLength="111" x="741.5" y="411.8457">-idTimeSlot: Long</text><text fill="#000000" font-family="sans-serif" font-size="14" lengthAdjust="spacing" textLength="115" x="741.5" y="429.4551">-startAt: DateTime</text><text fill="#000000" font-family="sans-serif" font-size="14" lengthAdjust="spacing" textLength="111" x="741.5" y="447.0645">-endAt: DateTime</text><text fill="#000000" font-family="sans-serif" font-size="14" lengthAdjust="spacing" textLength="121" x="741.5" y="464.6738">-available: Boolean</text><line style="stroke:#181818;stroke-width:0.5;" x1="736.5" x2="867.5" y1="471.75" y2="471.75"/><text fill="#000000" font-family="sans-serif" font-size="14" lengthAdjust="spacing" textLength="100" x="741.5" y="490.2832">+reserve(): void</text><text fill="#000000" font-family="sans-serif" font-size="14" lengthAdjust="spacing" textLength="99" x="741.5" y="507.8926">+release(): void</text></g><!--class Appointment--><g id="elem_Appointment"><rect codeLine="50" fill="#F6CACA" height="199.5781" id="Appointment" rx="2.5" ry="2.5" style="stroke:#181818;stroke-width:0.5;" width="258" x="603" y="574.6094"/><ellipse cx="688.25" cy="595.9609" fill="#ADD1B2" rx="11" ry="11" style="stroke:#181818;stroke-width:1.0;"/><path d="M691.0156,591.8359 Q691.1719,591.6172 691.3594,591.5078 Q691.5469,591.3984 691.7656,591.3984 Q692.1406,591.3984 692.375,591.6641 Q692.6094,591.9141 692.6094,592.5234 L692.6094,593.9766 Q692.6094,594.5859 692.375,594.8516 Q692.1406,595.1172 691.7656,595.1172 Q691.4219,595.1172 691.2188,594.9141 Q691.0156,594.7266 690.9063,594.2109 Q690.8594,593.8516 690.6719,593.6641 Q690.3438,593.2891 689.7344,593.0703 Q689.125,592.8516 688.5,592.8516 Q687.7344,592.8516 687.0938,593.1797 Q686.4688,593.5078 685.9688,594.2578 Q685.4844,595.0078 685.4844,596.0391 L685.4844,597.1328 Q685.4844,598.3672 686.375,599.1953 Q687.2656,600.0078 688.8594,600.0078 Q689.7969,600.0078 690.4531,599.7578 Q690.8438,599.6016 691.2656,599.1641 Q691.5313,598.8984 691.6719,598.8203 Q691.8281,598.7422 692.0313,598.7422 Q692.3594,598.7422 692.6094,599.0078 Q692.875,599.2578 692.875,599.6016 Q692.875,599.9453 692.5313,600.3516 Q692.0313,600.9297 691.2344,601.2578 Q690.1563,601.7109 688.8594,601.7109 Q687.3438,601.7109 686.1406,601.0859 Q685.1563,600.5859 684.4688,599.5234 Q683.7813,598.4453 683.7813,597.1641 L683.7813,596.0078 Q683.7813,594.6797 684.3906,593.5391 Q685.0156,592.3828 686.1094,591.7734 Q687.2031,591.1484 688.4375,591.1484 Q689.1719,591.1484 689.8125,591.3203 Q690.4688,591.4766 691.0156,591.8359 Z " fill="#000000"/><text fill="#000000" font-family="sans-serif" font-size="12" font-style="italic" lengthAdjust="spacing" textLength="70" x="713.25" y="592.0664">&#171;aggregate&#187;</text><text fill="#000000" font-family="sans-serif" font-size="14" lengthAdjust="spacing" textLength="79" x="708.75" y="609.2363">Appointment</text><line style="stroke:#181818;stroke-width:0.5;" x1="604" x2="860" y1="617.3125" y2="617.3125"/><text fill="#000000" font-family="sans-serif" font-size="14" lengthAdjust="spacing" textLength="135" x="609" y="635.8457">-idAppointment: Long</text><text fill="#000000" font-family="sans-serif" font-size="14" lengthAdjust="spacing" textLength="152" x="609" y="653.4551">-scheduledAt: DateTime</text><text fill="#000000" font-family="sans-serif" font-size="14" lengthAdjust="spacing" textLength="94" x="609" y="671.0645">-reason: String</text><text fill="#000000" font-family="sans-serif" font-size="14" lengthAdjust="spacing" textLength="170" x="609" y="688.6738">-status: AppointmentStatus</text><line style="stroke:#181818;stroke-width:0.5;" x1="604" x2="860" y1="695.75" y2="695.75"/><text fill="#000000" font-family="sans-serif" font-size="14" lengthAdjust="spacing" textLength="98" x="609" y="714.2832">+confirm(): void</text><text fill="#000000" font-family="sans-serif" font-size="14" lengthAdjust="spacing" textLength="246" x="609" y="731.8926">+reschedule(newDate: DateTime): void</text><text fill="#000000" font-family="sans-serif" font-size="14" lengthAdjust="spacing" textLength="93" x="609" y="749.502">+cancel(): void</text><text fill="#000000" font-family="sans-serif" font-size="14" lengthAdjust="spacing" textLength="100" x="609" y="767.1113">+checkIn(): void</text></g><!--class AppointmentRequest--><g id="elem_AppointmentRequest"><rect codeLine="61" fill="#DDEBFF" height="129.1406" id="AppointmentRequest" rx="2.5" ry="2.5" style="stroke:#181818;stroke-width:0.5;" width="200" x="183" y="368.1094"/><ellipse cx="214.2" cy="389.4609" fill="#ADD1B2" rx="11" ry="11" style="stroke:#181818;stroke-width:1.0;"/><path d="M216.9656,385.3359 Q217.1219,385.1172 217.3094,385.0078 Q217.4969,384.8984 217.7156,384.8984 Q218.0906,384.8984 218.325,385.1641 Q218.5594,385.4141 218.5594,386.0234 L218.5594,387.4766 Q218.5594,388.0859 218.325,388.3516 Q218.0906,388.6172 217.7156,388.6172 Q217.3719,388.6172 217.1688,388.4141 Q216.9656,388.2266 216.8563,387.7109 Q216.8094,387.3516 216.6219,387.1641 Q216.2938,386.7891 215.6844,386.5703 Q215.075,386.3516 214.45,386.3516 Q213.6844,386.3516 213.0438,386.6797 Q212.4188,387.0078 211.9188,387.7578 Q211.4344,388.5078 211.4344,389.5391 L211.4344,390.6328 Q211.4344,391.8672 212.325,392.6953 Q213.2156,393.5078 214.8094,393.5078 Q215.7469,393.5078 216.4031,393.2578 Q216.7938,393.1016 217.2156,392.6641 Q217.4813,392.3984 217.6219,392.3203 Q217.7781,392.2422 217.9813,392.2422 Q218.3094,392.2422 218.5594,392.5078 Q218.825,392.7578 218.825,393.1016 Q218.825,393.4453 218.4813,393.8516 Q217.9813,394.4297 217.1844,394.7578 Q216.1063,395.2109 214.8094,395.2109 Q213.2938,395.2109 212.0906,394.5859 Q211.1063,394.0859 210.4188,393.0234 Q209.7313,391.9453 209.7313,390.6641 L209.7313,389.5078 Q209.7313,388.1797 210.3406,387.0391 Q210.9656,385.8828 212.0594,385.2734 Q213.1531,384.6484 214.3875,384.6484 Q215.1219,384.6484 215.7625,384.8203 Q216.4188,384.9766 216.9656,385.3359 Z " fill="#000000"/><text fill="#000000" font-family="sans-serif" font-size="12" font-style="italic" lengthAdjust="spacing" textLength="43" x="276.3" y="385.5664">&#171;entity&#187;</text><text fill="#000000" font-family="sans-serif" font-size="14" lengthAdjust="spacing" textLength="132" x="231.8" y="402.7363">AppointmentRequest</text><line style="stroke:#181818;stroke-width:0.5;" x1="184" x2="382" y1="410.8125" y2="410.8125"/><text fill="#000000" font-family="sans-serif" font-size="14" lengthAdjust="spacing" textLength="188" x="189" y="429.3457">-idAppointmentRequest: Long</text><text fill="#000000" font-family="sans-serif" font-size="14" lengthAdjust="spacing" textLength="167" x="189" y="446.9551">-channel: BookingChannel</text><text fill="#000000" font-family="sans-serif" font-size="14" lengthAdjust="spacing" textLength="151" x="189" y="464.5645">-requestedAt: DateTime</text><line style="stroke:#181818;stroke-width:0.5;" x1="184" x2="382" y1="471.6406" y2="471.6406"/><text fill="#000000" font-family="sans-serif" font-size="14" lengthAdjust="spacing" textLength="167" x="189" y="490.1738">+validateAvailability(): void</text></g><!--class SchedulingPolicy--><g id="elem_SchedulingPolicy"><rect codeLine="68" fill="#DDEBFF" height="146.75" id="SchedulingPolicy" rx="2.5" ry="2.5" style="stroke:#181818;stroke-width:0.5;" width="364" x="194" y="843.1094"/><ellipse cx="318.25" cy="864.4609" fill="#ADD1B2" rx="11" ry="11" style="stroke:#181818;stroke-width:1.0;"/><path d="M321.0156,860.3359 Q321.1719,860.1172 321.3594,860.0078 Q321.5469,859.8984 321.7656,859.8984 Q322.1406,859.8984 322.375,860.1641 Q322.6094,860.4141 322.6094,861.0234 L322.6094,862.4766 Q322.6094,863.0859 322.375,863.3516 Q322.1406,863.6172 321.7656,863.6172 Q321.4219,863.6172 321.2188,863.4141 Q321.0156,863.2266 320.9063,862.7109 Q320.8594,862.3516 320.6719,862.1641 Q320.3438,861.7891 319.7344,861.5703 Q319.125,861.3516 318.5,861.3516 Q317.7344,861.3516 317.0938,861.6797 Q316.4688,862.0078 315.9688,862.7578 Q315.4844,863.5078 315.4844,864.5391 L315.4844,865.6328 Q315.4844,866.8672 316.375,867.6953 Q317.2656,868.5078 318.8594,868.5078 Q319.7969,868.5078 320.4531,868.2578 Q320.8438,868.1016 321.2656,867.6641 Q321.5313,867.3984 321.6719,867.3203 Q321.8281,867.2422 322.0313,867.2422 Q322.3594,867.2422 322.6094,867.5078 Q322.875,867.7578 322.875,868.1016 Q322.875,868.4453 322.5313,868.8516 Q322.0313,869.4297 321.2344,869.7578 Q320.1563,870.2109 318.8594,870.2109 Q317.3438,870.2109 316.1406,869.5859 Q315.1563,869.0859 314.4688,868.0234 Q313.7813,866.9453 313.7813,865.6641 L313.7813,864.5078 Q313.7813,863.1797 314.3906,862.0391 Q315.0156,860.8828 316.1094,860.2734 Q317.2031,859.6484 318.4375,859.6484 Q319.1719,859.6484 319.8125,859.8203 Q320.4688,859.9766 321.0156,860.3359 Z " fill="#000000"/><text fill="#000000" font-family="sans-serif" font-size="12" font-style="italic" lengthAdjust="spacing" textLength="43" x="370.75" y="860.5664">&#171;entity&#187;</text><text fill="#000000" font-family="sans-serif" font-size="14" lengthAdjust="spacing" textLength="107" x="338.75" y="877.7363">SchedulingPolicy</text><line style="stroke:#181818;stroke-width:0.5;" x1="195" x2="557" y1="885.8125" y2="885.8125"/><text fill="#000000" font-family="sans-serif" font-size="14" lengthAdjust="spacing" textLength="163" x="200" y="904.3457">-idSchedulingPolicy: Long</text><text fill="#000000" font-family="sans-serif" font-size="14" lengthAdjust="spacing" textLength="227" x="200" y="921.9551">-minimumCancellationHours: Integer</text><text fill="#000000" font-family="sans-serif" font-size="14" lengthAdjust="spacing" textLength="238" x="200" y="939.5645">-appointmentDurationMinutes: Integer</text><line style="stroke:#181818;stroke-width:0.5;" x1="195" x2="557" y1="946.6406" y2="946.6406"/><text fill="#000000" font-family="sans-serif" font-size="14" lengthAdjust="spacing" textLength="344" x="200" y="965.1738">+validateCancellation(appointment: Appointment): void</text><text fill="#000000" font-family="sans-serif" font-size="14" lengthAdjust="spacing" textLength="352" x="200" y="982.7832">+validateRescheduling(appointment: Appointment): void</text></g><!--class AppointmentReminder--><g id="elem_AppointmentReminder"><rect codeLine="76" fill="#DDEBFF" height="164.3594" id="AppointmentReminder" rx="2.5" ry="2.5" style="stroke:#181818;stroke-width:0.5;" width="208" x="593" y="834.6094"/><ellipse cx="624.2" cy="855.9609" fill="#ADD1B2" rx="11" ry="11" style="stroke:#181818;stroke-width:1.0;"/><path d="M626.9656,851.8359 Q627.1219,851.6172 627.3094,851.5078 Q627.4969,851.3984 627.7156,851.3984 Q628.0906,851.3984 628.325,851.6641 Q628.5594,851.9141 628.5594,852.5234 L628.5594,853.9766 Q628.5594,854.5859 628.325,854.8516 Q628.0906,855.1172 627.7156,855.1172 Q627.3719,855.1172 627.1688,854.9141 Q626.9656,854.7266 626.8563,854.2109 Q626.8094,853.8516 626.6219,853.6641 Q626.2938,853.2891 625.6844,853.0703 Q625.075,852.8516 624.45,852.8516 Q623.6844,852.8516 623.0438,853.1797 Q622.4188,853.5078 621.9188,854.2578 Q621.4344,855.0078 621.4344,856.0391 L621.4344,857.1328 Q621.4344,858.3672 622.325,859.1953 Q623.2156,860.0078 624.8094,860.0078 Q625.7469,860.0078 626.4031,859.7578 Q626.7938,859.6016 627.2156,859.1641 Q627.4813,858.8984 627.6219,858.8203 Q627.7781,858.7422 627.9813,858.7422 Q628.3094,858.7422 628.5594,859.0078 Q628.825,859.2578 628.825,859.6016 Q628.825,859.9453 628.4813,860.3516 Q627.9813,860.9297 627.1844,861.2578 Q626.1063,861.7109 624.8094,861.7109 Q623.2938,861.7109 622.0906,861.0859 Q621.1063,860.5859 620.4188,859.5234 Q619.7313,858.4453 619.7313,857.1641 L619.7313,856.0078 Q619.7313,854.6797 620.3406,853.5391 Q620.9656,852.3828 622.0594,851.7734 Q623.1531,851.1484 624.3875,851.1484 Q625.1219,851.1484 625.7625,851.3203 Q626.4188,851.4766 626.9656,851.8359 Z " fill="#000000"/><text fill="#000000" font-family="sans-serif" font-size="12" font-style="italic" lengthAdjust="spacing" textLength="43" x="690.3" y="852.0664">&#171;entity&#187;</text><text fill="#000000" font-family="sans-serif" font-size="14" lengthAdjust="spacing" textLength="140" x="641.8" y="869.2363">AppointmentReminder</text><line style="stroke:#181818;stroke-width:0.5;" x1="594" x2="800" y1="877.3125" y2="877.3125"/><text fill="#000000" font-family="sans-serif" font-size="14" lengthAdjust="spacing" textLength="196" x="599" y="895.8457">-idAppointmentReminder: Long</text><text fill="#000000" font-family="sans-serif" font-size="14" lengthAdjust="spacing" textLength="185" x="599" y="913.4551">-channel: NotificationChannel</text><text fill="#000000" font-family="sans-serif" font-size="14" lengthAdjust="spacing" textLength="152" x="599" y="931.0645">-scheduledAt: DateTime</text><text fill="#000000" font-family="sans-serif" font-size="14" lengthAdjust="spacing" textLength="152" x="599" y="948.6738">-status: ReminderStatus</text><line style="stroke:#181818;stroke-width:0.5;" x1="594" x2="800" y1="955.75" y2="955.75"/><text fill="#000000" font-family="sans-serif" font-size="14" lengthAdjust="spacing" textLength="109" x="599" y="974.2832">+schedule(): void</text><text fill="#000000" font-family="sans-serif" font-size="14" lengthAdjust="spacing" textLength="83" x="599" y="991.8926">+send(): void</text></g><!--class ScheduleStatus--><g id="elem_ScheduleStatus"><rect codeLine="85" fill="#F1F1F1" height="100.8281" id="ScheduleStatus" rx="2.5" ry="2.5" style="stroke:#181818;stroke-width:0.5;" width="131" x="903.5" y="382.1094"/><ellipse cx="918.5" cy="398.1094" fill="#EB937F" rx="11" ry="11" style="stroke:#181818;stroke-width:1.0;"/><path d="M917.3594,398.9063 L917.3594,401.4063 L921.6875,401.4063 L921.6875,400.4844 Q921.6875,399.875 921.9219,399.6094 Q922.1719,399.3438 922.5469,399.3438 Q922.9219,399.3438 923.1563,399.6094 Q923.3906,399.875 923.3906,400.4844 L923.3906,403.1094 L915.3906,403.1094 Q914.7656,403.1094 914.5,402.875 Q914.25,402.6406 914.25,402.25 Q914.25,401.875 914.5156,401.6406 Q914.7813,401.4063 915.3906,401.4063 L915.6563,401.4063 L915.6563,394.75 L915.3906,394.75 Q914.7656,394.75 914.5,394.5156 Q914.25,394.2813 914.25,393.8906 Q914.25,393.5156 914.5,393.2813 Q914.7656,393.0469 915.3906,393.0469 L923.0156,393.0469 L923.0156,395.6406 Q923.0156,396.25 922.7813,396.5156 Q922.5625,396.7656 922.1719,396.7656 Q921.7969,396.7656 921.5625,396.5156 Q921.3281,396.25 921.3281,395.6406 L921.3281,394.75 L917.3594,394.75 L917.3594,397.2031 L918.8438,397.2031 Q918.8438,396.5469 918.9688,396.3594 Q919.2344,395.9531 919.7031,395.9531 Q920.0781,395.9531 920.3125,396.2188 Q920.5469,396.4688 920.5469,397.0781 L920.5469,399.0469 Q920.5469,399.5938 920.4219,399.7813 Q920.1563,400.1719 919.7031,400.1719 Q919.2344,400.1719 918.9688,399.7656 Q918.8438,399.5781 918.8438,398.9063 L917.3594,398.9063 Z " fill="#000000"/><text fill="#000000" font-family="sans-serif" font-size="14" lengthAdjust="spacing" textLength="99" x="932.5" y="403.8379">ScheduleStatus</text><line style="stroke:#181818;stroke-width:0.5;" x1="904.5" x2="1033.5" y1="414.1094" y2="414.1094"/><text fill="#000000" font-family="sans-serif" font-size="14" lengthAdjust="spacing" textLength="47" x="909.5" y="432.6426">DRAFT</text><text fill="#000000" font-family="sans-serif" font-size="14" lengthAdjust="spacing" textLength="75" x="909.5" y="450.252">PUBLISHED</text><text fill="#000000" font-family="sans-serif" font-size="14" lengthAdjust="spacing" textLength="66" x="909.5" y="467.8613">BLOCKED</text><line style="stroke:#181818;stroke-width:0.5;" x1="904.5" x2="1033.5" y1="474.9375" y2="474.9375"/></g><!--class AppointmentStatus--><g id="elem_AppointmentStatus"><rect codeLine="91" fill="#F1F1F1" height="153.6563" id="AppointmentStatus" rx="2.5" ry="2.5" style="stroke:#181818;stroke-width:0.5;" width="151" x="836.5" y="839.6094"/><ellipse cx="851.5" cy="855.6094" fill="#EB937F" rx="11" ry="11" style="stroke:#181818;stroke-width:1.0;"/><path d="M850.3594,856.4063 L850.3594,858.9063 L854.6875,858.9063 L854.6875,857.9844 Q854.6875,857.375 854.9219,857.1094 Q855.1719,856.8438 855.5469,856.8438 Q855.9219,856.8438 856.1563,857.1094 Q856.3906,857.375 856.3906,857.9844 L856.3906,860.6094 L848.3906,860.6094 Q847.7656,860.6094 847.5,860.375 Q847.25,860.1406 847.25,859.75 Q847.25,859.375 847.5156,859.1406 Q847.7813,858.9063 848.3906,858.9063 L848.6563,858.9063 L848.6563,852.25 L848.3906,852.25 Q847.7656,852.25 847.5,852.0156 Q847.25,851.7813 847.25,851.3906 Q847.25,851.0156 847.5,850.7813 Q847.7656,850.5469 848.3906,850.5469 L856.0156,850.5469 L856.0156,853.1406 Q856.0156,853.75 855.7813,854.0156 Q855.5625,854.2656 855.1719,854.2656 Q854.7969,854.2656 854.5625,854.0156 Q854.3281,853.75 854.3281,853.1406 L854.3281,852.25 L850.3594,852.25 L850.3594,854.7031 L851.8438,854.7031 Q851.8438,854.0469 851.9688,853.8594 Q852.2344,853.4531 852.7031,853.4531 Q853.0781,853.4531 853.3125,853.7188 Q853.5469,853.9688 853.5469,854.5781 L853.5469,856.5469 Q853.5469,857.0938 853.4219,857.2813 Q853.1563,857.6719 852.7031,857.6719 Q852.2344,857.6719 851.9688,857.2656 Q851.8438,857.0781 851.8438,856.4063 L850.3594,856.4063 Z " fill="#000000"/><text fill="#000000" font-family="sans-serif" font-size="14" lengthAdjust="spacing" textLength="119" x="865.5" y="861.3379">AppointmentStatus</text><line style="stroke:#181818;stroke-width:0.5;" x1="837.5" x2="986.5" y1="871.6094" y2="871.6094"/><text fill="#000000" font-family="sans-serif" font-size="14" lengthAdjust="spacing" textLength="83" x="842.5" y="890.1426">SCHEDULED</text><text fill="#000000" font-family="sans-serif" font-size="14" lengthAdjust="spacing" textLength="82" x="842.5" y="907.752">CONFIRMED</text><text fill="#000000" font-family="sans-serif" font-size="14" lengthAdjust="spacing" textLength="86" x="842.5" y="925.3613">CHECKED_IN</text><text fill="#000000" font-family="sans-serif" font-size="14" lengthAdjust="spacing" textLength="74" x="842.5" y="942.9707">CANCELED</text><text fill="#000000" font-family="sans-serif" font-size="14" lengthAdjust="spacing" textLength="102" x="842.5" y="960.5801">RESCHEDULED</text><text fill="#000000" font-family="sans-serif" font-size="14" lengthAdjust="spacing" textLength="74" x="842.5" y="978.1895">ATTENDED</text><line style="stroke:#181818;stroke-width:0.5;" x1="837.5" x2="986.5" y1="985.2656" y2="985.2656"/></g><!--class BookingChannel--><g id="elem_BookingChannel"><rect codeLine="100" fill="#F1F1F1" height="100.8281" id="BookingChannel" rx="2.5" ry="2.5" style="stroke:#181818;stroke-width:0.5;" width="136" x="111" y="624.1094"/><ellipse cx="126" cy="640.1094" fill="#EB937F" rx="11" ry="11" style="stroke:#181818;stroke-width:1.0;"/><path d="M124.8594,640.9063 L124.8594,643.4063 L129.1875,643.4063 L129.1875,642.4844 Q129.1875,641.875 129.4219,641.6094 Q129.6719,641.3438 130.0469,641.3438 Q130.4219,641.3438 130.6563,641.6094 Q130.8906,641.875 130.8906,642.4844 L130.8906,645.1094 L122.8906,645.1094 Q122.2656,645.1094 122,644.875 Q121.75,644.6406 121.75,644.25 Q121.75,643.875 122.0156,643.6406 Q122.2813,643.4063 122.8906,643.4063 L123.1563,643.4063 L123.1563,636.75 L122.8906,636.75 Q122.2656,636.75 122,636.5156 Q121.75,636.2813 121.75,635.8906 Q121.75,635.5156 122,635.2813 Q122.2656,635.0469 122.8906,635.0469 L130.5156,635.0469 L130.5156,637.6406 Q130.5156,638.25 130.2813,638.5156 Q130.0625,638.7656 129.6719,638.7656 Q129.2969,638.7656 129.0625,638.5156 Q128.8281,638.25 128.8281,637.6406 L128.8281,636.75 L124.8594,636.75 L124.8594,639.2031 L126.3438,639.2031 Q126.3438,638.5469 126.4688,638.3594 Q126.7344,637.9531 127.2031,637.9531 Q127.5781,637.9531 127.8125,638.2188 Q128.0469,638.4688 128.0469,639.0781 L128.0469,641.0469 Q128.0469,641.5938 127.9219,641.7813 Q127.6563,642.1719 127.2031,642.1719 Q126.7344,642.1719 126.4688,641.7656 Q126.3438,641.5781 126.3438,640.9063 L124.8594,640.9063 Z " fill="#000000"/><text fill="#000000" font-family="sans-serif" font-size="14" lengthAdjust="spacing" textLength="104" x="140" y="645.8379">BookingChannel</text><line style="stroke:#181818;stroke-width:0.5;" x1="112" x2="246" y1="656.1094" y2="656.1094"/><text fill="#000000" font-family="sans-serif" font-size="14" lengthAdjust="spacing" textLength="31" x="117" y="674.6426">WEB</text><text fill="#000000" font-family="sans-serif" font-size="14" lengthAdjust="spacing" textLength="47" x="117" y="692.252">PHONE</text><text fill="#000000" font-family="sans-serif" font-size="14" lengthAdjust="spacing" textLength="77" x="117" y="709.8613">IN_PERSON</text><line style="stroke:#181818;stroke-width:0.5;" x1="112" x2="246" y1="716.9375" y2="716.9375"/></g><!--class NotificationChannel--><g id="elem_NotificationChannel"><rect codeLine="106" fill="#F1F1F1" height="100.8281" id="NotificationChannel" rx="2.5" ry="2.5" style="stroke:#181818;stroke-width:0.5;" width="154" x="530" y="1058.6094"/><ellipse cx="545" cy="1074.6094" fill="#EB937F" rx="11" ry="11" style="stroke:#181818;stroke-width:1.0;"/><path d="M543.8594,1075.4063 L543.8594,1077.9063 L548.1875,1077.9063 L548.1875,1076.9844 Q548.1875,1076.375 548.4219,1076.1094 Q548.6719,1075.8438 549.0469,1075.8438 Q549.4219,1075.8438 549.6563,1076.1094 Q549.8906,1076.375 549.8906,1076.9844 L549.8906,1079.6094 L541.8906,1079.6094 Q541.2656,1079.6094 541,1079.375 Q540.75,1079.1406 540.75,1078.75 Q540.75,1078.375 541.0156,1078.1406 Q541.2813,1077.9063 541.8906,1077.9063 L542.1563,1077.9063 L542.1563,1071.25 L541.8906,1071.25 Q541.2656,1071.25 541,1071.0156 Q540.75,1070.7813 540.75,1070.3906 Q540.75,1070.0156 541,1069.7813 Q541.2656,1069.5469 541.8906,1069.5469 L549.5156,1069.5469 L549.5156,1072.1406 Q549.5156,1072.75 549.2813,1073.0156 Q549.0625,1073.2656 548.6719,1073.2656 Q548.2969,1073.2656 548.0625,1073.0156 Q547.8281,1072.75 547.8281,1072.1406 L547.8281,1071.25 L543.8594,1071.25 L543.8594,1073.7031 L545.3438,1073.7031 Q545.3438,1073.0469 545.4688,1072.8594 Q545.7344,1072.4531 546.2031,1072.4531 Q546.5781,1072.4531 546.8125,1072.7188 Q547.0469,1072.9688 547.0469,1073.5781 L547.0469,1075.5469 Q547.0469,1076.0938 546.9219,1076.2813 Q546.6563,1076.6719 546.2031,1076.6719 Q545.7344,1076.6719 545.4688,1076.2656 Q545.3438,1076.0781 545.3438,1075.4063 L543.8594,1075.4063 Z " fill="#000000"/><text fill="#000000" font-family="sans-serif" font-size="14" lengthAdjust="spacing" textLength="122" x="559" y="1080.3379">NotificationChannel</text><line style="stroke:#181818;stroke-width:0.5;" x1="531" x2="683" y1="1090.6094" y2="1090.6094"/><text fill="#000000" font-family="sans-serif" font-size="14" lengthAdjust="spacing" textLength="40" x="536" y="1109.1426">EMAIL</text><text fill="#000000" font-family="sans-serif" font-size="14" lengthAdjust="spacing" textLength="29" x="536" y="1126.752">SMS</text><text fill="#000000" font-family="sans-serif" font-size="14" lengthAdjust="spacing" textLength="76" x="536" y="1144.3613">WHATSAPP</text><line style="stroke:#181818;stroke-width:0.5;" x1="531" x2="683" y1="1151.4375" y2="1151.4375"/></g><!--class ReminderStatus--><g id="elem_ReminderStatus"><rect codeLine="112" fill="#F1F1F1" height="100.8281" id="ReminderStatus" rx="2.5" ry="2.5" style="stroke:#181818;stroke-width:0.5;" width="133" x="719.5" y="1058.6094"/><ellipse cx="734.5" cy="1074.6094" fill="#EB937F" rx="11" ry="11" style="stroke:#181818;stroke-width:1.0;"/><path d="M733.3594,1075.4063 L733.3594,1077.9063 L737.6875,1077.9063 L737.6875,1076.9844 Q737.6875,1076.375 737.9219,1076.1094 Q738.1719,1075.8438 738.5469,1075.8438 Q738.9219,1075.8438 739.1563,1076.1094 Q739.3906,1076.375 739.3906,1076.9844 L739.3906,1079.6094 L731.3906,1079.6094 Q730.7656,1079.6094 730.5,1079.375 Q730.25,1079.1406 730.25,1078.75 Q730.25,1078.375 730.5156,1078.1406 Q730.7813,1077.9063 731.3906,1077.9063 L731.6563,1077.9063 L731.6563,1071.25 L731.3906,1071.25 Q730.7656,1071.25 730.5,1071.0156 Q730.25,1070.7813 730.25,1070.3906 Q730.25,1070.0156 730.5,1069.7813 Q730.7656,1069.5469 731.3906,1069.5469 L739.0156,1069.5469 L739.0156,1072.1406 Q739.0156,1072.75 738.7813,1073.0156 Q738.5625,1073.2656 738.1719,1073.2656 Q737.7969,1073.2656 737.5625,1073.0156 Q737.3281,1072.75 737.3281,1072.1406 L737.3281,1071.25 L733.3594,1071.25 L733.3594,1073.7031 L734.8438,1073.7031 Q734.8438,1073.0469 734.9688,1072.8594 Q735.2344,1072.4531 735.7031,1072.4531 Q736.0781,1072.4531 736.3125,1072.7188 Q736.5469,1072.9688 736.5469,1073.5781 L736.5469,1075.5469 Q736.5469,1076.0938 736.4219,1076.2813 Q736.1563,1076.6719 735.7031,1076.6719 Q735.2344,1076.6719 734.9688,1076.2656 Q734.8438,1076.0781 734.8438,1075.4063 L733.3594,1075.4063 Z " fill="#000000"/><text fill="#000000" font-family="sans-serif" font-size="14" lengthAdjust="spacing" textLength="101" x="748.5" y="1080.3379">ReminderStatus</text><line style="stroke:#181818;stroke-width:0.5;" x1="720.5" x2="851.5" y1="1090.6094" y2="1090.6094"/><text fill="#000000" font-family="sans-serif" font-size="14" lengthAdjust="spacing" textLength="83" x="725.5" y="1109.1426">SCHEDULED</text><text fill="#000000" font-family="sans-serif" font-size="14" lengthAdjust="spacing" textLength="36" x="725.5" y="1126.752">SENT</text><text fill="#000000" font-family="sans-serif" font-size="14" lengthAdjust="spacing" textLength="74" x="725.5" y="1144.3613">CANCELED</text><line style="stroke:#181818;stroke-width:0.5;" x1="720.5" x2="851.5" y1="1151.4375" y2="1151.4375"/></g><!--link DoctorSchedule to SchedulingDoctorId--><g id="link_DoctorSchedule_SchedulingDoctorId"><path codeLine="118" d="M972.5,217.6094 C1084.53,217.6094 1264.33,217.6094 1264.33,217.6094 C1264.33,217.6094 1264.33,726.6694 1264.33,872.5294 " fill="none" id="DoctorSchedule-to-SchedulingDoctorId" style="stroke:#181818;stroke-width:1.0;"/><polygon fill="#181818" points="1264.33,878.5294,1268.33,869.5294,1264.33,873.5294,1260.33,869.5294,1264.33,878.5294" style="stroke:#181818;stroke-width:1.0;"/><text fill="#000000" font-family="sans-serif" font-size="13" lengthAdjust="spacing" textLength="36" x="1227.33" y="398.6545">doctor</text><text fill="#000000" font-family="sans-serif" font-size="13" lengthAdjust="spacing" textLength="7" x="980.6047" y="214.4633">1</text><text fill="#000000" font-family="sans-serif" font-size="13" lengthAdjust="spacing" textLength="7" x="1259.9716" y="867.82">1</text></g><!--link DoctorSchedule to SchedulingBranchId--><g id="link_DoctorSchedule_SchedulingBranchId"><path codeLine="119" d="M797.31,217.6094 C728.4,217.6094 644,217.6094 644,217.6094 C644,217.6094 644,326.3294 644,388.1694 " fill="none" id="DoctorSchedule-to-SchedulingBranchId" style="stroke:#181818;stroke-width:1.0;"/><polygon fill="#181818" points="644,394.1694,648,385.1694,644,389.1694,640,385.1694,644,394.1694" style="stroke:#181818;stroke-width:1.0;"/><text fill="#000000" font-family="sans-serif" font-size="13" lengthAdjust="spacing" textLength="39" x="604" y="225.7345">branch</text><text fill="#000000" font-family="sans-serif" font-size="13" lengthAdjust="spacing" textLength="7" x="782.4734" y="214.4858">1</text><text fill="#000000" font-family="sans-serif" font-size="13" lengthAdjust="spacing" textLength="7" x="636.3984" y="383.686">1</text></g><!--reverse link DoctorSchedule to TimeSlot--><g id="link_DoctorSchedule_TimeSlot"><path codeLine="120" d="M833,302.6694 C833,321.9394 833,330.8294 833,350.5094 " fill="none" id="DoctorSchedule-backto-TimeSlot" style="stroke:#181818;stroke-width:1.0;"/><polygon fill="#181818" points="833,290.6694,829,296.6694,833,302.6694,837,296.6694,833,290.6694" style="stroke:#181818;stroke-width:1.0;"/><text fill="#000000" font-family="sans-serif" font-size="13" lengthAdjust="spacing" textLength="7" x="820.7102" y="311.9668">1</text><text fill="#000000" font-family="sans-serif" font-size="13" lengthAdjust="spacing" textLength="20" x="814.9359" y="339.698">1..*</text></g><!--link TimeSlot to Appointment--><g id="link_TimeSlot_Appointment"><path codeLine="121" d="M798.25,514.8794 C798.25,534.0594 798.25,548.6994 798.25,568.5594 " fill="none" id="TimeSlot-to-Appointment" style="stroke:#181818;stroke-width:1.0;"/><polygon fill="#181818" points="798.25,574.5594,802.25,565.5594,798.25,569.5594,794.25,565.5594,798.25,574.5594" style="stroke:#181818;stroke-width:1.0;"/><text fill="#000000" font-family="sans-serif" font-size="13" lengthAdjust="spacing" textLength="7" x="790.6043" y="536.4138">1</text><text fill="#000000" font-family="sans-serif" font-size="13" lengthAdjust="spacing" textLength="22" x="780.4801" y="563.8115">0..1</text></g><!--link AppointmentRequest to SchedulingPatientId--><g id="link_AppointmentRequest_SchedulingPatientId"><path codeLine="122" d="M182.79,432.6094 C131.2,432.6094 79,432.6094 79,432.6094 C79,432.6094 79,757.7494 79,872.2294 " fill="none" id="AppointmentRequest-to-SchedulingPatientId" style="stroke:#181818;stroke-width:1.0;"/><polygon fill="#181818" points="79,878.2294,83,869.2294,79,873.2294,75,869.2294,79,878.2294" style="stroke:#181818;stroke-width:1.0;"/><text fill="#000000" font-family="sans-serif" font-size="13" lengthAdjust="spacing" textLength="39" x="39" y="600.0145">patient</text><text fill="#000000" font-family="sans-serif" font-size="13" lengthAdjust="spacing" textLength="7" x="167.8497" y="429.5001">1</text><text fill="#000000" font-family="sans-serif" font-size="13" lengthAdjust="spacing" textLength="7" x="67.2734" y="867.7563">1</text></g><!--link AppointmentRequest to Appointment--><g id="link_AppointmentRequest_Appointment"><path codeLine="123" d="M383.28,484.6094 C492.47,484.6094 651.75,484.6094 651.75,484.6094 C651.75,484.6094 651.75,522.8294 651.75,568.5994 " fill="none" id="AppointmentRequest-to-Appointment" style="stroke:#181818;stroke-width:1.0;"/><polygon fill="#181818" points="651.75,574.5994,655.75,565.5994,651.75,569.5994,647.75,565.5994,651.75,574.5994" style="stroke:#181818;stroke-width:1.0;"/><text fill="#000000" font-family="sans-serif" font-size="13" lengthAdjust="spacing" textLength="43" x="518.51" y="481.1045">creates</text><text fill="#000000" font-family="sans-serif" font-size="13" lengthAdjust="spacing" textLength="7" x="390.9013" y="485.3435">1</text><text fill="#000000" font-family="sans-serif" font-size="13" lengthAdjust="spacing" textLength="7" x="638.3379" y="563.8546">1</text></g><!--link Appointment to SchedulingPatientId--><g id="link_Appointment_SchedulingPatientId"><path codeLine="124" d="M602.83,741.6094 C427.29,741.6094 135,741.6094 135,741.6094 C135,741.6094 135,820.6894 135,872.2094 " fill="none" id="Appointment-to-SchedulingPatientId" style="stroke:#181818;stroke-width:1.0;"/><polygon fill="#181818" points="135,878.2094,139,869.2094,135,873.2094,131,869.2094,135,878.2094" style="stroke:#181818;stroke-width:1.0;"/><text fill="#000000" font-family="sans-serif" font-size="13" lengthAdjust="spacing" textLength="39" x="260.62" y="738.1045">patient</text><text fill="#000000" font-family="sans-serif" font-size="13" lengthAdjust="spacing" textLength="7" x="588.16" y="742.5378">1</text><text fill="#000000" font-family="sans-serif" font-size="13" lengthAdjust="spacing" textLength="7" x="132.8984" y="867.7328">1</text></g><!--link Appointment to SchedulingDoctorId--><g id="link_Appointment_SchedulingDoctorId"><path codeLine="125" d="M861.26,641.6094 C1008.12,641.6094 1227.67,641.6094 1227.67,641.6094 C1227.67,641.6094 1227.67,796.8094 1227.67,872.3694 " fill="none" id="Appointment-to-SchedulingDoctorId" style="stroke:#181818;stroke-width:1.0;"/><polygon fill="#181818" points="1227.67,878.3694,1231.67,869.3694,1227.67,873.3694,1223.67,869.3694,1227.67,878.3694" style="stroke:#181818;stroke-width:1.0;"/><text fill="#000000" font-family="sans-serif" font-size="13" lengthAdjust="spacing" textLength="36" x="1125.84" y="638.1045">doctor</text><text fill="#000000" font-family="sans-serif" font-size="13" lengthAdjust="spacing" textLength="7" x="868.9352" y="636.7565">1</text><text fill="#000000" font-family="sans-serif" font-size="13" lengthAdjust="spacing" textLength="7" x="1216.7815" y="867.6315">1</text></g><!--link Appointment to SchedulingEncounterId--><g id="link_Appointment_SchedulingEncounterId"><path codeLine="126" d="M861.19,708.6094 C941.09,708.6094 1028.5,708.6094 1028.5,708.6094 C1028.5,708.6094 1028.5,812.4094 1028.5,872.4594 " fill="none" id="Appointment-to-SchedulingEncounterId" style="stroke:#181818;stroke-width:1.0;"/><polygon fill="#181818" points="1028.5,878.4594,1032.5,869.4594,1028.5,873.4594,1024.5,869.4594,1028.5,878.4594" style="stroke:#181818;stroke-width:1.0;"/><text fill="#000000" font-family="sans-serif" font-size="13" lengthAdjust="spacing" textLength="57" x="970.5" y="706.3745">encounter</text><text fill="#000000" font-family="sans-serif" font-size="13" lengthAdjust="spacing" textLength="7" x="868.8611" y="707.63">1</text><text fill="#000000" font-family="sans-serif" font-size="13" lengthAdjust="spacing" textLength="22" x="995.3584" y="866.809">0..1</text></g><!--link Appointment to SchedulingPolicy--><g id="link_Appointment_SchedulingPolicy"><path codeLine="127" d="M602.78,758.6094 C536.9,758.6094 470.5,758.6094 470.5,758.6094 C470.5,758.6094 470.5,795.5794 470.5,836.6994 " fill="none" id="Appointment-to-SchedulingPolicy" style="stroke:#181818;stroke-width:1.0;"/><polygon fill="#181818" points="470.5,842.6994,474.5,833.6994,470.5,837.6994,466.5,833.6994,470.5,842.6994" style="stroke:#181818;stroke-width:1.0;"/><text fill="#000000" font-family="sans-serif" font-size="13" lengthAdjust="spacing" textLength="7" x="588.1071" y="760.5206">1</text><text fill="#000000" font-family="sans-serif" font-size="13" lengthAdjust="spacing" textLength="7" x="472.4578" y="832.1611">1</text></g><!--reverse link Appointment to AppointmentReminder--><g id="link_Appointment_AppointmentReminder"><path codeLine="128" d="M702,786.7894 C702,806.6794 702,815.3494 702,834.5594 " fill="none" id="Appointment-backto-AppointmentReminder" style="stroke:#181818;stroke-width:1.0;"/><polygon fill="#181818" points="702,774.7894,698,780.7894,702,786.7894,706,780.7894,702,774.7894" style="stroke:#181818;stroke-width:1.0;"/><text fill="#000000" font-family="sans-serif" font-size="13" lengthAdjust="spacing" textLength="7" x="692.7492" y="795.5788">1</text><text fill="#000000" font-family="sans-serif" font-size="13" lengthAdjust="spacing" textLength="20" x="681.5391" y="823.7526">0..*</text></g><!--link DoctorSchedule to ScheduleStatus--><g id="link_DoctorSchedule_ScheduleStatus"><path codeLine="129" d="M938,290.6694 C938,320.7894 938,348.8794 938,376.0994 " fill="none" id="DoctorSchedule-to-ScheduleStatus" style="stroke:#181818;stroke-width:1.0;"/><polygon fill="#181818" points="938,382.0994,942,373.0994,938,377.0994,934,373.0994,938,382.0994" style="stroke:#181818;stroke-width:1.0;"/><text fill="#000000" font-family="sans-serif" font-size="13" lengthAdjust="spacing" textLength="36" x="901" y="332.8845">status</text></g><!--link Appointment to AppointmentStatus--><g id="link_Appointment_AppointmentStatus"><path codeLine="130" d="M848.75,774.7894 C848.75,796.3694 848.75,812.8694 848.75,833.4194 " fill="none" id="Appointment-to-AppointmentStatus" style="stroke:#181818;stroke-width:1.0;"/><polygon fill="#181818" points="848.75,839.4194,852.75,830.4194,848.75,834.4194,844.75,830.4194,848.75,839.4194" style="stroke:#181818;stroke-width:1.0;"/><text fill="#000000" font-family="sans-serif" font-size="13" lengthAdjust="spacing" textLength="36" x="811.75" y="803.5945">status</text></g><!--link AppointmentRequest to BookingChannel--><g id="link_AppointmentRequest_BookingChannel"><path codeLine="131" d="M215,497.1394 C215,536.9094 215,581.1594 215,618.0294 " fill="none" id="AppointmentRequest-to-BookingChannel" style="stroke:#181818;stroke-width:1.0;"/><polygon fill="#181818" points="215,624.0294,219,615.0294,215,619.0294,211,615.0294,215,624.0294" style="stroke:#181818;stroke-width:1.0;"/><text fill="#000000" font-family="sans-serif" font-size="13" lengthAdjust="spacing" textLength="45" x="169" y="557.0845">channel</text></g><!--link AppointmentReminder to NotificationChannel--><g id="link_AppointmentReminder_NotificationChannel"><path codeLine="132" d="M638.5,998.8094 C638.5,1019.0394 638.5,1034.1194 638.5,1052.3694 " fill="none" id="AppointmentReminder-to-NotificationChannel" style="stroke:#181818;stroke-width:1.0;"/><polygon fill="#181818" points="638.5,1058.3694,642.5,1049.3694,638.5,1053.3694,634.5,1049.3694,638.5,1058.3694" style="stroke:#181818;stroke-width:1.0;"/><text fill="#000000" font-family="sans-serif" font-size="13" lengthAdjust="spacing" textLength="45" x="592.5" y="1025.0845">channel</text></g><!--link AppointmentReminder to ReminderStatus--><g id="link_AppointmentReminder_ReminderStatus"><path codeLine="133" d="M760.25,998.8094 C760.25,1019.0394 760.25,1034.1194 760.25,1052.3694 " fill="none" id="AppointmentReminder-to-ReminderStatus" style="stroke:#181818;stroke-width:1.0;"/><polygon fill="#181818" points="760.25,1058.3694,764.25,1049.3694,760.25,1053.3694,756.25,1049.3694,760.25,1058.3694" style="stroke:#181818;stroke-width:1.0;"/><text fill="#000000" font-family="sans-serif" font-size="13" lengthAdjust="spacing" textLength="36" x="723.25" y="1025.0845">status</text></g><rect fill="#DDDDDD" height="66.8281" id="_legend" rx="7.5" ry="7.5" style="stroke:#000000;stroke-width:1.0;" width="99" x="1222" y="1216.6094"/><rect fill="#F6CACA" height="17.6094" style="stroke:none;stroke-width:1.0;" width="89" x="1227" y="1223.6094"/><text fill="#000000" font-family="sans-serif" font-size="14" lengthAdjust="spacing" textLength="66" x="1231" y="1238.1426">Aggregate</text><rect fill="#DDEBFF" height="17.6094" style="stroke:none;stroke-width:1.0;" width="89" x="1227" y="1241.2188"/><text fill="#000000" font-family="sans-serif" font-size="14" lengthAdjust="spacing" textLength="35" x="1231" y="1255.752">Entity</text><rect fill="#FFF2B3" height="17.6094" style="stroke:none;stroke-width:1.0;" width="89" x="1227" y="1258.8281"/><text fill="#000000" font-family="sans-serif" font-size="14" lengthAdjust="spacing" textLength="81" x="1231" y="1273.3613">Value Object</text><line style="stroke:#000000;stroke-width:1.0;" x1="1227" x2="1316" y1="1223.6094" y2="1223.6094"/><line style="stroke:#000000;stroke-width:1.0;" x1="1227" x2="1316" y1="1241.2188" y2="1241.2188"/><line style="stroke:#000000;stroke-width:1.0;" x1="1227" x2="1316" y1="1258.8281" y2="1258.8281"/><line style="stroke:#000000;stroke-width:1.0;" x1="1227" x2="1316" y1="1276.4375" y2="1276.4375"/><line style="stroke:#000000;stroke-width:1.0;" x1="1227" x2="1227" y1="1223.6094" y2="1276.4375"/><line style="stroke:#000000;stroke-width:1.0;" x1="1316" x2="1316" y1="1223.6094" y2="1276.4375"/><!--SRC=[dLRBZjis5DthAmXdCqbWOzf1kn061cGzOACUsx2SP1CWe2MEp8v4kX8roRJ9l_UIb6HAPiPkDpOVvvvxxeEa11KvGH-fm3d5Q8py75SL2YZEIbp0F1Ou8-XEZf83IUkSiWpvd0doJS3YZR6AMOgyuv5J9Wh210fPHXbvwpY27v7WQC-5u0LAQKaIGJbpdEg9iYEMZXBfrXEYfFjQa4N2MKp_9kZMW5G7dFAlqj4ZpYjYx81t8bwE1F5I7BYnSSJ94yYFnGl4ABrYbkN4SNAI4H1RqkmWdE_tRwBVVS_tfiZBif9aM13qNIu7GJYBeYa48gXuqMjH5FqwkvkYZpYl2Lhl_mHMs04wJUeuZLCqkfjOSlQPNP6o4NeJ_HRTXXxwnq4wDsWKy4JmSf6E4AuCudOPtTy_IqrQqdIA6gcA0g4nJJNIHKlECbZxuPouDrXGy7z6tgrVPc-WLlfPYLboE6Dlbo-JQwILEsG9ho6rvvanTYvxwC0s9pfp3JC1CjmsYg9ItJFCSulk-60l1GiN1V2hvvN0egxSLZCqgfohlVV7Uf_Jwk0zOvhZFSsX0s_UkkYPqrG3zZbFddQq877EXR5bw6vtGJ5HFIpbwgu-oMr1fb0GLWfFQAqIe9UXlyyNiLOe8vrndXFCjBwILAHy9dtH9G50HUnopPDm8SS6jAUxIQH5PWb-EODSmnrZXAdoRx2P9O1Rw96MnJ22riaD8r-3hgBIKm-OGCkIl6yCbidJWbqCVql-gadrUjtEuMOcaWDcZEIg9d0VPhwUjxbGU4kQtiCneR9DVz9tXbpZbk0vJLvU5Ji4cr8BocXH5xxALuxbqp3dTGbrMS21p4ZPzDaftg0k5Uo1CdWj1i0k19Fm1fiDOwIkLvxMSjlM6FHUOVcp6a9WAIclBwB6Mwkuue8-qaJ5qYlbAntVTdTBRBPsryEz-2iuuCDY4rONWmkgaHzilMYdHfiFi-KYdeU1cisMQ_yFDJuHd9smXYFsmUh3ih7qrwjeiNreP_DGydnPhFJKM_bXYzo6VKjljmjNmS1fl_KRZv_2cTOyNwz2DLgilcp2RRnUzOmj6MyOmWTliTJg7sBDEVTsiRVPz0ZwQRV66uUhtJ0sHJ1uS4Q_ZD1uF5N_bfVVHQaQNclOlRiksgkXtV3TU0p_aycxKVUG0B1xKphksya4XaQ50MMvo-nQJbyOBdokgV5bS_EXS542LplS0dsp_-lkF-JQQgMJOVy8SQ4ncjbrOjLLQO6gojogobWkaFDgIkh14NPHrLu79hj4dfzLExYjZBGP73KeIdT9sQv4QM8xODVO3SvLf-s7yoy0]--></g></svg>